<?xml version="1.0" encoding="UTF-8" standalone="no"?>
<svg
   xmlns:dc="http://purl.org/dc/elements/1.1/"
   xmlns:cc="http://creativecommons.org/ns#"
   xmlns:rdf="http://www.w3.org/1999/02/22-rdf-syntax-ns#"
   xmlns:svg="http://www.w3.org/2000/svg"
   xmlns="http://www.w3.org/2000/svg"
   xmlns:sodipodi="http://sodipodi.sourceforge.net/DTD/sodipodi-0.dtd"
   xmlns:inkscape="http://www.inkscape.org/namespaces/inkscape"
   width="50mm"
   height="50mm"
   viewBox="0 0 50 50"
   version="1.1"
   id="svg4264"
   inkscape:version="1.0.1 (3bc2e813f5, 2020-09-07)"
   sodipodi:docname="02.svg">
  <defs
     id="defs4258" />
  <sodipodi:namedview
     id="base"
     pagecolor="#ffffff"
     bordercolor="#666666"
     borderopacity="1.0"
     inkscape:pageopacity="0.0"
     inkscape:pageshadow="2"
     inkscape:zoom="1.979899"
     inkscape:cx="134.10114"
     inkscape:cy="204.85493"
     inkscape:document-units="mm"
     inkscape:current-layer="layer1"
     inkscape:document-rotation="0"
     showgrid="false"
     inkscape:window-width="1920"
     inkscape:window-height="1018"
     inkscape:window-x="-8"
     inkscape:window-y="-8"
     inkscape:window-maximized="1" />
  <metadata
     id="metadata4261">
    <rdf:RDF>
      <cc:Work
         rdf:about="">
        <dc:format>image/svg+xml</dc:format>
        <dc:type
           rdf:resource="http://purl.org/dc/dcmitype/StillImage" />
        <dc:title></dc:title>
      </cc:Work>
    </rdf:RDF>
  </metadata>
  <g
     inkscape:label="Слой 1"
     inkscape:groupmode="layer"
     id="layer1">
    <g
       id="g1138"
       transform="matrix(0.56147378,0,0,0.56147378,-488.96269,178.25204)">
      <path
         style="fill:#000000;stroke:none;stroke-width:1;stroke-linejoin:round;stop-color:#000000"
         d="m 886.44864,-268.64656 4.44124,-29.67114 c 7.34622,-2.01902 14.92881,-3.31319 25.98584,6.0476 l 0.37797,31.65552 c -5.43085,-4.84661 -7.5187,-10.77836 -30.80505,-8.03198 z"
         id="path1120"
         sodipodi:nodetypes="ccccc" />
      <path
         style="fill:#000000;stroke:none;stroke-width:1;stroke-linejoin:round;stop-color:#000000"
         d="m 918.0569,-261.22879 0.0473,-31.13579 c 5.42067,-12.63825 13.802,-12.96412 20.41072,-15.16629 l 3.96875,30.33258 c -9.02135,1.14749 -18.32651,0.94686 -24.42677,15.9695 z"
         id="path1122"
         sodipodi:nodetypes="ccccc" />
      <path
         style="fill:#000000;stroke:none;stroke-width:1;stroke-linejoin:round;stop-color:#000000"
         d="m 916.96833,-258.51645 c -18.54679,-10.25843 -26.19209,-4.31193 -35.88094,-1.40316 l 5.14495,-31.63804 2.03793,-1.13589 -3.75875,27.4015 c 15.84294,-3.82316 26.18432,-0.98654 32.45681,6.77559 z"
         id="path1124"
         sodipodi:nodetypes="cccccc" />
      <path
         style="fill:#000000;stroke:none;stroke-width:1;stroke-linejoin:round;stop-color:#000000"
         d="m 918.00401,-259.28485 c 6.08615,-13.91759 16.13708,-14.83302 26.42627,-14.9671 l -3.41133,-24.9162 3.68528,0.6142 4.39398,30.28534 c -10.85256,-1.79889 -21.66009,-3.15526 -31.0942,8.98376 z"
         id="path1126"
         sodipodi:nodetypes="cccccc" />
      <path
         style="fill:#000000;stroke:none;stroke-width:1;stroke-linejoin:round;stop-color:#000000"
         d="m 918.0333,-258.58296 c 7.85443,-8.50056 18.89604,-10.49112 32.6713,-6.89807 l -3.63802,-27.40327 2.07886,1.27566 5.19719,31.75001 c -11.31353,-4.90445 -22.99884,-7.29936 -36.30933,1.27567 z"
         id="path1128"
         sodipodi:nodetypes="cccccc" />
      <path
         style="fill:#000000;stroke:none;stroke-width:1;stroke-linejoin:round;stop-color:#000000"
         d="m 917.39544,-257.1183 c -9.31465,-3.93136 -17.21014,-9.45927 -38.17559,-0.28348 l 5.22513,-30.68137 -0.95216,0.0501 -5.91333,32.72382 c 11.11102,-3.38281 22.80445,-2.94761 34.71328,-1.10038 3.90815,5.85398 8.00887,3.9654 10.22141,0.16493 13.25379,-4.2952 23.79095,-1.21668 34.6448,1.00226 l -5.51243,-32.87414 -0.93544,-0.0167 4.9779,30.85293 c -11.96735,-4.15177 -23.81655,-8.92687 -38.29357,0.16203 z"
         id="path1130"
         sodipodi:nodetypes="cccccccccccc" />
    </g>
  </g>
</svg>
