<?xml version="1.0" encoding="UTF-8" standalone="no"?>
<!-- Creator: CorelDRAW -->

<svg
   xml:space="preserve"
   width="423.3335mm"
   height="384.28229mm"
   version="1.1"
   style="clip-rule:evenodd;fill-rule:evenodd;image-rendering:optimizeQuality;shape-rendering:geometricPrecision;text-rendering:geometricPrecision"
   viewBox="0 0 42333.35 38428.229"
   id="svg44"
   sodipodi:docname="OJ91BK1 coral.svg"
   inkscape:version="1.4.2 (f4327f4, 2025-05-13)"
   xmlns:inkscape="http://www.inkscape.org/namespaces/inkscape"
   xmlns:sodipodi="http://sodipodi.sourceforge.net/DTD/sodipodi-0.dtd"
   xmlns="http://www.w3.org/2000/svg"
   xmlns:svg="http://www.w3.org/2000/svg"><sodipodi:namedview
   id="namedview44"
   pagecolor="#ffffff"
   bordercolor="#000000"
   borderopacity="0.25"
   inkscape:showpageshadow="2"
   inkscape:pageopacity="0.0"
   inkscape:pagecheckerboard="0"
   inkscape:deskcolor="#d1d1d1"
   inkscape:document-units="mm"
   inkscape:zoom="0.34431467"
   inkscape:cx="834.992"
   inkscape:cy="596.83776"
   inkscape:window-width="1920"
   inkscape:window-height="991"
   inkscape:window-x="-9"
   inkscape:window-y="-9"
   inkscape:window-maximized="1"
   inkscape:current-layer="Layer_x0020_1" />
 <defs
   id="defs1">
  <style
   type="text/css"
   id="style1">
   <![CDATA[
    .fil4 {fill:#FEFEFE}
    .fil6 {fill:#FDDEBA}
    .fil15 {fill:#FBC784}
    .fil18 {fill:#F5A13E}
    .fil21 {fill:#EF7E75}
    .fil19 {fill:#EC658B}
    .fil12 {fill:#F8BB3F}
    .fil14 {fill:#FAD075}
    .fil17 {fill:#E58837}
    .fil9 {fill:#EBECEC}
    .fil24 {fill:#ECEBE5}
    .fil20 {fill:#DA5A7D}
    .fil23 {fill:#D87352}
    .fil16 {fill:#BE6F2D}
    .fil8 {fill:#BDBBBA}
    .fil2 {fill:#8ECFF2}
    .fil7 {fill:#898786}
    .fil10 {fill:#7CBC5A}
    .fil11 {fill:#74A36F}
    .fil13 {fill:#5A5654}
    .fil22 {fill:#34302F}
    .fil5 {fill:#528D4F}
    .fil3 {fill:#4594C2}
    .fil25 {fill:#4A556B}
    .fil1 {fill:#2A4E7E}
    .fil0 {fill:#2D3D6A}
   ]]>
  </style>
 </defs>
 <g
   id="Layer_x0020_1"
   inkscape:label="Layer 1"
   inkscape:groupmode="layer"
   transform="translate(-2.18,12634.51)">
  <metadata
   id="CorelCorpID_0Corel-Layer" />
  <polygon
   class="fil0"
   points="2.18,-12634.51 42335.53,-12634.51 42335.53,25793.72 2.18,25793.72 "
   id="polygon1" />
  <path
   class="fil1"
   d="M 35244.68,8532.17 C 35244.68,16306.02 28942.69,22608 21168.85,22608 13395,22608 7093.01,16306.02 7093.01,8532.17 7093.02,758.32 13395,-5543.66 21168.85,-5543.66 28942.7,-5543.68 35244.68,758.32 35244.68,8532.17 Z"
   id="path1" />
  <path
   class="fil2"
   d="m 8844.28,16691.28 c -1412.32,0 -2566.71,-1142.5 -2566.71,-2557.14 0,-1400.43 960.43,-2521.8 2341.95,-2557.22 V -2515.15 h 26168.5 v 19206.43 z"
   id="path2" />
  <path
   class="fil3"
   d="m 15725.84,11595.83 v 1634.56 h 1660.67 v -1634.56 z m 0,-1745.9 v 1634.63 h 1660.67 V 9849.93 Z m 0,-1745.87 v 1634.68 h 1660.67 V 8104.06 Z m 0,-1745.72 v 1634.57 h 1660.67 V 6358.34 Z m 0,-1745.85 v 1634.67 h 1660.67 V 4612.49 Z m 0,-1748.19 v 1634.58 h 1660.67 V 2864.3 Z m -1771.86,8731.53 v 1634.56 h 1658.34 v -1634.56 z m 0,-1745.9 v 1634.63 h 1658.34 V 9849.93 Z m 0,-1745.87 v 1634.68 h 1658.34 V 8104.06 Z m 0,-1745.72 v 1634.57 h 1658.34 V 6358.34 Z m 0,-1745.85 v 1634.67 h 1658.34 V 4612.49 Z m 0,-1748.19 v 1634.58 h 1658.34 V 2864.3 Z m -1774.19,8731.53 v 1634.56 h 1660.67 v -1634.56 z m 0,-1745.9 v 1634.63 h 1660.67 V 9849.93 Z m 0,-1745.87 v 1634.68 h 1660.67 V 8104.06 Z m 0,-1745.72 v 1634.57 h 1660.67 V 6358.34 Z m 0,-1745.85 v 1634.67 h 1660.67 V 4612.49 Z m 0,-1748.19 v 1634.58 h 1660.67 V 2864.3 Z m -1774.23,8731.53 v 1634.56 h 1660.67 v -1634.56 z m 0,-1745.9 v 1634.63 h 1660.67 V 9849.93 Z m 0,-1745.87 v 1634.68 h 1660.67 V 8104.06 Z m 0,-1745.72 v 1634.57 h 1660.67 V 6358.34 Z m 0,-1745.85 v 1634.67 h 1660.67 V 4612.49 Z m 0,-1748.19 v 1634.58 h 1660.67 V 2864.3 Z M 8633.7,11595.83 v 1634.56 H 10292 v -1634.56 z m 0,-1745.9 v 1634.63 H 10292 V 9849.93 Z m 0,-1745.87 V 9738.74 H 10292 V 8104.06 Z m 0,-1745.72 V 7992.91 H 10292 V 6358.34 Z m 0,-1745.85 V 6247.16 H 10292 V 4612.49 Z m 0,-1748.19 V 4498.88 H 10292 V 2864.3 Z m -1774.15,8731.53 v 1634.56 h 1660.63 v -1634.56 z m 0,-1745.9 1660.63,1634.63 V 9849.93 Z m 0,-1745.87 1660.63,1634.68 V 8104.06 Z m 0,-1745.72 1660.63,1634.57 V 6358.34 Z m 0,-1745.85 1660.63,1634.67 V 4612.49 Z m 0,-1748.19 1660.63,1634.58 V 2864.3 Z m 17621.4,1634.58 V 2864.3 h -1660.64 v 1634.58 z m 0,1748.28 V 4612.49 h -1660.64 v 1634.67 z m 0,1745.75 V 6358.34 h -1660.64 v 1634.57 z m 0,1745.83 V 8104.06 h -1660.64 v 1634.68 z m 0,1745.82 V 9849.93 h -1660.64 v 1634.63 z m 0,1745.83 v -1634.56 h -1660.64 v 1634.56 z M 26255.2,4498.88 V 2864.3 h -1660.7 v 1634.58 z m 0,1748.28 V 4612.49 h -1660.7 v 1634.67 z m 0,1745.75 V 6358.34 h -1660.7 v 1634.57 z m 0,1745.83 V 8104.06 h -1660.7 v 1634.68 z m 0,1745.82 V 9849.93 h -1660.7 v 1634.63 z m 0,1745.83 v -1634.56 h -1660.7 v 1634.56 z M 28027.07,4498.88 V 2864.3 h -1658.26 v 1634.58 z m 0,1748.28 V 4612.49 h -1658.26 v 1634.67 z m 0,1745.75 V 6358.34 h -1658.26 v 1634.57 z m 0,1745.83 V 8104.06 h -1658.26 v 1634.68 z m 0,1745.82 V 9849.93 h -1658.26 v 1634.63 z m 0,1745.83 v -1634.56 h -1658.26 v 1634.56 z M 29801.22,4498.88 V 2864.3 H 28140.6 v 1634.58 z m 0,1748.28 V 4612.49 H 28140.6 v 1634.67 z m 0,1745.75 V 6358.34 H 28140.6 v 1634.57 z m 0,1745.83 V 8104.06 H 28140.6 v 1634.68 z m 0,1745.82 V 9849.93 H 28140.6 v 1634.63 z m 0,1745.83 V 11595.83 H 28140.6 v 1634.56 z M 31575.41,4498.88 V 2864.3 h -1660.56 v 1634.58 z m 0,1748.28 V 4612.49 h -1660.56 v 1634.67 z m 0,1745.75 V 6358.34 h -1660.56 v 1634.57 z m 0,1745.83 V 8104.06 h -1660.56 v 1634.68 z m 0,1745.82 V 9849.93 h -1660.56 v 1634.63 z m 0,1745.83 v -1634.56 h -1660.56 v 1634.56 z M 21048.52,11595.83 v 1634.56 h 1658.26 v -1634.56 z m 0,-1745.9 v 1634.63 h 1658.26 V 9849.93 Z m 0,-1745.87 v 1634.68 h 1658.26 V 8104.06 Z m 0,-1745.72 v 1634.57 h 1658.26 V 6358.34 Z m 0,-1745.85 v 1634.67 h 1658.26 V 4612.49 Z m 0,-1748.19 v 1634.58 h 1658.26 V 2864.3 Z m -1774.23,8731.53 v 1634.56 h 1660.65 v -1634.56 z m 0,-1745.9 v 1634.63 h 1660.65 V 9849.93 Z m 0,-1745.87 v 1634.68 h 1660.65 V 8104.06 Z m 0,-1745.72 v 1634.57 h 1660.65 V 6358.34 Z m 0,-1745.85 v 1634.67 h 1660.65 V 4612.49 Z m 0,-1748.19 v 1634.58 h 1660.65 V 2864.3 Z M 19160.7,4498.88 V 2864.3 h -1660.67 v 1634.58 z m 0,1748.28 V 4612.49 h -1660.67 v 1634.67 z m 0,1745.75 V 6358.34 h -1660.67 v 1634.57 z m 0,1745.83 V 8104.06 h -1660.67 v 1634.68 z m 0,1745.82 V 9849.93 h -1660.67 v 1634.63 z m 0,1745.83 v -1634.56 h -1660.67 v 1634.56 z M 8520.18,1118.46 H 6859.55 l 1660.63,1634.67 z m 1771.82,0 H 8633.7 V 2753.13 H 10292 Z m 1774.23,0 h -1660.67 v 1634.67 h 1660.67 z m 1774.23,0 h -1660.67 v 1634.67 h 1660.67 z m 1771.86,0 h -1658.34 v 1634.67 h 1658.34 z m 1774.19,0 h -1660.67 v 1634.67 h 1660.67 z m 1774.19,0 h -1660.67 v 1634.67 h 1660.67 z m 1774.24,0 h -1660.65 v 1634.67 h 1660.65 z m 1771.84,0 h -1658.26 v 1634.67 h 1658.26 z m 1774.17,0 h -1660.64 v 1634.67 h 1660.64 z m 1774.25,0 h -1660.7 v 1634.67 h 1660.7 z m 1771.87,0 h -1658.26 v 1634.67 h 1658.26 z m 1774.15,0 H 28140.6 v 1634.67 h 1660.62 z m 1774.19,0 h -1660.56 v 1634.67 h 1660.56 z M 6859.55,-1017.72 h -113.6 v 984.11 1040.89 111.18 1634.67 111.17 1634.58 113.61 1634.67 111.18 1634.57 111.15 1634.68 111.19 1634.63 111.27 1634.56 113.6 728.59 730.96 h 113.6 v -1459.55 h 1660.63 v 1459.55 H 8633.7 V 13343.99 H 10292 v 1459.55 h 113.56 v -1459.55 h 1660.67 v 1459.55 h 113.56 v -1459.55 h 1660.67 v 1459.55 h 113.52 v -1459.55 h 1658.34 v 1459.55 h 113.52 v -1459.55 h 1660.67 v 1459.55 h 113.52 v -1459.55 h 1660.67 v 1459.55 h 113.59 v -1459.55 h 1660.65 v 1459.55 h 113.58 v -1459.55 h 1658.26 v 1459.55 h 113.53 v -1459.55 h 1660.64 v 1459.55 h 113.55 v -1459.55 h 1660.7 v 1459.55 h 113.61 v -1459.55 h 1658.26 v 1459.55 h 113.53 v -1459.55 h 1660.62 v 1459.55 h 113.63 v -1459.55 h 1660.56 v 1459.55 h 113.67 v -1459.55 h 1062.13 v -113.6 h -1062.13 v -1634.56 h 1062.13 v -111.27 H 31689.08 V 9849.93 h 1062.13 V 9738.74 H 31689.08 V 8104.06 h 1062.13 V 7992.91 H 31689.08 V 6358.34 h 1062.13 V 6247.16 H 31689.08 V 4612.49 h 1062.13 V 4498.88 H 31689.08 V 2864.3 h 1062.13 V 2753.13 H 31689.08 V 1118.46 h 1062.13 V 1007.28 H 31689.08 V -490.17 h -113.67 V 1007.28 H 29914.85 V -490.17 h -113.63 V 1007.28 H 28140.6 V -490.17 h -113.53 V 1007.28 H 26368.81 V -490.17 H 26255.2 V 1007.28 H 24594.5 V -490.17 h -113.55 V 1007.28 H 22820.31 V -490.17 h -113.53 V 1007.28 H 21048.52 V -490.17 h -113.58 V 1007.28 H 19274.29 V -490.17 H 19160.7 V 1007.28 H 17500.03 V -490.17 h -113.52 V 1007.28 H 15725.84 V -490.17 h -113.52 V 1007.28 H 13953.98 V -490.17 h -113.52 V 1007.28 H 12179.79 V -490.17 h -113.56 V 1007.28 H 10405.56 V -490.17 H 10292 V 1007.28 H 8633.7 V -490.17 H 8520.18 V 1007.28 H 6859.55 Z"
   id="path3" />
  <path
   class="fil3"
   d="M 6289.39,13876.29 V -2541.14 c 0,-1362.61 1116.57,-2479.14 2479.18,-2479.14 v 16597.2 c -1294.02,33.05 -2351.41,1028.95 -2479.18,2299.38 z"
   id="path4" />
  <path
   class="fil4"
   d="m 30040.22,1260.38 c 35.46,16.55 49.64,56.82 33.06,89.9 -14.17,35.52 -54.4,49.68 -89.93,35.53 l -11.81,-7.1 -23.63,-9.52 -21.28,-9.43 -21.23,-9.48 -21.35,-9.45 -23.67,-9.46 c -33.04,-16.55 -49.61,-54.43 -35.39,-89.85 14.11,-35.49 54.29,-52.1 89.85,-37.85 l 21.28,11.81 23.57,9.46 21.32,9.41 23.69,9.49 23.71,11.82 z m 484.94,267.34 c 33.06,21.27 42.53,63.83 21.26,94.59 -21.26,30.78 -61.52,40.25 -94.58,21.31 l -4.74,-4.78 -19.03,-11.78 -21.28,-11.81 -18.83,-14.23 -21.27,-11.84 -18.95,-11.81 -9.41,-4.7 c -33.16,-18.92 -42.66,-61.52 -23.72,-94.61 18.88,-30.81 61.49,-42.61 94.58,-23.67 l 9.47,7.09 19.01,11.85 21.31,11.81 21.16,14.18 21.35,11.83 18.95,14.17 z m 444.7,333.55 c 28.42,26 30.76,68.59 7.13,97.03 -26.06,28.35 -68.58,30.69 -96.98,7.05 l -4.73,-4.74 -16.6,-14.17 -18.92,-16.59 -16.55,-14.18 -18.91,-14.21 -18.87,-14.19 -7.18,-9.45 c -30.78,-23.67 -35.44,-66.24 -11.84,-94.6 23.75,-30.77 66.29,-33.13 96.95,-11.86 l 9.56,9.49 18.91,14.17 18.92,16.54 16.55,14.23 18.91,16.53 18.97,16.63 z m 390.37,392.69 c 25.95,28.36 21.25,70.94 -7.11,97.02 -28.35,23.63 -70.98,21.27 -94.62,-7.13 l -7.08,-9.46 -16.55,-16.55 -14.28,-16.55 -16.51,-18.97 -14.15,-16.51 -16.57,-16.59 -4.74,-4.72 c -26.04,-28.36 -23.68,-70.94 2.29,-96.97 28.48,-26.09 71.05,-23.64 97.01,2.33 l 4.78,7.11 16.51,16.58 16.58,18.92 16.57,16.55 14.21,18.91 16.55,16.57 z m 333.53,442.38 c 21.25,33.06 11.78,73.31 -18.87,94.66 -33.22,21.23 -73.42,11.74 -94.65,-18.99 l -11.89,-16.56 -11.85,-18.89 -11.81,-18.91 -14.11,-18.95 -11.82,-18.91 -14.23,-18.95 c -21.33,-30.72 -14.22,-73.33 16.54,-94.6 30.75,-23.67 73.35,-14.22 94.66,16.54 l 14.15,18.9 14.19,18.99 11.85,18.9 14.25,21.27 11.78,18.95 z m 269.68,484.86 c 14.2,35.56 -0.02,75.81 -33.14,92.39 -35.48,14.15 -75.67,0 -92.29,-33.19 l -2.33,-4.77 -9.44,-21.27 -9.49,-21.23 -9.42,-21.36 -11.85,-18.91 -9.43,-21.27 -4.72,-11.81 c -18.95,-33.1 -4.77,-75.74 28.32,-92.28 33.2,-16.52 75.67,-4.69 92.32,30.79 l 7.04,11.75 9.44,21.37 11.87,21.31 9.48,21.23 9.45,21.35 11.85,21.2 z m 196.35,518.18 c 11.81,35.46 -9.5,73.36 -44.92,85.07 -35.55,11.93 -73.38,-9.42 -85.16,-44.87 l -2.36,-11.82 -7.08,-23.62 -7.16,-21.37 -7.17,-21.31 -7.02,-21.23 -7.13,-23.64 -2.32,-4.76 c -11.83,-35.52 4.68,-73.34 40.24,-85.22 37.79,-14.2 75.6,4.72 87.53,40.28 l 2.33,7.08 7.1,21.25 7.13,23.63 9.48,21.38 7.03,23.59 7.08,23.67 z m 125.41,541.64 c 4.69,35.56 -21.35,71.05 -56.77,78.07 -37.94,4.71 -73.38,-21.17 -78.14,-56.7 l -2.29,-18.95 -4.72,-21.34 -4.76,-23.61 -2.4,-23.65 -4.77,-21.36 -4.68,-23.63 c -7.1,-37.82 16.6,-73.33 54.38,-80.32 35.53,-7.21 70.98,16.44 80.47,54.33 h 0.01 l 4.68,23.73 2.34,23.63 4.73,23.62 4.72,23.65 2.4,23.61 z m 44.91,551.23 c 2.36,37.87 -28.37,68.67 -66.26,68.67 -37.84,2.36 -68.55,-28.4 -68.55,-66.29 l 0.01,-16.54 -2.44,-23.66 v -23.65 -21.27 l -2.38,-23.68 v -23.63 c -2.34,-37.9 26.09,-71.05 63.91,-73.34 37.93,-2.48 70.97,28.36 73.3,63.88 l 0.01,2.3 v 23.59 23.73 l 2.4,26.02 v 23.63 23.7 z m -30.76,553.55 c -4.7,37.82 -37.83,63.9 -75.68,59.17 -37.88,-4.74 -63.89,-37.82 -59.16,-75.7 v -4.75 l 2.36,-23.69 4.73,-23.63 2.3,-23.66 2.44,-23.63 2.36,-23.64 v -9.44 c 2.36,-37.9 35.51,-66.25 73.33,-61.52 37.86,2.35 66.25,35.42 61.49,73.27 v 9.52 l -2.32,25.96 -2.4,23.67 -2.28,23.63 -2.41,26.12 -4.76,23.55 z m -108.86,544.09 c -9.43,35.52 -47.22,56.77 -82.74,47.32 -37.81,-9.44 -59.13,-47.31 -47.31,-82.73 l 0.01,-4.77 7.05,-23.73 4.74,-23.64 7.08,-23.61 4.77,-23.64 7.08,-23.63 v -7.16 c 9.39,-37.85 47.34,-59.12 82.72,-51.99 37.97,9.4 59.27,47.23 52.11,82.8 l -2.33,7.07 -7.09,25.97 -4.72,23.68 -7.06,23.67 -7.13,26.04 -4.8,23.63 z m -182.11,522.85 c -14.23,35.4 -54.37,52.05 -89.93,35.4 -33.12,-14.15 -49.64,-54.37 -35.46,-89.79 l 2.34,-2.47 9.49,-23.61 9.48,-21.27 7.11,-21.28 9.44,-23.67 9.47,-21.37 2.46,-9.43 c 14.15,-35.4 54.28,-51.98 89.8,-37.8 33.13,11.77 52.08,51.97 37.86,87.56 l -2.39,9.46 -9.42,21.23 -9.45,23.69 -9.47,23.68 -9.44,23.61 -9.57,21.29 z m -253.08,492.06 c -21.38,33.06 -61.54,42.59 -94.74,23.64 -33.04,-18.96 -42.51,-61.52 -23.6,-92.28 l 9.47,-16.55 11.85,-18.91 11.89,-21.39 11.78,-21.23 11.81,-18.92 11.79,-18.87 c 18.95,-33.23 59.15,-45 92.32,-26.02 33.05,16.44 44.98,59.09 25.96,92.25 l -11.78,18.94 -11.89,21.2 -11.78,21.31 -11.81,21.33 -11.85,21.21 z m -321.77,451.8 c -23.61,30.7 -66.19,35.46 -96.96,11.83 -28.45,-23.67 -33.23,-68.62 -9.45,-96.98 l 11.83,-11.86 14.17,-18.95 14.23,-18.91 14.15,-16.53 14.17,-18.92 14.25,-18.91 c 23.61,-30.75 66.18,-35.45 96.97,-14.24 28.42,23.67 35.46,66.32 11.86,94.68 l 0.01,2.33 -14.23,18.93 -16.57,18.91 -14.25,18.95 -14.19,18.97 -16.55,18.86 z m -380.8,404.56 c -28.5,23.61 -71.02,23.62 -97.05,-4.82 -26.02,-28.34 -23.64,-70.91 4.76,-96.98 l 14.18,-14.19 16.55,-14.15 16.51,-16.57 16.55,-16.51 16.61,-16.65 16.65,-14.14 c 25.98,-26.04 68.44,-26.04 96.94,2.36 25.97,26.07 25.97,68.58 -2.39,94.58 l -14.18,16.64 -18.97,16.51 -16.55,16.55 -16.55,16.55 -18.87,16.57 z m -435.29,345.28 c -30.82,21.37 -73.38,11.96 -94.62,-18.87 -21.33,-30.74 -11.92,-73.38 18.91,-94.65 l 4.7,-2.35 18.92,-14.21 18.93,-11.82 16.51,-14.17 18.99,-14.15 18.95,-11.89 11.76,-9.46 c 30.76,-21.31 73.38,-16.53 94.65,14.16 23.6,30.78 16.55,73.37 -14.21,97.08 l -11.78,7.09 -18.87,14.2 -19.03,14.11 -18.97,14.27 -18.83,11.77 -21.25,14.15 z m -475.54,281.58 c -35.46,16.57 -75.68,2.33 -92.3,-30.79 -16.52,-33.11 -2.32,-75.67 30.8,-92.29 l 11.89,-7.03 21.29,-9.45 21.26,-11.85 18.85,-9.46 21.33,-11.79 18.95,-9.48 4.76,-2.33 c 33.06,-19.01 73.3,-7.19 92.18,25.97 18.91,33.05 7.12,75.71 -25.93,92.25 l -4.73,4.72 -21.37,9.46 -21.32,11.81 -21.19,11.79 -21.35,9.48 -21.33,11.89 z m -513.36,210.54 c -35.46,11.81 -73.28,-7.09 -85.17,-42.58 -11.77,-35.5 7.16,-73.3 42.61,-85.12 l 21.29,-7.09 21.27,-7.25 21.31,-9.34 21.3,-7.13 21.25,-7.08 18.93,-7.11 c 35.52,-14.2 75.7,4.74 87.52,40.24 14.26,35.47 -4.66,73.27 -40.18,87.56 l -18.9,7.04 -21.32,7.09 -23.63,9.46 -21.29,7.09 -23.68,7.12 z m -536.93,139.62 c -35.52,7.09 -71.02,-16.67 -78.11,-54.45 -7.12,-37.84 16.58,-73.35 54.39,-80.44 h 4.77 l 21.25,-4.73 23.73,-4.76 23.6,-4.74 21.27,-4.72 23.71,-4.69 11.89,-2.4 c 37.78,-7.1 73.2,14.22 82.76,52.04 7.03,35.51 -16.59,73.27 -52.07,80.4 l -14.22,4.76 -23.63,4.72 -23.64,4.77 -23.67,4.64 -23.67,4.88 -23.66,4.72 z m -551.26,61.42 c -37.8,2.32 -68.61,-25.99 -70.94,-63.81 0,-37.93 28.43,-70.98 66.21,-70.98 l 4.73,-0.01 23.65,-2.4 h 23.74 l 21.27,-2.32 23.63,-2.4 h 23.68 l 11.84,-2.36 c 37.79,-2.3 70.88,26.04 73.31,63.86 4.74,37.88 -23.74,70.98 -61.52,73.31 l -14.11,-0.01 -23.73,2.36 -23.65,2.36 h -23.64 l -26.09,2.4 h -23.64 z m -553.5,-16.55 c -37.88,-2.36 -63.9,-35.44 -61.57,-73.36 4.74,-37.78 37.96,-63.78 75.74,-61.39 l 18.93,2.31 23.69,2.41 23.62,2.3 h 23.69 l 23.61,2.36 19.01,2.4 c 37.79,2.32 66.14,33.1 63.81,70.99 -2.39,37.81 -35.49,66.14 -70.98,63.78 l -21.34,-0.01 -23.6,-2.36 -25.99,-2.32 -23.74,-2.35 -26.05,-2.4 z m -546.42,-92.21 c -35.52,-9.49 -59.17,-44.93 -49.75,-82.82 9.51,-35.49 45.02,-59.2 82.84,-49.67 l 21.28,4.71 23.68,4.73 23.59,7.16 23.67,4.7 23.64,4.69 14.25,2.4 c 35.5,7.06 61.41,44.88 52.02,80.4 -7.12,37.81 -42.54,61.46 -80.5,54.37 l -14.13,-4.7 -23.63,-4.74 -26.12,-4.76 -23.59,-4.76 -25.94,-7.05 z m -527.57,-168 c -35.56,-14.21 -52.08,-54.34 -37.9,-89.87 11.83,-33.14 52.1,-52.03 87.52,-37.85 l 18.93,7.05 21.31,9.49 23.73,9.48 21.27,7.07 23.68,9.48 16.51,4.72 c 35.48,11.79 54.35,52.05 42.49,87.5 -14.14,35.51 -51.89,54.44 -87.45,40.26 l -18.94,-4.75 -23.59,-9.44 -21.36,-9.53 -23.65,-7.1 -23.61,-9.45 z m -499.18,-241.3 c -33.1,-18.97 -44.89,-59.14 -25.94,-92.31 18.87,-33.06 59.05,-44.87 92.21,-25.96 l 7.11,2.36 18.93,11.81 21.17,11.79 21.41,11.96 21.32,11.81 18.83,11.79 9.46,2.36 c 33.26,18.95 45.04,59.06 28.35,92.29 -16.54,33.08 -59.12,47.24 -92.21,28.33 l -7.16,-4.69 -23.59,-9.47 -21.22,-11.85 -21.33,-11.78 -21.35,-11.81 -21.27,-11.97 z m -461.23,-307.5 c -30.8,-23.67 -35.57,-66.25 -11.82,-96.94 21.28,-28.41 66.18,-33.23 94.54,-11.86 l 2.45,2.36 18.93,14.15 18.85,14.21 18.91,14.18 18.97,14.19 18.91,14.25 9.43,7.12 c 30.76,23.6 37.84,66.19 16.56,94.59 -21.23,30.73 -63.88,37.82 -94.61,16.55 l -11.78,-9.44 -18.94,-14.2 -21.31,-14.29 -18.95,-14.15 -18.91,-14.19 -18.93,-14.21 z m -414.04,-369.01 c -26.02,-28.44 -26.02,-71.01 2.34,-96.97 25.97,-26.08 71.01,-26.07 97.02,0 l 4.7,7.02 16.61,16.56 16.59,14.23 14.17,16.51 16.58,16.61 16.51,16.59 9.43,7.09 c 26.07,25.95 28.49,68.62 2.38,96.94 -26.01,26.03 -70.91,28.4 -96.97,2.37 l -9.49,-9.46 -16.51,-16.55 -16.55,-16.61 -16.53,-16.51 -16.59,-16.59 -16.61,-16.55 z m -357.19,-425.87 c -21.29,-28.34 -14.2,-73.34 16.53,-94.61 28.52,-21.26 70.97,-16.51 94.65,14.21 l 9.53,11.82 11.79,18.91 14.2,18.87 14.15,19.01 14.15,16.55 14.21,18.91 2.38,2.37 c 23.66,30.67 18.89,73.31 -11.84,96.97 -28.38,23.73 -70.97,18.98 -94.65,-11.81 l -2.27,-4.74 -16.63,-16.55 -14.15,-18.93 -14.17,-18.99 -14.29,-18.87 -14.1,-21.31 z m -293.31,-468.45 c -18.95,-33.06 -4.77,-75.57 28.32,-92.25 33.06,-18.88 73.41,-4.73 92.32,28.47 l 0.01,-0.02 9.43,18.91 11.76,21.24 11.91,18.99 9.48,21.33 11.81,18.85 9.47,16.57 c 18.91,33.16 9.44,73.36 -23.65,92.37 -33.19,18.89 -75.71,9.46 -94.58,-23.74 l -9.59,-16.58 -11.82,-21.31 -11.81,-21.24 -9.47,-18.95 -11.76,-21.23 z m -227.15,-506.18 c -11.85,-35.46 4.75,-75.69 40.24,-87.51 35.46,-14.18 75.74,4.72 87.49,40.22 l 4.76,9.41 7.07,21.37 7.16,21.2 9.39,21.31 7.16,21.35 9.49,21.19 4.64,9.53 c 14.19,33.1 -2.36,73.29 -37.85,87.57 -35.45,14.15 -75.67,-2.4 -89.82,-35.49 l -2.38,-11.86 -9.47,-21.31 -9.45,-21.23 -7.16,-23.64 -9.48,-21.39 -7.03,-21.25 z m -153.77,-532.22 c -7.11,-37.83 16.63,-73.34 52.09,-82.83 37.86,-7.07 73.34,16.57 82.76,54.43 l 2.37,14.21 4.7,21.27 4.76,23.63 4.73,21.28 7.12,23.71 4.68,21.27 v 4.72 c 9.51,35.52 -11.82,73.39 -47.23,82.81 -37.92,9.45 -73.42,-14.18 -82.84,-49.74 l -2.34,-4.73 -4.77,-23.61 -7.06,-21.28 -4.76,-23.69 -4.69,-23.65 -4.76,-23.66 z m -75.65,-548.82 c -4.72,-37.83 23.67,-70.98 61.52,-73.34 37.82,-2.41 70.87,25.96 73.27,61.45 l 2.41,16.61 v 23.63 l 2.33,23.64 2.4,23.63 2.3,23.71 2.46,21.24 v 2.36 c 4.68,37.96 -23.75,71.06 -59.13,75.75 -37.95,2.35 -73.35,-23.6 -75.78,-61.52 h 0.01 l -2.3,-26.04 -2.42,-23.61 -2.34,-23.64 -2.36,-23.69 -2.37,-23.63 z m 1525.81,-3404.18 c 30.72,-21.27 73.36,-16.53 96.93,11.87 21.32,30.72 16.62,73.31 -14.15,96.98 l 0.01,-0.01 -18.91,14.17 -16.65,14.19 -18.87,14.23 -16.59,14.17 -18.89,14.19 -14.15,11.88 c -28.48,23.6 -71.07,21.25 -94.67,-9.52 -26.02,-28.36 -21.3,-70.94 7.09,-94.65 l 14.24,-11.79 18.87,-16.53 18.93,-14.23 18.85,-14.17 19.01,-14.19 z m 461.25,-307.52 c 33.1,-18.93 75.66,-7.11 92.28,26.06 18.92,33.12 9.42,73.3 -23.64,92.25 l -9.45,4.72 -18.91,11.81 -21.33,11.83 -18.95,11.8 -18.87,11.87 -21.28,11.85 -7.08,4.72 c -30.8,21.23 -73.36,9.47 -94.66,-21.33 -18.98,-30.74 -9.49,-73.31 23.67,-94.58 l 7.09,-4.74 21.32,-11.81 21.19,-11.86 19.03,-11.81 21.23,-14.19 18.87,-11.82 z m 499.19,-238.9 c 35.48,-14.2 75.76,2.35 89.91,37.84 14.19,35.51 -4.8,73.34 -37.89,87.52 l -18.94,7.08 -21.31,9.49 -18.84,9.42 -21.37,7.13 -21.35,9.46 -21.15,9.45 c -35.54,16.55 -75.73,0 -92.27,-35.45 -14.18,-33.17 2.33,-73.31 35.42,-89.89 h 2.34 l 21.41,-9.46 21.17,-9.45 21.37,-9.52 23.64,-7.11 21.31,-9.44 z m 529.94,-167.97 c 35.39,-9.47 73.33,11.81 80.42,49.7 9.44,35.41 -11.82,73.31 -49.74,82.76 l -2.32,-0.01 -21.31,4.73 -21.31,7.1 -23.64,4.76 -21.27,7.09 -23.69,4.72 -16.53,4.72 c -35.54,9.47 -73.38,-11.8 -82.84,-47.29 -9.4,-35.46 11.86,-73.34 47.28,-82.8 l 16.55,-4.73 23.75,-7.06 21.23,-7.08 23.64,-4.81 23.67,-7.08 23.71,-4.72 z m 546.4,-92.26 c 35.5,-4.74 70.98,23.71 73.31,59.13 4.78,37.85 -23.6,70.98 -61.56,75.71 l -2.32,-0.02 -23.6,2.36 -23.63,2.38 -23.67,2.39 -23.68,2.34 -21.23,4.72 h -14.27 c -37.8,7.08 -70.91,-21.27 -75.67,-56.75 -4.67,-37.87 21.24,-73.35 56.73,-78.07 l 14.3,-0.02 23.59,-4.72 25.98,-2.4 23.63,-2.36 23.74,-2.37 23.59,-2.32 z m 553.56,-16.55 c 37.89,2.32 66.27,33.1 63.88,70.95 0,37.86 -33.1,68.62 -68.66,66.29 l -23.59,-0.02 -23.6,-2.38 h -23.77 -23.61 -23.66 l -16.59,-2.34 c -37.82,0 -68.59,-30.79 -68.59,-68.67 0.01,-35.47 30.77,-66.19 68.58,-66.19 h 18.96 23.64 26.03 l 23.7,2.36 h 23.61 z m 520.41,59.12 c 35.56,7.06 61.52,42.59 54.5,78.12 -7.16,37.8 -42.72,61.45 -80.51,54.4 l -4.71,-0.01 -23.68,-4.76 -23.71,-4.72 -25.91,-2.38 -23.64,-4.73 -23.79,-4.72 h -4.68 c -37.83,-4.76 -63.83,-40.21 -59.1,-78.06 7.12,-35.5 40.18,-61.52 78.1,-56.8 h 7.07 l 23.63,4.79 26.04,4.66 23.59,4.76 26.08,2.36 23.67,4.73 z m 321.8,208.18 c -35.56,-9.45 -56.83,-44.94 -47.41,-82.82 9.45,-35.43 47.41,-56.73 82.79,-47.24 l 26.02,7.05 23.77,4.76 23.6,7.06 25.99,7.09 23.75,7.12 9.45,4.72 c 37.78,9.43 56.69,47.32 47.23,85.21 -11.81,35.41 -49.63,54.37 -85.16,44.91 l -9.48,-2.34 -23.59,-7.16 -23.62,-7.09 -23.73,-7.08 -25.99,-7.11 z"
   id="path5" />
  <path
   class="fil4"
   d="m 26607.67,3647.31 c 68.62,-101.7 146.71,-196.3 231.8,-286.23 l -338.24,-697.86 c -18.88,-42.55 -2.4,-94.62 42.58,-115.92 l 1166.26,-565.42 c 44.9,-21.27 94.63,-2.35 115.91,40.23 l 338.35,697.86 c 122.87,-11.75 246.02,-11.74 366.57,-4.72 122.98,9.41 246.09,30.8 364.35,59.16 l 435.26,-641.1 c 28.39,-40.18 82.79,-49.64 120.57,-23.67 l 1074.08,728.66 c 40.19,28.36 49.63,80.43 23.66,120.58 l -435.24,641.06 c 28.32,42.61 56.71,85.27 82.78,127.82 37.83,61.41 73.31,125.34 104,189.23 30.77,66.27 59.23,132.54 82.83,198.72 18.96,49.66 35.46,96.94 47.34,146.68 l 775.87,56.69 c 47.38,2.46 82.8,45.02 78.07,92.29 l -94.54,1294.01 c -2.42,47.35 -44.99,82.78 -92.37,80.42 l -773.46,-56.78 c -49.7,111.24 -111.26,220.04 -179.84,321.75 -68.58,99.43 -146.58,196.39 -231.78,283.91 l 338.32,697.82 c 18.87,44.98 2.32,96.99 -40.26,115.87 l -1168.64,565.42 c -42.6,21.31 -94.66,2.41 -115.96,-40.14 l -338.2,-697.87 c -123.01,11.81 -246.04,14.15 -366.69,4.66 -123.04,-9.38 -243.7,-28.33 -364.42,-59.12 l -435.21,641.06 c -28.36,40.29 -80.37,52.08 -120.66,23.75 l -1073.99,-728.72 c -40.11,-25.99 -49.64,-80.34 -23.61,-120.56 l 437.63,-641.12 c -30.8,-40.24 -59.13,-82.78 -85.17,-127.76 -37.84,-59.17 -70.94,-122.98 -104.14,-189.23 -30.68,-63.89 -59.05,-130.1 -82.69,-198.72 -19.01,-47.24 -33.16,-96.98 -47.38,-144.29 l -773.52,-56.83 c -49.65,-4.77 -85.14,-44.91 -80.45,-92.25 l 94.66,-1293.96 c 2.32,-49.61 44.94,-85.15 92.21,-80.43 l 773.55,56.72 c 52.09,-113.45 111.22,-219.95 179.8,-321.65 z m 395.05,-203.52 c -94.56,92.3 -177.4,191.72 -250.71,300.52 -75.72,108.78 -137.26,227.15 -189.33,347.73 -14.11,35.55 -49.67,56.76 -85.09,54.47 v -0.01 l -749.97,-54.47 -80.43,1118.97 747.57,56.73 c 40.19,2.44 70.98,30.84 78.14,68.63 16.48,61.51 35.38,123.05 56.69,184.5 23.71,61.55 49.74,120.65 78.07,182.17 30.81,61.51 61.56,118.22 94.65,175.05 35.53,54.44 73.31,108.84 113.56,163.27 23.61,30.79 23.6,75.67 0,106.39 l -418.66,615.06 929.64,631.59 421.02,-622.09 c 21.27,-30.79 63.92,-44.9 99.38,-33.12 125.35,35.49 255.52,59.09 385.62,68.65 132.44,9.4 264.97,4.66 395.04,-11.85 37.93,-4.75 73.34,16.51 89.82,49.63 v 0 l 326.57,674.23 1012.43,-489.63 -326.39,-674.33 c -19.01,-35.46 -9.45,-77.96 18.88,-101.7 94.63,-92.23 177.41,-193.96 250.75,-300.43 75.71,-111.13 137.19,-227.01 189.26,-350.06 14.2,-35.56 49.64,-54.47 85.16,-52.03 h 0.01 l 749.83,54.39 82.83,-1121.33 -749.86,-54.38 c -40.26,-2.36 -71.02,-33.18 -78.08,-68.64 -16.53,-63.79 -35.52,-125.41 -56.8,-186.86 -23.59,-59.14 -49.6,-120.62 -78.06,-182.14 -28.36,-59.14 -61.42,-118.22 -94.66,-172.72 -35.43,-56.7 -73.3,-111.13 -113.48,-163.2 -23.63,-33.2 -21.28,-75.74 2.36,-106.43 l 418.72,-617.43 -929.68,-631.63 -423.5,622.16 c -21.27,33.1 -63.8,44.92 -99.35,33.1 -125.38,-35.46 -255.52,-56.83 -385.56,-66.25 -130.09,-9.45 -262.6,-7.02 -395.11,9.42 -40.14,4.76 -75.6,-16.44 -92.28,-51.96 l -323.99,-671.88 -1012.61,489.7 328.89,676.51 c 16.59,35.52 7.16,75.79 -21.31,101.72 z"
   id="path6" />
  <path
   class="fil4"
   d="m 28467.03,4508.31 c 186.85,49.75 298.08,243.71 248.4,430.68 -49.59,186.78 -241.26,298.03 -428.23,248.39 -186.9,-49.72 -300.36,-241.41 -250.76,-428.2 49.75,-186.95 241.3,-298.1 430.57,-250.86 z"
   id="path7" />
  <path
   class="fil4"
   d="m 29183.78,3585.79 c 26.12,16.61 33.23,52.08 16.62,78.05 -16.62,26.09 -52.11,33.09 -78,16.65 l -2.43,-2.44 -7.01,-2.3 -7.2,-4.83 -7.13,-4.72 -7.02,-4.74 -7.16,-4.68 -7.05,-4.73 -7.06,-4.74 -7.17,-2.38 -7.08,-4.7 -9.47,-4.73 -7.04,-4.72 -7.16,-2.4 -2.33,-2.34 c -26.07,-14.21 -37.87,-47.36 -23.72,-75.69 14.22,-26.05 49.71,-37.93 75.74,-23.74 l 2.34,2.45 9.46,4.7 7.09,4.73 9.48,4.72 7.16,4.76 7.09,2.36 9.46,4.75 7.05,4.68 7.06,4.76 9.53,4.72 7.08,7.07 7.11,4.72 9.44,4.76 z m 267.32,220.03 c 21.37,21.27 21.36,56.74 -0.02,78.08 -23.56,23.62 -59.05,21.27 -80.33,0 l -2.42,-2.43 -4.76,-6.99 -7.09,-4.76 -4.74,-7.16 -7,-4.75 -4.77,-6.98 -7.1,-4.82 -4.72,-7.09 -7.07,-4.74 -7.12,-7.09 -4.76,-4.72 -7.01,-4.72 -7.1,-7.11 c -23.78,-21.37 -26.15,-56.78 -7.2,-80.42 21.31,-21.27 56.83,-23.7 80.43,-4.72 l 2.45,2.36 7.05,7.08 4.72,4.72 7.16,7.07 7.03,4.72 7.12,7.12 7.07,7.07 4.72,4.76 7.16,7.19 7.03,6.96 7.08,4.72 4.72,7.21 7.11,7.08 z m 210.64,276.78 c 16.53,26.02 7.04,59.14 -18.92,75.73 -26.07,16.51 -61.53,7.05 -75.74,-18.98 l 0.01,-2.3 -4.71,-7.2 -4.72,-7.02 -4.76,-7.13 -4.69,-7.08 -4.84,-7.13 -4.72,-7.1 -2.36,-4.72 -4.69,-7.07 -4.74,-7.12 -4.76,-7.09 -4.68,-7.16 -4.73,-7.02 -4.74,-4.69 c -16.57,-26.11 -11.82,-61.55 14.14,-78.06 23.68,-18.95 59.2,-11.93 78.11,14.18 l 2.31,4.73 7.12,7.08 4.72,7.05 4.71,7.1 4.76,7.13 4.72,9.42 4.82,7.15 4.71,7.02 4.76,7.2 4.72,6.99 4.76,9.44 4.69,7.17 4.74,7.1 z m 141.88,314.55 c 9.49,30.83 -4.77,61.57 -35.46,71.09 -28.39,9.45 -61.56,-7.16 -71.05,-35.52 l 0.01,-7.1 -4.72,-9.56 -2.3,-6.99 -2.4,-7.16 -2.33,-7.03 -2.44,-9.44 -2.32,-7.21 -2.34,-7.08 -4.74,-9.46 -2.38,-7.05 -2.37,-7.08 -4.72,-9.47 -2.32,-7.08 c -11.89,-28.38 2.31,-61.52 30.64,-73.34 28.51,-11.83 61.56,2.33 73.38,30.72 v 2.35 l 2.4,7.17 4.76,9.46 2.35,6.99 2.28,9.44 4.72,7.21 2.44,9.44 2.32,7.11 4.75,9.4 2.42,9.49 2.3,7.06 2.36,9.45 2.36,7.2 z m 66.26,343.15 c 2.36,30.62 -21.29,56.7 -52.05,59.06 -30.8,2.36 -56.76,-21.27 -59.16,-52.07 h 0.01 v -9.47 l -2.29,-9.44 v -7.07 -9.44 l -2.44,-7.11 v -9.48 -7.05 l -2.3,-9.6 v -6.99 l -2.42,-9.44 v -7.16 l -2.38,-9.47 v -4.72 c -4.68,-30.72 16.58,-59.15 47.34,-63.88 30.8,-4.74 59.13,16.61 63.89,47.34 l 0.01,4.71 2.29,9.43 v 9.56 l 2.36,9.45 v 7.02 l 2.38,9.47 v 9.4 9.61 l 2.38,9.4 v 9.51 9.44 l 2.38,7.07 v 9.44 z m -14.27,345.36 c -4.72,30.66 -33.05,52.01 -63.85,47.28 -30.68,-4.73 -52,-33.08 -47.27,-63.88 v -4.77 l 2.36,-9.46 v -7.09 l 2.38,-9.52 v -9.47 l 2.42,-6.98 v -9.41 l 2.3,-9.48 v -7.17 l 2.44,-9.46 v -9.49 -7.08 l 2.29,-7.11 c 2.4,-30.79 28.35,-54.42 59.15,-51.94 30.78,2.24 54.4,30.61 52.03,61.41 l -2.36,7.12 v 9.45 9.52 l -2.38,9.47 v 9.44 l -2.38,9.47 v 9.45 l -2.36,9.46 v 9.41 l -2.29,9.46 v 7.13 l -2.48,9.4 z m -94.53,333.48 c -11.85,28.38 -45.03,42.56 -73.39,30.85 -28.35,-11.94 -42.54,-42.65 -30.69,-71.09 l 2.34,-7.03 4.72,-9.44 2.4,-7.17 2.32,-9.46 4.75,-7.05 2.38,-9.48 2.36,-7.11 2.34,-9.44 4.76,-7.11 2.33,-9.52 2.4,-7.01 2.3,-9.42 2.42,-2.46 c 9.39,-30.78 40.18,-44.91 68.61,-35.46 30.77,9.42 47.34,40.18 37.78,68.62 l -2.35,4.76 -2.36,9.4 -2.3,9.47 -4.77,7.04 -2.4,9.51 -2.32,9.44 -4.72,9.45 -2.44,7.16 -4.63,9.47 -2.4,9.44 -4.76,9.47 -2.32,7.08 z m -168,305.16 c -18.91,23.71 -54.44,30.81 -78.11,11.89 -25.91,-18.92 -30.62,-52.1 -14.15,-78.07 l 2.37,-2.46 4.76,-7.03 4.74,-7.12 4.73,-7.03 4.68,-7.16 4.76,-4.76 4.74,-7.09 4.69,-9.42 4.72,-7.09 4.76,-7.12 4.77,-7.07 4.72,-7.08 4.74,-7.1 v -2.46 c 16.53,-25.94 49.62,-33.09 78.05,-18.91 26.01,16.64 33.1,52.07 18.95,78.11 l -2.38,2.43 -4.77,6.99 -4.7,7.16 -4.72,9.44 -4.7,7.13 -4.83,7.06 -7.08,9.45 -4.76,7.1 -4.71,7.13 -4.72,7.08 -4.72,7.08 -7.07,9.47 -4.76,7.16 z m -234.18,255.54 c -23.67,18.95 -59.16,16.49 -80.43,-4.71 -18.94,-23.72 -16.62,-59.16 7.12,-80.5 l 2.31,-2.3 7.19,-7.16 7.1,-4.72 4.68,-4.75 7.09,-7.04 4.74,-4.76 7.13,-7.11 7.04,-4.68 4.76,-4.72 7.11,-7.13 4.72,-4.76 7.02,-7.06 4.77,-4.73 2.32,-2.46 c 21.37,-21.17 56.75,-21.17 78.06,0 21.41,21.37 21.41,56.83 0,78.11 v 2.42 l -7.04,7.02 -7.07,4.73 -4.72,7.16 -7.16,7.08 -7.09,4.75 -7.06,7.08 -4.76,7.05 -7.03,4.76 -7.16,7.06 -7.05,4.76 -7.16,7.17 -7.08,4.72 z m -288.56,193.98 c -26.04,16.57 -61.61,4.72 -75.82,-21.35 -14.17,-28.4 -2.3,-61.45 23.77,-75.63 l 2.3,-2.44 9.5,-4.72 7.09,-2.31 7.12,-4.72 7.07,-4.72 7.12,-2.44 7.08,-4.72 7.09,-4.75 7.02,-4.68 7.17,-2.36 7.06,-4.76 7.09,-4.73 7.2,-4.74 4.76,-2.32 c 25.92,-16.65 59.04,-9.48 75.59,18.92 16.59,26.02 9.56,59.12 -16.55,75.67 l -4.69,2.35 -7.16,4.7 -7.12,4.76 -9.39,4.72 -7.12,4.77 -7.09,4.7 -9.46,4.72 -7.01,4.72 -7.2,4.77 -7.13,2.4 -9.46,4.72 -7.05,4.72 -9.46,4.75 z m -324.13,125.41 c -28.48,7 -59.1,-9.49 -66.26,-40.33 -9.44,-28.37 9.49,-59.05 37.78,-68.5 l 9.53,-0.01 7.06,-2.37 9.49,-2.46 7.2,-2.3 9.45,-2.44 7.08,-2.28 7.07,-2.44 9.44,-2.28 7.07,-2.4 7.12,-2.35 9.43,-2.42 7.16,-4.7 7.04,-2.32 c 28.44,-9.43 61.52,7.02 70.98,35.49 9.49,30.73 -4.73,61.53 -35.46,70.95 l -7.08,2.28 -7.12,2.44 -9.49,4.77 -9.43,2.36 -7.12,2.36 -9.48,2.32 -9.43,2.4 -7.12,2.36 -9.35,2.36 -9.49,2.37 -7.16,2.38 -9.39,2.36 z m -343.04,47.19 c -30.8,0 -56.71,-23.59 -56.71,-54.32 0.02,-30.77 23.61,-56.83 54.4,-56.83 l 0.01,-0.02 9.48,-2.36 h 9.47 7.02 9.45 7.12 9.49 9.42 l 7.09,-2.36 h 9.46 7.17 l 9.48,-2.36 h 7.03 4.76 c 30.76,-2.32 59.04,18.99 61.4,49.75 2.42,30.68 -18.87,59.05 -49.6,61.49 l -4.68,-0.02 -9.46,2.34 h -9.45 -9.48 -9.53 l -9.48,2.44 h -7.07 -9.48 -9.35 -9.52 l -9.51,2.25 h -9.44 z m -217.67,-125.34 -14.14,111.19 c 30.71,2.4 59.14,-18.93 63.87,-49.66 2.38,-28.45 -18.94,-56.76 -49.74,-61.52 z m -127.63,89.92 c -30.8,-7.13 -49.75,-35.44 -42.73,-66.31 7.17,-30.71 35.59,-49.57 66.32,-42.48 v 0 l 9.49,2.32 9.35,2.37 h 7.2 l 9.42,2.32 9.49,2.4 h 7.16 l 9.45,2.38 9.42,2.36 h 7.07 l 9.52,2.36 h 9.45 l 7.02,2.36 -14.14,111.19 -9.45,-2.24 h -9.47 l -9.42,-2.48 -9.45,-2.29 h -9.56 l -9.45,-2.44 -9.5,-2.4 -9.41,-2.36 h -9.46 l -9.49,-2.36 -9.44,-2.36 z M 27729,6199.85 c -28.44,-14.29 -40.22,-47.38 -26,-75.77 11.79,-28.35 44.87,-40.22 73.34,-26.08 l 4.77,2.47 9.42,2.37 7.09,4.72 7.1,4.72 9.45,2.36 7.04,4.73 9.51,2.38 7.04,2.32 7.11,4.76 9.48,2.36 7.05,4.76 9.52,2.37 4.76,2.32 c 28.34,11.82 42.51,42.63 33.09,70.99 -11.81,30.79 -44.94,45.02 -73.3,33.06 l -7.15,-2.27 -7.11,-4.73 -9.4,-2.44 -9.43,-2.36 -7.16,-4.72 -9.45,-4.72 -9.42,-2.37 -7.21,-4.72 -9.44,-2.36 -9.39,-4.78 -7.12,-4.69 -9.43,-2.32 z m -293.29,-186.91 c -23.75,-18.91 -28.52,-54.46 -9.5,-78.06 21.32,-23.64 54.36,-28.36 80.36,-7.09 l 2.4,-0.02 4.74,7.11 7.15,4.72 7.1,4.72 7.05,4.73 7.06,4.7 7.16,7.12 4.69,4.73 7.1,4.8 7.09,4.72 7.04,4.72 7.16,4.77 7.07,4.7 2.4,2.32 c 26.07,16.59 30.78,52.01 14.27,75.75 -16.67,25.89 -52.14,33.09 -78.1,16.48 l -2.35,-2.3 -7.12,-4.74 -7.21,-7.14 -7.06,-4.75 -7.09,-4.72 -9.44,-4.72 -7.11,-7.09 -7.04,-4.76 -7.1,-4.66 -7.13,-7.13 -7.04,-4.72 -7.13,-4.7 -7.1,-7.13 z m -243.74,-248.38 c -18.91,-23.65 -14.15,-59.16 9.45,-78.11 26.01,-18.91 61.56,-14.14 80.5,9.49 l 4.66,7.08 4.73,7.09 4.76,4.74 4.7,7.16 4.76,7.01 7.07,7.16 4.76,4.73 4.72,7.1 4.77,7.08 7.18,4.73 4.74,7.06 4.61,7.12 7.16,4.73 c 18.87,23.61 18.87,59.13 -4.73,80.44 -23.73,18.9 -59.23,18.91 -78.11,-4.69 l -7.07,-7.09 -4.73,-7.13 -7.06,-7.12 -4.86,-4.7 -7.07,-7.19 -4.72,-7.02 -7.08,-7.17 -4.75,-6.98 -7.08,-7.16 -4.68,-7.13 -4.77,-7.06 -7.1,-7.09 z m -177.35,-295.67 c -14.2,-28.4 -2.43,-61.55 25.97,-73.37 28.41,-14.18 61.52,-2.37 73.34,26 l 2.33,4.72 4.73,7.13 2.4,7.12 4.72,9.49 2.3,7.02 4.76,7.16 2.37,6.99 4.72,7.16 4.76,7.13 2.36,7.04 4.67,9.47 4.86,7.12 2.38,7.05 2.38,2.38 c 14.15,25.99 4.66,59.19 -21.41,75.74 -28.32,14.13 -61.42,4.73 -75.71,-21.27 l -2.32,-2.38 -4.72,-9.45 -4.74,-7.16 -2.38,-9.49 -4.67,-6.98 -4.76,-7.21 -4.72,-9.44 -2.3,-7.11 -4.77,-7.08 -4.72,-9.45 -2.44,-7.06 -4.72,-9.49 -4.67,-7.1 z m -106.46,-331.23 c -7.12,-30.82 11.81,-59.15 42.5,-66.24 30.75,-4.73 59.2,14.25 66.29,44.91 l 0.02,-0.01 2.32,9.45 v 7.16 l 2.4,9.47 2.32,7.08 2.44,9.45 v 7.1 l 2.28,9.45 2.44,7.2 2.31,6.99 2.46,9.44 2.3,7.16 2.36,9.47 v 4.72 c 9.44,30.7 -7.14,61.46 -37.9,68.63 -28.36,9.48 -61.42,-9.43 -68.58,-37.93 l -2.32,-7.1 -2.44,-7.05 -2.29,-9.46 -2.44,-9.45 -2.28,-7.1 -2.36,-9.45 -2.4,-9.44 v -9.43 l -2.34,-7.2 -2.39,-9.45 -2.34,-9.46 -2.36,-9.45 v -7.08 z m -28.43,-345.41 c 2.32,-30.79 28.42,-54.42 59.12,-54.42 30.77,2.47 54.5,28.37 52.07,59.17 l 0.01,-0.02 v 7.1 9.45 9.52 7.07 9.44 9.47 7.16 9.41 7.12 9.47 9.44 7.07 4.76 c 2.42,30.8 -21.32,56.76 -52.08,56.76 -30.69,2.35 -56.8,-21.23 -59.13,-52.07 l 0.01,-4.69 v -9.49 -9.42 -9.47 -9.48 -9.41 -7.16 -9.47 -9.44 -9.49 -9.46 -9.45 z m 54.39,-342.99 c 7.16,-30.74 37.78,-47.34 68.58,-40.18 28.47,9.44 47.34,40.18 37.89,68.62 l -2.35,7.02 -2.3,9.44 v 7.17 l -2.46,9.44 -2.31,9.47 -2.44,7.08 -2.28,9.47 -2.44,9.44 -2.32,7.09 -2.4,9.46 v 9.45 l -2.32,7.16 v 4.72 c -7.11,28.38 -35.58,49.65 -66.31,42.56 -30.67,-4.73 -49.63,-35.52 -44.91,-63.89 l 2.41,-4.72 v -9.47 l 2.36,-9.42 2.34,-9.49 2.39,-9.44 2.34,-9.47 2.4,-9.44 2.36,-7.17 2.28,-11.75 2.44,-7.2 2.29,-9.4 2.44,-9.47 z m 130.11,-321.67 c 14.29,-28.48 47.34,-37.91 75.73,-23.73 26.09,16.56 35.53,49.63 21.31,75.74 l -2.36,4.68 -2.38,7.09 -4.77,9.46 -4.74,7.09 -4.76,7.16 -2.28,7.02 -4.81,9.45 -2.28,7.16 -4.78,7.13 -4.72,7.1 -2.4,9.45 -4.73,7.08 -2.32,7.11 c -11.83,28.31 -44.95,40.25 -73.35,28.32 -28.39,-11.72 -40.18,-44.9 -28.4,-73.34 l 2.43,-9.46 4.67,-7.02 4.72,-9.45 2.44,-7.14 4.72,-9.45 4.77,-7.12 4.66,-9.43 2.36,-7.12 4.76,-9.42 4.67,-7.15 4.72,-9.46 4.72,-7.03 z m 201.08,-283.95 c 18.95,-21.27 54.39,-23.66 78.07,-2.35 23.71,18.96 26.03,54.43 4.76,78.07 l -2.32,2.35 -7.05,7.08 -4.74,7.07 -4.9,4.76 -7.05,7.16 -4.72,7.03 -4.76,4.72 -7.07,7.13 -4.76,7.04 -4.7,7.2 -4.76,4.73 -7.05,7.06 -4.76,7.08 v 2.41 c -18.87,23.67 -54.41,28.4 -78.08,9.43 -25.92,-18.92 -30.66,-54.37 -11.78,-78.04 l 2.33,-2.41 4.76,-7.09 7.1,-7.08 4.77,-7.11 7,-7.08 4.76,-7.09 4.75,-7.1 7.08,-7.14 4.72,-6.99 7.07,-7.2 7.18,-7.03 4.74,-4.72 7.09,-7.16 z m 260.29,-227.05 c 25.96,-18.91 61.44,-11.88 78.02,14.19 16.6,23.59 11.82,59.16 -14.25,78.07 h 0.01 l -7.07,4.72 -7.16,4.72 -7.04,4.74 -7.09,4.73 -7.1,4.72 -4.69,4.72 -7.16,4.73 -7.06,4.7 -7.05,4.72 -7.1,7.12 -4.73,4.81 -7.16,4.72 -4.76,4.72 c -23.64,18.91 -59.09,14.2 -78,-9.44 -21.3,-23.72 -16.58,-59.12 7.05,-78.07 l 4.77,-4.72 7.1,-4.74 7.13,-7.19 7.04,-4.74 7.13,-4.72 7.1,-7.05 7.04,-4.74 9.51,-4.76 7.04,-4.69 7.09,-7.08 7.06,-4.74 7.21,-4.73 z m 307.44,-163.23 c 28.36,-11.85 61.52,2.37 70.97,30.7 11.9,28.35 -2.29,61.56 -30.73,73.34 l -7.08,2.36 -7.13,2.4 -7.16,2.36 -7.04,4.72 -9.39,2.37 -7.16,4.7 -7.11,2.36 -7.04,2.36 -9.45,4.76 -7.1,2.41 -7.09,4.76 -7.1,2.26 -7.08,4.72 c -28.48,14.19 -61.57,2.48 -75.79,-25.95 -14.13,-28.38 -2.29,-61.57 26.04,-75.75 l 9.46,-2.26 7.13,-4.84 7.12,-4.68 9.39,-2.4 9.44,-4.73 7.21,-2.34 7.08,-4.76 9.51,-2.32 7.02,-4.73 9.45,-2.4 9.44,-4.72 7.13,-2.34 z m 335.99,-87.55 c 30.68,-4.73 59.15,16.55 61.47,47.38 4.73,30.6 -16.64,59.05 -47.34,61.42 l -2.36,2.38 h -7.04 l -9.43,2.34 h -7.12 l -9.49,2.36 h -7.12 l -9.43,2.37 -7.16,2.4 h -9.45 l -7.06,2.32 -9.49,2.36 h -7.06 l -7.09,2.36 h -4.68 c -30.78,7.2 -59.25,-11.8 -66.34,-40.13 -7.16,-30.73 11.82,-61.52 42.62,-68.69 h 2.41 l 9.39,-2.32 9.44,-2.35 h 9.49 l 9.46,-2.4 7.13,-2.36 h 9.44 l 9.47,-2.36 9.48,-2.36 h 7.13 l 9.42,-2.36 9.49,-2.36 h 9.42 z m 345.4,-9.53 c 30.66,4.8 54.28,30.8 51.92,61.6 -2.35,30.75 -30.73,54.36 -61.38,49.67 h -7.13 -9.48 l -9.49,-2.37 h -7.12 -9.43 -7.08 -9.52 l -9.43,-2.4 h -7.08 -9.39 -9.47 -7.18 -4.62 c -30.8,0 -56.85,-25.95 -54.52,-56.79 0.01,-30.74 26.04,-56.73 56.83,-54.47 h 4.73 9.47 9.42 7.13 9.52 9.35 l 9.48,2.46 h 9.45 9.46 9.49 l 9.48,2.3 h 9.47 z m 201.02,149.11 c -28.34,-7.15 -47.29,-37.84 -40.23,-68.56 9.45,-28.38 37.82,-47.38 68.58,-40.26 l 7.21,2.36 9.45,2.36 9.38,2.36 9.45,2.34 9.5,2.46 7.09,2.26 9.48,2.46 9.47,4.71 9.44,2.32 9.43,2.44 9.49,2.26 9.48,2.46 9.43,4.72 7.12,2.31 h 2.4 c 28.36,9.4 42.53,42.62 33.05,71.02 -9.41,28.35 -42.59,44.94 -70.98,35.49 l 0.01,-0.01 -9.43,-4.8 -7.12,-2.33 -9.48,-2.44 -7.07,-2.26 -9.48,-2.46 -9.35,-2.3 -7.16,-2.42 -9.49,-2.3 -7.06,-4.73 -9.45,-2.44 -9.56,-2.26 -7.07,-2.46 h -9.48 z"
   id="path8" />
  <path
   class="fil4"
   d="m 22941,1191.77 c 71.02,-56.76 148.97,-108.78 229.4,-156.09 l -94.64,-577.22 c -4.72,-35.5 19.01,-68.61 54.46,-75.7 l 967.57,-158.52 c 35.42,-4.76 68.58,18.96 75.74,54.45 l 92.18,579.56 c 92.25,16.51 182.14,42.6 267.3,75.72 87.6,33.08 170.35,73.31 250.79,120.65 l 454.21,-371.41 c 28.32,-23.71 68.64,-18.94 92.24,9.43 l 619.78,756.97 c 23.65,28.44 18.89,71 -9.4,92.31 l -451.83,371.38 c 11.79,35.5 21.26,73.36 33.08,111.21 14.23,51.99 23.6,104.11 33.05,158.51 9.49,54.35 14.26,106.43 19.02,160.83 2.34,40.21 2.33,78.07 2.33,115.96 l 548.83,208.13 c 33.08,11.85 49.65,49.71 37.77,85.2 l -347.69,915.42 c -11.79,33.12 -49.61,49.75 -82.84,37.86 l -548.81,-208.18 c -61.55,71 -127.72,134.87 -198.7,194 -70.94,59.11 -149.04,111.23 -229.44,156.13 l 94.63,579.61 c 4.72,35.46 -18.96,68.62 -54.34,75.65 l -967.6,156.09 c -35.56,7.24 -68.62,-18.87 -75.71,-54.32 l -94.56,-577.25 c -89.94,-18.89 -179.87,-42.51 -265.03,-75.63 -87.48,-33.17 -172.68,-73.35 -250.71,-120.66 l -454.19,371.33 c -28.41,21.37 -68.63,18.92 -92.3,-9.44 l -619.75,-759.36 c -23.63,-28.4 -18.96,-68.58 9.44,-92.29 l 451.85,-369 c -11.85,-37.82 -23.72,-73.38 -33.14,-111.16 -14.21,-52.04 -26.1,-104.11 -33.16,-158.43 -9.45,-54.52 -16.54,-108.91 -18.87,-163.3 -2.38,-37.86 -2.4,-75.71 -2.4,-113.57 l -548.84,-208.18 c -33.06,-14.19 -49.61,-52.02 -37.79,-85.15 l 347.71,-915.51 c 11.92,-33.12 49.69,-52.02 82.78,-37.84 l 548.9,208.18 c 61.42,-70.96 127.69,-137.16 198.67,-196.36 z m 331.23,-61.48 c -89.93,47.31 -172.7,101.71 -248.44,163.27 -75.73,63.8 -146.69,134.83 -210.65,212.9 -18.9,21.26 -47.23,28.36 -73.2,18.87 v -0.01 l -529.87,-201.08 -300.55,794.88 529.93,201.04 c 28.38,9.51 44.94,37.9 40.25,66.27 0.01,49.7 0,97.01 2.4,146.72 2.29,47.3 9.42,96.98 16.51,149.01 9.46,49.7 18.91,96.95 33.09,146.69 11.83,47.23 26,94.61 45.01,141.92 11.79,28.38 0,59.13 -23.74,75.67 l -435.29,357.21 537.11,655.32 439.98,-357.29 c 23.67,-18.91 54.4,-21.19 78.03,-4.75 82.76,52.1 172.69,97.01 264.9,132.54 94.66,35.51 189.34,61.52 288.68,78.07 28.37,4.72 49.64,26.03 54.4,54.43 l 0.01,-0.02 89.89,558.29 837.43,-137.28 -89.9,-558.23 c -4.66,-30.79 11.78,-56.72 35.45,-70.97 89.89,-44.91 170.35,-99.38 248.42,-163.23 75.72,-61.47 146.69,-134.8 210.51,-210.5 16.58,-23.75 47.34,-30.77 73.37,-21.28 v -0.01 l 529.89,201.02 300.45,-792.44 -529.9,-201.1 c -28.4,-11.8 -44.96,-37.83 -42.59,-66.23 2.34,-49.67 2.33,-99.34 0,-146.65 -4.76,-49.71 -9.46,-99.38 -16.58,-149.05 -9.49,-49.71 -18.88,-99.34 -33.09,-146.68 -11.84,-47.33 -28.47,-94.62 -44.95,-141.93 -11.84,-28.41 0,-59.16 23.6,-75.7 l 435.31,-357.21 -537.03,-657.64 -439.99,359.55 c -23.6,18.99 -54.34,18.99 -78.08,2.37 -82.8,-52.04 -172.69,-97.01 -264.9,-132.43 -92.32,-33.09 -189.27,-59.16 -288.61,-75.67 -30.72,-4.77 -52.07,-28.43 -54.47,-59.23 l -92.21,-553.55 -837.41,134.89 92.27,560.61 c 4.74,28.36 -11.82,56.8 -35.46,68.62 z"
   id="path9" />
  <path
   class="fil4"
   d="m 24100.11,2216.14 c 125.4,77.99 165.6,238.9 87.6,364.32 -75.73,125.3 -239.01,163.23 -361.99,87.48 -125.4,-75.68 -165.63,-238.93 -89.85,-361.91 78.04,-125.39 238.86,-165.59 364.24,-89.89 z"
   id="path10" />
  <path
   class="fil4"
   d="m 24540.15,1539.55 c 18.93,11.84 25.98,37.82 14.13,54.43 -11.77,18.91 -37.78,25.97 -56.8,14.19 v -2.38 l -7.08,-2.37 -4.68,-4.72 -4.77,-2.36 -4.74,-2.36 -4.68,-4.8 -7.09,-2.33 -4.76,-2.36 -4.66,-2.36 -4.7,-4.76 -7.19,-2.38 -4.72,-2.32 -4.7,-2.41 -2.37,-2.36 c -19.01,-9.44 -26.11,-33.08 -16.58,-54.35 11.86,-18.99 35.56,-26.03 54.39,-16.58 l 2.38,2.35 4.68,2.36 7.16,2.37 4.73,4.76 7.06,2.34 4.72,4.72 4.73,2.36 7.14,2.37 4.76,4.72 7.13,2.4 4.68,4.72 4.7,2.38 z m 193.99,158.49 c 14.11,14.19 14.1,40.23 -2.38,54.41 -14.13,16.53 -40.21,16.55 -56.83,0 l 0.02,-2.36 -4.75,-4.74 -4.68,-2.37 -4.76,-4.72 -4.7,-4.72 -2.39,-4.76 -4.76,-4.73 -4.7,-2.38 -4.72,-4.72 -4.73,-4.72 -4.76,-2.36 -2.34,-4.71 -4.68,-4.76 h -2.37 c -16.55,-16.53 -18.92,-40.2 -2.41,-56.78 14.22,-16.56 37.86,-18.91 54.33,-4.76 l 2.42,2.43 4.76,4.72 4.72,4.72 4.76,2.36 4.69,4.75 4.76,4.72 4.72,4.72 4.75,4.72 4.76,4.75 4.76,4.78 4.68,4.7 4.71,4.72 4.76,4.73 z m 149.01,196.33 c 11.82,18.93 7.15,42.59 -11.79,54.44 -19.01,11.8 -45.02,4.76 -56.8,-14.22 l 0.01,-0.01 -2.4,-4.73 -2.37,-4.72 -4.72,-7.06 -2.34,-4.77 -2.42,-4.68 -4.62,-4.8 -2.45,-4.72 -2.28,-4.73 -4.76,-4.74 -2.4,-4.72 -4.76,-4.73 -2.31,-4.68 -2.4,-4.76 c -14.16,-18.95 -9.49,-42.58 9.46,-56.8 16.52,-11.82 42.54,-7.13 54.36,11.86 l 4.74,2.35 2.42,4.73 4.71,7.08 2.32,4.74 4.76,4.73 2.44,4.72 4.73,7.12 2.36,4.73 4.72,4.74 2.34,7.08 2.42,4.73 4.73,4.72 z m 101.7,227.07 c 7.1,21.36 -4.73,42.63 -25.97,49.76 -19,7.08 -42.65,-4.76 -49.71,-26.04 l 0.01,-4.72 -2.4,-7.13 -2.32,-4.7 -2.36,-4.72 -2.36,-7.13 V 2112 l -2.4,-4.72 -2.37,-7.11 -2.34,-4.72 -2.32,-7.06 -2.4,-4.73 -2.32,-4.8 -2.44,-7.04 c -7.03,-18.96 2.42,-42.58 23.62,-52.07 18.92,-7.09 42.51,2.36 52.11,23.71 h 0.01 l 2.36,4.68 2.36,7.09 2.36,4.74 2.35,7.08 2.36,7.09 v 4.72 l 2.4,7.16 2.32,4.71 2.4,7.12 2.32,4.72 2.4,7.07 2.33,7.12 z m 47.3,243.75 c 2.35,21.23 -14.18,40.22 -35.45,42.58 -23.62,2.36 -42.51,-14.18 -42.51,-37.89 l 0.02,-0.01 -2.44,-7.05 v -4.76 -7.1 -4.78 l -2.48,-7.11 v -4.68 -7.09 -4.76 l -2.29,-7.06 v -4.73 -7.12 l -2.4,-7.12 v -2.38 c -2.32,-21.24 11.88,-42.53 33.19,-44.9 21.28,-4.73 42.54,11.82 44.91,33.09 l 2.33,4.76 v 4.68 7.11 l 2.44,7.16 v 4.72 7.09 l 2.28,7.06 v 7.13 4.72 l 2.4,7.08 v 7.13 7.1 z m -9.44,248.38 c -4.72,21.27 -23.65,35.43 -47.32,33.1 -21.18,-4.76 -35.52,-23.63 -33.13,-47.34 l 0.02,-2.33 2.32,-4.74 v -7.13 l 2.4,-7.04 v -4.76 -7.11 l 2.29,-7.12 v -4.68 -7.13 l 2.48,-4.72 v -7.11 -7.08 -4.72 c 2.44,-21.31 21.29,-37.85 42.53,-35.49 23.69,-0.01 40.18,21.24 37.85,42.58 v 4.71 l -2.4,7.11 v 7.08 7.09 7.1 l -2.28,7.13 v 4.76 l -2.44,7.04 v 7.11 7.12 l -2.32,7.04 v 4.73 z m -68.5,238.9 c -7.21,18.91 -30.82,28.38 -52.13,21.25 -18.93,-9.42 -30.72,-30.69 -21.23,-52.03 l 2.3,-4.74 2.44,-7.05 2.32,-4.7 2.4,-4.76 2.32,-7.17 v -4.72 l 2.34,-7.08 2.37,-4.74 2.4,-7.09 2.36,-7.04 2.36,-4.77 2.32,-7.06 v -2.36 c 7.12,-19.01 28.39,-30.76 49.7,-23.74 21.32,4.73 33.16,28.47 26.04,49.74 v 2.32 l -2.4,7.14 -2.32,4.68 -2.4,7.21 -2.32,6.98 -2.4,7.16 -2.36,4.77 -2.35,7 -2.36,7.16 -2.36,4.73 -2.36,7.1 -2.4,7.09 z m -120.69,215.3 c -11.93,18.91 -37.83,23.65 -54.49,9.47 -18.85,-11.93 -23.63,-37.89 -9.52,-54.43 l 0.01,-2.38 4.82,-4.73 2.4,-4.72 4.75,-4.8 2.32,-4.72 2.4,-4.77 4.76,-6.94 2.28,-4.76 4.73,-4.75 2.34,-4.72 2.42,-4.76 4.74,-4.69 2.32,-7.2 h 2.37 c 9.42,-18.91 35.44,-25.95 54.46,-14.14 18.96,11.82 23.67,35.53 11.78,54.44 l 0.01,2.29 -2.3,4.72 -4.76,7.16 -2.4,4.72 -4.68,4.73 -2.45,7.1 -4.72,4.72 -2.36,4.73 -4.72,7.1 -4.71,4.72 -2.42,4.73 -4.74,7.16 -2.36,4.72 z m -168,184.51 c -16.61,14.21 -40.19,11.75 -56.74,-4.72 -14.28,-16.65 -11.85,-40.25 4.77,-56.8 l 2.3,-2.38 4.76,-2.36 4.73,-4.82 4.66,-4.7 4.76,-2.28 4.73,-4.75 4.72,-4.72 2.4,-4.68 4.7,-2.48 4.75,-4.73 4.7,-4.72 4.76,-4.72 2.32,-2.36 2.36,-2.38 c 14.23,-14.17 40.29,-14.17 56.8,0.01 14.22,16.61 14.21,40.25 0,56.8 h 0.02 l -4.71,4.72 -4.68,4.72 -4.76,4.73 -4.76,4.7 -4.75,4.76 -4.72,4.72 -4.76,4.73 -4.69,4.8 -4.76,2.26 -4.72,4.76 -4.76,4.73 -4.75,4.76 z m -205.84,139.56 c -18.85,9.45 -42.63,2.33 -52.09,-16.58 -11.81,-18.98 -2.36,-44.87 16.66,-54.36 h 2.37 l 4.72,-2.44 4.73,-4.72 4.76,-2.36 4.72,-2.37 7.07,-2.38 4.72,-4.72 4.76,-2.32 4.71,-2.4 4.72,-2.32 4.68,-4.77 7.16,-2.36 4.73,-2.38 2.3,-2.32 c 19.01,-11.85 42.61,-7.12 54.39,11.83 11.91,18.87 7.16,44.94 -11.78,56.65 h -2.33 l -7.04,4.76 -4.74,2.46 -4.73,4.71 -7.18,2.36 -4.76,2.36 -4.75,4.72 -7.08,2.36 -4.68,2.36 -4.77,4.75 -7.02,2.32 -4.76,2.4 -7.07,4.76 z m -229.45,89.85 c -21.31,4.77 -44.92,-7.08 -49.68,-28.32 -4.71,-21.29 7.16,-44.91 28.36,-49.71 l 7.13,-2.37 h 4.76 l 4.71,-2.36 7.08,-2.37 h 4.68 l 7.17,-2.4 4.74,-2.32 7.12,-2.4 h 4.73 l 4.68,-2.36 7.16,-2.4 4.67,-2.32 h 4.8 c 21.19,-7.11 44.82,2.32 51.98,23.63 7.13,21.37 -4.69,45.02 -26.07,52.07 h -4.72 l -7.04,2.36 -4.75,2.36 -7.08,2.4 -4.72,2.37 -7.07,2.36 h -7.16 l -4.68,2.32 -7.13,2.36 -7.02,2.4 h -4.77 l -7.2,2.34 z m -248.39,33.16 c -21.35,0 -40.23,-18.86 -40.23,-40.24 0.01,-21.25 16.55,-40.22 40.22,-40.22 h 0.01 7.13 4.72 7.08 4.77 7.02 l 7.21,-2.31 h 4.68 7.06 4.73 7.08 l 4.76,-2.46 h 7.03 2.44 c 21.33,-2.26 42.56,14.19 44.93,35.57 2.38,23.59 -14.15,42.51 -35.46,44.98 l -4.75,-0.02 h -7.16 -4.69 l -7.1,2.26 h -7.08 -7.07 -7.12 -4.73 -7.06 -7.08 l -7.05,2.44 h -4.84 -7.03 z m -153.75,-89.95 -9.48,80.49 c 21.31,2.3 40.17,-14.24 44.93,-35.48 2.42,-21.28 -14.18,-42.54 -35.45,-45.01 z m -92.21,63.88 c -21.27,-4.72 -35.57,-25.99 -30.81,-47.26 4.68,-21.32 26.04,-35.53 47.31,-30.8 l 0.01,-0.01 7.08,2.46 h 7.11 l 4.76,2.27 7.01,2.44 h 7.12 4.76 l 7.07,2.32 h 7.12 l 4.76,2.44 h 7.09 l 4.76,2.26 h 7.06 l -9.48,80.49 -2.34,-2.42 h -7.09 -4.76 l -7.12,-2.27 h -7.07 l -7.14,-2.46 h -7.07 l -4.68,-2.26 h -7.16 l -7.03,-2.48 h -7.12 l -7.07,-2.36 z m -234.27,-80.33 c -21.26,-9.52 -28.38,-33.19 -18.89,-52.16 9.42,-21.22 33.05,-28.37 51.96,-18.91 l 4.85,-0.01 4.72,4.72 4.76,2.44 7.09,2.29 4.7,2.44 7.08,2.26 4.73,2.46 4.7,2.3 7.16,2.46 4.69,2.34 7.08,2.37 4.7,2.36 4.73,2.36 c 21.39,7.08 30.82,30.77 23.73,49.71 -9.55,21.23 -30.8,30.76 -52.1,23.64 l -4.69,-2.41 -7.05,-2.3 -4.76,-2.42 -7.1,-2.31 -7.15,-2.46 -4.66,-2.26 -7.21,-2.46 -4.68,-2.26 -7.1,-2.44 -7.13,-4.76 -4.68,-2.27 -7.12,-2.46 z m -210.51,-132.54 c -16.59,-14.14 -21.25,-37.81 -7.07,-54.42 14.16,-18.92 40.15,-21.27 56.69,-7.13 l 2.33,2.4 4.77,2.36 4.7,4.72 4.76,2.37 4.8,4.7 4.77,2.46 4.68,4.72 4.76,4.73 4.72,2.3 4.73,2.44 4.74,4.72 4.72,2.28 4.69,4.75 h 2.44 c 18.87,14.28 23.55,37.88 9.41,56.83 -11.85,16.51 -35.46,21.24 -54.47,9.53 l -2.31,-0.01 -4.78,-4.76 -4.69,-2.44 -7.12,-4.72 -4.72,-4.73 -4.74,-2.38 -4.73,-4.72 -4.72,-4.72 -7.05,-2.32 -4.74,-4.77 -4.72,-4.74 -4.76,-2.32 -4.67,-4.72 z m -175.08,-177.4 c -11.79,-16.55 -9.43,-42.62 7.08,-54.47 18.98,-14.15 42.58,-11.78 56.76,4.73 l 4.84,4.82 2.28,4.7 4.77,4.76 2.4,4.72 4.74,4.73 2.32,4.74 4.68,4.72 4.77,4.72 2.36,4.73 4.74,4.7 4.76,4.76 2.28,4.73 4.75,2.36 c 14.21,16.55 14.2,42.62 -2.31,56.8 -16.58,16.44 -42.55,14.18 -56.84,-2.43 l -4.71,-4.74 -4.74,-4.73 -2.36,-4.72 -4.69,-4.72 -4.72,-4.74 -4.76,-4.73 -4.71,-4.68 -2.4,-4.76 -4.72,-7.11 -4.72,-4.68 -2.32,-4.76 -4.81,-4.73 z m -127.75,-212.94 c -9.45,-18.91 -0.01,-42.54 21.34,-51.99 18.92,-9.47 42.54,0 51.96,18.9 l 2.4,4.69 2.36,4.76 2.38,4.73 2.33,4.72 2.4,7.16 2.32,4.73 2.4,4.7 2.32,7.02 2.4,4.73 4.76,4.76 2.35,4.68 2.32,4.73 2.46,7.2 c 11.83,18.87 4.76,44.99 -14.29,54.44 -18.91,11.74 -42.55,4.73 -54.33,-14.25 l 0.02,-2.41 -4.74,-7.08 -2.4,-4.73 -2.29,-4.74 -4.72,-7.04 -2.4,-4.77 -2.34,-7.06 -2.42,-4.72 -2.44,-4.84 -4.69,-7.01 -2.36,-4.7 -2.38,-7.19 -2.36,-4.7 z m -75.71,-236.58 c -4.76,-21.27 9.52,-42.57 30.8,-44.93 21.27,-4.74 42.58,9.52 47.27,30.79 v -0.01 l 2.36,7.07 v 4.76 l 2.38,7.08 v 4.73 l 2.36,7.1 v 4.72 l 2.36,7.13 2.33,4.72 v 4.7 l 2.44,7.13 2.42,4.72 v 7.06 l 2.34,2.46 c 4.72,21.18 -7.21,44.92 -28.41,49.61 -21.26,7.13 -42.62,-4.69 -49.64,-25.96 v -4.73 l -2.42,-7.17 -2.34,-7.02 v -4.73 l -2.36,-7.16 -2.36,-7.08 v -4.73 l -2.4,-7.1 -2.42,-7.08 v -4.77 l -2.35,-7.08 v -7.07 l -2.36,-4.76 z m -18.91,-245.98 c 0,-23.68 18.91,-40.18 40.22,-40.18 23.64,2.36 40.21,21.23 40.21,42.58 h 0.02 l -2.38,7.04 v 4.73 7.1 7.08 4.77 7.08 4.74 7.09 4.76 7.05 7.1 l 2.38,4.76 v 2.36 c 0,23.64 -16.6,42.59 -40.23,42.59 -21.31,0 -40.22,-16.58 -40.22,-37.85 v -4.74 -4.72 -7.1 -7.13 -7.08 l -2.36,-7.09 v -4.74 -7.08 l 2.36,-7.13 v -7.08 -7.11 -4.68 z m 37.92,-246.04 c 4.71,-21.28 28.37,-33.08 49.64,-28.35 21.21,7.07 33.12,28.36 28.4,49.67 l -2.33,4.71 -2.42,4.74 v 7.09 l -2.44,7.08 -2.33,4.74 v 7.13 l -2.36,7.04 v 4.73 l -2.36,7.14 -2.38,4.68 v 7.13 l -2.36,7.08 v 2.38 c -4.68,21.29 -26,35.49 -47.27,30.76 -21.27,-4.76 -35.56,-26 -30.8,-47.34 v -2.37 l 2.36,-7.08 v -4.75 l 2.35,-7.04 2.42,-7.12 v -7.11 l 2.4,-7.08 2.36,-7.09 v -7.1 l 2.36,-4.76 2.34,-7.09 v -7.08 z m 92.22,-229.44 c 11.86,-18.91 35.45,-26.07 54.36,-16.54 21.38,9.42 28.44,35.46 16.62,54.36 l -2.46,2.37 -2.32,4.76 -2.35,7.04 -2.42,4.73 -2.34,4.74 -4.72,7.16 -2.4,4.68 -2.32,4.73 -2.4,7.1 -2.33,4.72 -2.38,4.73 -2.36,7.12 -2.4,4.72 c -9.41,18.91 -33.05,28.42 -54.29,18.93 -19.01,-7.06 -28.47,-30.77 -19.02,-52.04 l 2.37,-4.69 2.36,-7.16 2.38,-4.74 2.36,-7.05 4.69,-7.08 2.44,-4.77 2.42,-4.74 2.34,-7.04 4.72,-7.13 2.4,-4.76 2.29,-7.1 4.76,-4.73 z m 144.3,-203.48 c 14.21,-16.55 40.27,-16.54 56.71,-2.36 16.63,14.21 18.95,40.22 2.44,56.8 l 0.01,2.36 -4.73,4.72 -4.76,4.72 -4.74,2.34 -2.36,4.77 -4.77,4.72 -2.28,4.68 -4.72,4.76 -4.74,4.77 -2.4,4.72 -4.77,4.74 -4.68,4.73 -2.44,4.72 v 2.36 c -14.17,16.55 -40.15,18.92 -56.76,7.1 -16.5,-14.18 -21.28,-37.89 -7.1,-56.79 l 0.02,-0.02 4.72,-7.04 4.81,-4.73 2.32,-4.76 4.72,-4.74 4.72,-4.72 4.77,-4.69 2.34,-4.76 4.76,-7.1 4.72,-4.77 4.69,-4.68 4.74,-4.72 2.36,-4.76 z m 186.87,-163.19 c 18.97,-11.87 44.92,-7.09 56.78,9.42 11.78,18.9 7.05,44.98 -11.86,56.8 l 0.01,-0.02 -4.69,2.38 -4.72,4.72 -4.74,2.32 -4.73,4.81 -4.72,2.32 -4.76,4.76 -4.68,2.36 -4.77,4.74 -4.8,2.37 -4.76,4.72 -4.7,2.32 -4.77,4.76 -4.68,2.36 c -16.51,14.23 -40.19,11.87 -54.34,-4.71 -14.16,-18.92 -11.82,-42.58 4.73,-56.76 l 4.76,-2.36 4.67,-4.75 4.76,-4.72 4.72,-2.36 7.07,-4.8 4.72,-4.69 4.72,-2.36 4.73,-4.76 4.74,-4.74 4.72,-2.32 7.12,-4.77 4.69,-2.36 z m 220.03,-115.93 c 21.25,-9.48 42.52,2.33 52.05,21.31 7.14,21.28 -2.33,44.91 -23.67,52 l -4.75,2.36 -4.74,2.4 -4.72,2.32 -7.09,2.4 -4.76,2.36 -4.7,2.36 -7.05,2.38 -4.76,2.37 -4.7,2.36 -4.79,2.36 -7.06,2.36 -4.72,2.36 -4.85,2.36 c -21.23,9.47 -44.87,2.41 -54.33,-18.89 -9.44,-18.95 -2.4,-42.58 18.91,-52.04 v -0.01 l 7.07,-2.36 4.76,-4.72 4.68,-2.36 7.13,-2.37 4.7,-2.38 7.08,-2.38 4.85,-2.38 7.02,-2.36 4.76,-2.36 7.09,-2.4 4.76,-2.37 7.12,-2.36 z m 241.28,-63.86 c 21.21,-2.36 40.22,11.8 44.91,35.5 2.38,21.26 -11.82,40.18 -35.46,44.91 h 0.01 -7.12 -4.7 l -7.09,2.38 h -4.68 l -7.24,2.38 h -4.67 l -7.14,2.37 h -4.74 l -7.01,2.36 h -4.76 l -7.11,2.36 h -4.72 -4.72 c -21.27,4.72 -42.59,-7.09 -47.39,-28.4 -4.68,-21.27 9.56,-44.97 30.83,-49.66 l 2.41,-0.01 h 7.08 l 7.07,-2.4 4.72,-2.34 h 7.09 l 7.1,-2.38 h 7.08 l 4.77,-2.34 h 7.02 7.09 l 4.84,-2.4 h 7.08 l 7.09,-2.33 z m 248.32,-4.72 c 21.31,2.36 37.89,21.24 35.52,42.59 -2.32,21.27 -21.23,37.81 -45.01,35.45 l -4.68,-0.01 h -7.1 -4.68 -7.13 l -4.72,-2.4 h -7.02 -7.21 -4.66 -7.13 -7.08 -4.72 -7.13 -2.34 c -21.33,0 -40.25,-18.86 -40.25,-40.17 2.37,-23.67 18.91,-40.25 42.58,-40.25 l 2.43,-0.01 h 7.03 7.16 4.73 7.08 7.06 l 7.13,2.4 h 7.06 7.13 4.68 7.1 l 7.13,2.4 z m 142,106.42 c -21.27,-7.08 -33.06,-28.38 -28.34,-49.65 4.71,-21.33 28.33,-33.16 49.57,-28.44 l 4.77,-0.01 4.68,2.36 7.17,2.38 7.16,2.38 h 7.02 l 7.09,2.34 4.76,2.43 7.07,2.38 7.12,2.36 7.08,2.36 h 7.11 l 4.68,2.32 7.12,2.4 7.11,2.32 c 21.29,7.13 30.78,30.78 23.69,52.09 -7.12,21.26 -28.47,30.76 -49.71,23.67 v -0.01 l -7.08,-2.4 -4.72,-2.37 h -7.07 l -7.16,-2.36 -4.68,-2.36 -7.13,-2.4 -4.72,-2.32 h -7.07 l -4.84,-2.36 -7.04,-2.36 -7.13,-2.38 h -4.72 l -7.06,-2.37 z"
   id="path11" />
  <path
   class="fil4"
   d="m 19946.09,7082.18 c -44.94,0 -82.8,-37.78 -82.8,-82.76 0,-47.31 37.85,-82.83 82.79,-82.83 h 168 c 44.94,0 82.76,35.52 82.76,82.83 0.01,44.98 -37.82,82.76 -82.76,82.76 z m -499.18,0 c -47.24,0 -85.17,-37.78 -85.17,-82.76 0.01,-47.31 37.93,-82.83 85.16,-82.83 h 165.68 c 47.27,0 85.11,35.52 85.11,82.83 0.01,44.98 -37.85,82.76 -85.12,82.76 z m -501.48,0 c -44.94,0 -82.8,-37.78 -82.8,-82.76 0.01,-47.31 37.86,-82.83 82.8,-82.83 h 168 c 44.9,0 82.75,35.52 82.75,82.83 0.01,44.98 -37.85,82.76 -82.76,82.76 z m -501.5,0 c -44.92,0 -82.77,-37.78 -82.77,-82.76 0,-47.31 37.85,-82.83 82.76,-82.83 h 168 c 44.9,0 82.76,35.52 82.76,82.83 0,44.98 -37.86,82.76 -82.77,82.76 z m -499.15,0 c -47.31,0 -85.2,-37.78 -85.2,-82.76 0,-47.31 37.89,-82.83 85.2,-82.83 h 165.6 c 47.3,0 85.15,35.52 85.15,82.83 0.01,44.98 -37.85,82.76 -85.16,82.76 z m -501.51,0 c -44.95,0 -82.8,-37.78 -82.8,-82.76 0,-47.31 37.85,-82.83 82.8,-82.83 h 167.96 c 44.98,0 82.79,35.52 82.79,82.83 0,44.98 -37.82,82.76 -82.8,82.76 z m -501.47,0 c -44.98,0 -82.84,-37.78 -82.84,-82.76 0.01,-47.31 37.86,-82.83 82.83,-82.83 h 167.93 c 44.98,0 82.79,35.52 82.79,82.83 0,44.98 -37.82,82.76 -82.79,82.76 z m -499.18,0 c -47.31,0 -85.17,-37.78 -85.17,-82.76 0.01,-47.31 37.86,-82.83 85.16,-82.83 h 165.6 c 47.31,0 82.76,35.52 82.76,82.83 0,44.98 -35.46,82.76 -82.76,82.76 z m -501.47,0 c -47.31,0 -82.84,-37.78 -82.84,-82.76 0,-47.31 35.52,-82.83 82.83,-82.83 h 167.96 c 44.94,0 82.76,35.52 82.76,82.83 0,44.98 -37.82,82.76 -82.76,82.76 z m -501.55,0 c -44.94,0 -82.77,-37.78 -82.77,-82.76 0.01,-47.31 37.82,-82.83 82.77,-82.83 h 167.95 c 44.99,0 82.8,35.52 82.8,82.83 0,44.98 -37.82,82.76 -82.8,82.76 z m -499.18,0 c -47.31,0 -85.13,-37.78 -85.13,-82.76 0.01,-47.31 37.82,-82.83 85.12,-82.83 h 165.64 c 47.27,0 82.79,35.52 82.79,82.83 0.01,44.98 -35.53,82.76 -82.8,82.76 z m -501.48,0 c -47.33,0 -82.8,-37.78 -82.8,-82.76 0.01,-47.31 35.46,-82.83 82.8,-82.83 h 165.6 c 47.31,0 85.16,35.52 85.16,82.83 0,44.98 -37.86,82.76 -85.17,82.76 z m -501.51,0 c -44.94,0 -82.8,-37.78 -82.8,-82.76 0.01,-47.31 37.86,-82.83 82.8,-82.83 h 167.96 c 44.99,0 82.8,35.52 82.8,82.83 0,44.98 -37.82,82.76 -82.8,82.76 z m -499.14,0 c -47.34,0 -85.13,-37.78 -85.13,-82.76 0,-47.31 37.78,-82.83 85.13,-82.83 h 165.59 c 47.31,0 82.8,35.52 82.8,82.83 0,44.98 -35.49,82.76 -82.8,82.76 z m -501.51,0 c -47.3,0 -82.8,-37.78 -82.8,-82.76 0,-47.31 35.49,-82.83 82.8,-82.83 h 165.6 c 47.34,0 85.15,35.52 85.15,82.83 0.01,44.98 -37.82,82.76 -85.16,82.76 z"
   id="path12" />
  <path
   class="fil4"
   d="m 13305.9,3620.54 h -851.58 l -1306.97,3250.19 h 1487.67 86.68 v 86.64 4611.64 h 7656.29 v -4611.64 -86.64 h 86.72 1487.63 L 20645.4,3620.54 h -851.54 z m -908.52,-175.68 h 908.52 6487.96 908.45 59.4 l 22.33,54.44 1378.85,3425.92 46.95,118.78 h -128.73 -1529.79 v 4614.16 86.61 h -86.61 -7829.69 -86.61 V 11658.16 7044 h -1529.82 -128.7 l 47.03,-118.78 1378.79,-3425.92 22.3,-54.44 z"
   id="path13" />
  <path
   class="fil4"
   d="m 17048.62,11744.77 h -2571.89 -89.15 v -86.61 -3549.68 -89.16 h 89.15 2571.89 86.67 v 89.16 3549.68 86.61 z m -2485.25,-175.76 h 2396.14 V 8195.12 h -2396.14 z"
   id="path14" />
  <path
   class="fil4"
   d="M 19358.15,8353.51 H 18038.8 v 1319.43 h 1319.35 z M 17949.68,8177.8 h 1495.11 89.15 v 86.58 1495.21 86.6 h -89.15 -1495.11 -86.64 v -86.6 -1495.21 -86.58 z"
   id="path15" />
  <path
   class="fil4"
   d="m 18925.04,3620.54 h -1779.9 -89.08 v -89 -1817.01 -86.66 h 89.08 1779.9 89.12 v 86.66 1817.01 89 z m -1693.23,-175.68 h 1606.55 V 1803.67 h -1606.55 z"
   id="path16" />
  <polygon
   class="fil4"
   points="10120.1,11249.76 10120.1,3484.43 10295.78,3484.43 10295.78,11249.76 "
   id="polygon16" />
  <polygon
   class="fil4"
   points="11565.64,12566.57 21457.36,12566.57 21457.36,12739.99 11565.64,12739.99 "
   id="polygon17" />
  <polygon
   class="fil4"
   points="9803.2,3462.11 10612.64,3462.11 10612.64,3637.96 9803.2,3637.96 "
   id="polygon18" />
  <polygon
   class="fil4"
   points="21459.82,12249.81 21459.82,13059.19 21284.05,13059.19 21284.05,12249.81 "
   id="polygon19" />
  <polygon
   class="fil4"
   points="9803.2,11163.11 10612.64,11163.11 10612.64,11336.37 9803.2,11336.37 "
   id="polygon20" />
  <polygon
   class="fil4"
   points="11652.32,12249.81 11652.32,13059.19 11476.56,13059.19 11476.56,12249.81 "
   id="polygon21" />
  <path
   class="fil5"
   d="m 31178.12,20121.41 c -659.98,113.6 -1336.65,175.09 -2025.1,175.09 -439.97,-0.01 -872.88,-26 -1303.41,-73.31 l 0.02,-1880.7 c 0,-158.46 108.85,-288.6 241.32,-288.6 l 2848.11,-0.01 c 132.58,0 239.05,130.15 239.05,288.62 z"
   id="path21" />
  <path
   class="fil6"
   d="m 31930.32,13862.11 c 889.51,-903.78 40.2,-3264.57 -1360.23,-4296.02 -1795.48,-1319.99 -3378.13,-1871.2 -4565.72,-1031.45 1246.79,1199.44 2495.83,2396.39 3742.48,3595.83 -1613.28,63.88 -1230.1,108.76 -2450.78,-993.6 l -142.02,2997.27 c 184.72,390.23 383.32,747.43 496.84,1163.85 229.54,846.87 328.86,1809.64 508.6,2703.83 l 2561.99,101.81 c 272.03,-1750.56 18.9,-3030.43 1208.82,-4241.52 z"
   id="path22" />
  <path
   class="fil5"
   d="m 24000.77,8063.95 8636.94,6663.87 c 77.98,59.14 193.94,44.95 252.99,-33.05 l 674.27,-872.98 c 61.57,-78.07 44.9,-193.92 -33.1,-253.05 l -8636.9,-6666.3 c -78.1,-59.19 -191.61,-45.01 -253.13,33.06 l -674.18,872.91 c -59.14,80.46 -44.92,193.99 33.11,255.56 z"
   id="path23" />
  <polygon
   class="fil7"
   points="22077.5,5653.35 24305.97,7373.15 24608.79,6978.04 23130.23,5650.91 "
   id="polygon23" />
  <polygon
   class="fil8"
   points="22077.5,5653.35 24305.97,7373.15 24000.77,7768.26 22340.07,6672.93 "
   id="polygon24" />
  <path
   class="fil9"
   d="m 23047.44,6161.95 c 80.43,63.9 96.96,182.22 33.04,265.06 -63.74,82.72 -182.14,99.2 -264.94,35.41 -82.74,-63.89 -99.34,-182.14 -35.45,-264.97 63.89,-82.81 184.54,-99.45 267.33,-35.49 z"
   id="path24" />
  <path
   class="fil10"
   d="m 33766.06,13977.97 v 0 c 111.13,85.16 132.53,246.06 47.26,357.22 l -352.45,456.53 c -85.15,111.15 -246.04,132.54 -357.16,44.98 l 0.01,-0.01 c -111.23,-85.12 -132.59,-246.02 -47.39,-357.15 l 352.47,-456.67 c 85.17,-111.19 246.09,-130.06 357.25,-44.9 z"
   id="path25" />
  <polygon
   class="fil10"
   points="30901.32,12908.73 33181.74,14668.7 33292.91,14526.81 31012.42,12766.77 "
   id="polygon25" />
  <polygon
   class="fil9"
   points="29798.86,12184.87 29630.9,12052.33 30352.44,11115.53 30522.82,11245.73 "
   id="polygon26" />
  <polygon
   class="fil9"
   points="25486.4,8939.2 25330.27,8818.61 26094.31,7827.32 26250.48,7948.03 "
   id="polygon27" />
  <path
   class="fil6"
   d="m 26946.02,9438.38 496.75,1312.79 c 153.65,631.76 574.83,1100.11 932.02,1507.01 l 52.05,1099.99 c 21.3,409.28 -127.82,1346.03 -395.12,1036.18 h 0.01 c -361.95,186.87 -778.21,26 -922.53,-357.22 L 25554.94,9930.37 c -144.25,-383.23 35.55,-849.21 397.5,-1036.11 h 0.01 c 305.08,-272.1 849.17,160.83 993.56,544.13 z"
   id="path27" />
  <path
   class="fil4"
   d="m 25928.85,10230.79 c -26.13,-70.87 -144.4,-399.73 -144.4,-447.07 16.53,-861.1 622.16,-801.97 932.04,-288.64 87.61,141.95 127.71,295.8 179.81,480.3 127.71,447.07 -804.37,728.6 -967.46,255.42 z"
   id="path28" />
  <path
   class="fil11"
   d="m 27785.77,18295.22 h 3458.57 c 99.34,0 182.12,-80.39 182.12,-182.1 v -378.6 c 0,-101.67 -82.8,-182.17 -182.14,-182.17 l -3458.55,-0.01 c -101.78,0 -182.15,80.51 -182.15,182.18 l 0.01,378.6 c 0,101.71 80.35,182.1 182.13,182.1 z"
   id="path29" />
  <path
   class="fil12"
   d="m 20965.69,15435.14 h -2931.02 -2928.62 l 2065.19,1336.65 2067.53,1336.6 863.42,-1336.6 z m 3860.66,-1987.05 -8357.7,-2.4 -8357.73,-2.36 5895.09,3813.42 5895.14,3813.35 2462.59,-3811.02 z"
   id="path30" />
  <path
   class="fil13"
   d="m 11122.38,14285.48 -503.87,780.66 80.39,52.11 503.88,-780.73 z m 307.51,198.79 -503.87,780.55 78,52.04 506.3,-780.66 z m 307.52,198.65 -506.28,780.66 80.48,49.67 503.87,-780.7 z m 305.15,196.36 -503.87,780.69 80.43,52.07 503.91,-780.7 z m 633.98,-302.8 -832.7,1282.18 80.44,52.03 830.33,-1282.21 z m -18.91,700.3 -506.23,780.52 80.42,52.07 503.88,-780.66 z m 305.19,198.62 -503.91,780.59 80.43,52.07 503.91,-780.69 z m 307.52,198.68 -506.28,780.66 80.44,52.11 506.23,-780.66 z m 307.54,198.69 -506.27,780.7 80.44,52.1 503.87,-780.73 z m 305.12,198.79 -503.87,780.59 80.44,52.04 503.87,-780.63 z m 631.65,-305.23 -830.33,1284.61 80.43,49.6 830.34,-1282.14 z m -16.58,700.27 -506.23,780.66 80.46,51.96 503.87,-780.59 z m 305.16,198.65 -503.85,780.7 80.44,52.03 503.83,-780.62 z m 307.51,198.86 -506.2,780.52 80.43,52.07 506.24,-780.63 z m 305.19,198.61 -503.84,780.66 80.4,52.07 503.91,-780.73 z m 307.59,198.68 -503.91,780.67 80.43,52.11 503.88,-780.67 z m 631.54,-305.11 -830.3,1284.5 80.5,52.1 830.23,-1284.56 z m -18.87,702.59 -503.88,780.67 80.4,49.63 503.9,-778.27 z m 307.47,196.33 -503.83,780.65 80.4,52 503.9,-780.62 z m 307.55,198.67 -506.23,780.71 80.44,52.03 506.3,-780.67 z m 305.2,198.69 -503.91,780.73 80.46,52.04 503.88,-780.66 z m 307.51,198.82 -503.87,780.57 80.43,52.07 503.91,-780.64 z m 631.62,-305.21 -830.31,1284.6 80.4,52 830.34,-1284.5 z m -18.88,702.58 -503.94,780.67 80.47,51.96 503.87,-780.52 z m 307.48,198.73 -503.87,780.66 78.07,52.1 506.2,-780.69 z m 307.55,198.78 -506.26,780.56 80.42,49.71 506.24,-780.66 z m 305.16,196.29 -503.87,780.63 80.42,52 503.88,-780.63 z m 307.55,198.72 -503.91,780.63 78.07,52.04 506.23,-780.63 z m -8587.25,-5554.49 -506.2,780.66 80.4,52.11 506.31,-780.66 z"
   id="path31" />
  <polygon
   class="fil14"
   points="8110.92,13443.33 9253.53,14183.74 16903.91,14183.74 24348.56,14186.17 24826.35,13448.09 16468.65,13445.69 "
   id="polygon31" />
  <path
   class="fil15"
   d="m 13045.62,-3896.65 1109.48,283.91 c 856.34,-480.24 955.64,-955.7 37.85,-1426.52 l -1123.7,279.17 c -2088.83,518.02 -2041.49,338.3 -23.64,863.44 z"
   id="path32" />
  <path
   class="fil13"
   d="m 12499.16,-4637.06 c -1369.73,324.09 -1343.7,286.25 -14.22,612.67 127.74,-82.8 208.17,-189.23 210.61,-305.19 2.29,-115.89 -71.05,-224.72 -196.39,-307.48 z"
   id="path33" />
  <path
   class="fil16"
   d="m 21159.65,-4582.67 -669.43,-2.32 -5902.26,-11.9 c -302.75,0 -546.46,-122.97 -544.06,-274.38 h 0.01 c 4.72,-151.39 255.47,-272.02 558.26,-272.02 l 6571.7,14.13 c 26,0 49.73,0.01 73.33,2.41 l 676.53,-0.01 c 257.85,0 468.45,106.48 463.61,236.55 l -7.05,309.9 z"
   id="path34" />
  <path
   class="fil17"
   d="m 21159.65,-4655.97 -669.43,-2.36 -5902.26,-18.95 c -302.75,-2.36 -553.55,137.2 -558.24,307.52 h 0.01 c -4.74,170.32 241.22,312.28 544.04,312.28 l 5902.23,18.91 669.5,2.36 1220.61,4.72 14.18,-622.12 z"
   id="path35" />
  <path
   class="fil18"
   d="m 21131.33,-3489.77 h -264.97 l -6306.77,-21.27 c -302.78,0 -548.85,-144.31 -544.05,-316.99 v -0.02 c 2.33,-175.04 255.41,-314.59 558.23,-314.59 l 5902.23,18.86 669.5,2.36 1218.24,4.74 -7.08,364.32 c -2.36,134.89 -182.15,248.42 -411.67,267.3 z"
   id="path36" />
  <path
   class="fil19"
   d="m 23600.94,-4703.32 -21.23,820.92 c -7.1,224.67 -196.41,409.22 -423.52,409.22 l -1066.82,-2.36 c -224.7,0 -404.58,-184.5 -399.82,-411.66 l 23.72,-820.84 c 4.66,-227.09 196.23,-411.58 421.06,-409.22 l 1066.88,2.32 c 227.07,0 406.85,184.55 399.72,411.63 z"
   id="path37" />
  <path
   class="fil20"
   d="m 22368.45,-4937.49 -40.15,1291.59 c -2.38,97.01 -85.17,175.09 -182.15,175.09 l -352.46,-0.01 c -97.05,0 -172.76,-78.06 -170.33,-175.08 l 40.16,-1291.59 c 2.44,-96.98 85.19,-175.08 182.13,-175.08 h 352.54 c 96.95,0 172.64,78.11 170.24,175.08 z"
   id="path38" />
  <polygon
   class="fil21"
   points="32159.79,-3603.32 31705.55,-3577.28 30799.62,-3522.89 31180.4,1210.72 31518.76,5409.69 31606.25,5693.54 31897.14,4969.68 "
   id="polygon38" />
  <polygon
   class="fil22"
   points="31606.25,5693.54 31901.98,4813.53 31913.77,6365.43 "
   id="polygon39" />
  <polygon
   class="fil21"
   points="33009.1,-3887.2 33387.48,-4135.57 34144.54,-4637.06 36678.03,-620.27 38925.58,2944.72 39024.7,3223.84 38357.61,2819.39 "
   id="polygon40" />
  <polygon
   class="fil22"
   points="39024.7,3223.84 38258.47,2696.34 39180.99,3945.34 "
   id="polygon41" />
  <path
   class="fil23"
   d="m 31771.87,-5039.27 685.97,-227.07 c 167.96,-56.78 257.85,-238.9 203.45,-404.54 l -674.22,-2022.59 c -54.29,-165.58 -236.55,-255.43 -402.11,-201.03 l -688.4,229.44 c -165.62,54.36 -257.85,236.54 -201.02,402.14 l 671.81,2022.61 c 56.75,165.56 236.56,257.88 404.52,201.05 z"
   id="path41" />
  <path
   class="fil24"
   d="m 32020.27,-5436.68 c 981.67,-326.45 2043.88,205.82 2370.27,1187.57 328.86,981.71 -203.49,2041.49 -1185.2,2370.35 -981.67,326.41 -2043.89,-205.85 -2370.35,-1187.52 -326.42,-981.76 203.48,-2043.93 1185.27,-2370.38 z"
   id="path42" />
  <path
   class="fil25"
   d="m 32249.68,-4748.26 c 603.21,-201.12 1253.76,125.38 1454.88,726.23 201.06,603.22 -125.48,1253.81 -728.66,1454.86 -603.15,201.07 -1253.78,-125.41 -1454.83,-726.26 -201.03,-603.22 125.35,-1253.78 728.6,-1454.83 z"
   id="path43" />
  <path
   class="fil4"
   d="m 6036.31,9627.65 c -101.75,-19.02 -168,-120.72 -149.06,-227.15 18.88,-106.44 115.89,-177.38 215.23,-156.18 h 4.77 l 11.82,2.43 9.45,2.29 11.82,2.44 h 11.89 l 9.42,2.29 11.82,2.34 11.81,2.43 h 11.86 l 9.49,2.4 11.78,2.4 h 11.82 l 11.85,2.36 h 11.85 l 11.82,2.36 h 9.46 l 11.81,2.33 h 11.86 l 11.78,2.4 h 11.85 11.82 11.86 l 11.78,2.33 h 9.49 11.85 11.82 11.78 11.82 l 11.89,2.43 h 11.78 c 101.74,0 184.54,87.46 184.54,193.89 0,108.79 -82.8,196.36 -184.54,196.36 l -14.15,-0.01 h -14.21 -14.22 l -14.18,-2.4 h -14.18 -14.22 -14.18 l -11.85,-2.29 h -14.15 -14.18 l -14.22,-2.36 h -14.18 l -14.19,-2.4 h -14.21 l -11.85,-2.36 h -14.18 l -14.15,-2.4 -14.25,-2.3 h -14.18 l -11.82,-2.36 -14.22,-2.4 -14.18,-2.4 -14.18,-2.33 -11.82,-2.32 h -14.22 l -14.14,-2.44 -14.22,-2.32 -11.82,-4.74 -14.22,-2.32 z m -1239.6,-882.38 c -61.56,-85.19 -44.98,-208.27 37.82,-274.41 80.43,-63.93 196.36,-47.38 257.88,37.78 l 4.73,4.75 7.09,9.45 4.73,9.39 7.09,9.5 7.09,9.55 7.09,7.06 7.13,9.45 7.05,9.46 7.13,9.49 7.09,7.06 7.09,9.49 7.09,9.44 7.13,9.43 7.09,7.12 7.05,9.45 7.13,7.16 7.09,9.43 7.06,9.48 9.52,7.11 7.09,9.44 7.09,7.09 7.06,9.42 7.12,7.09 9.42,9.5 7.16,7.05 7.1,7.08 9.49,9.6 7.05,7.09 7.09,9.38 9.46,7.13 7.12,7.1 2.37,2.36 c 75.67,73.31 80.39,196.29 11.85,276.8 -68.69,80.43 -184.54,85.16 -260.25,11.78 l -4.72,-2.33 -9.46,-9.46 -9.45,-9.49 -9.49,-9.45 -9.46,-9.49 -9.45,-9.35 -9.46,-9.48 -9.52,-11.97 -9.45,-9.35 -9.46,-9.49 -9.42,-9.49 -9.45,-9.45 -9.49,-11.82 -7.09,-9.45 -9.46,-9.46 -9.49,-9.45 -9.45,-11.92 -7.13,-9.43 -9.45,-9.46 -9.42,-11.81 -7.09,-9.46 -9.46,-11.81 -7.16,-9.49 -9.45,-11.82 -7.06,-9.49 -9.45,-11.83 -7.13,-9.48 -9.49,-11.79 -7.05,-11.81 -9.49,-9.46 -7.06,-11.81 z M 4356.69,7157.81 c 0,-108.69 82.83,-196.24 186.83,-196.24 101.75,-0.02 184.58,87.56 184.58,196.25 v 203.51 11.82 11.77 14.19 11.96 11.81 11.83 l 2.36,11.79 v 11.8 14.19 11.79 l 2.37,11.94 v 11.83 l 2.32,11.79 v 9.44 c 9.49,108.81 -66.18,203.46 -167.92,212.91 -101.74,9.42 -191.66,-68.54 -201.08,-177.41 l -2.37,-11.86 v -14.17 l -2.36,-16.55 v -14.15 -14.23 l -2.4,-14.21 v -14.18 -16.57 -14.15 l -2.33,-14.25 v -14.15 -16.65 -14.15 -14.18 z m 0,-1563.59 c 0,-108.78 82.83,-196.34 186.83,-196.34 101.75,-0.01 184.58,87.56 184.58,196.36 v 390.37 c 0,106.4 -82.83,193.93 -184.58,193.93 -103.99,0 -186.83,-87.52 -186.83,-193.92 z m 0,-1563.65 c 0,-108.86 82.83,-196.38 186.83,-196.38 101.75,-0.01 184.58,87.53 184.58,196.39 v 390.32 c 0,108.78 -82.83,196.32 -184.58,196.32 -103.99,-0.01 -186.83,-87.53 -186.83,-196.32 z m 0,-1563.72 c 0,-108.79 82.83,-196.34 186.83,-196.34 101.75,-0.02 184.58,87.55 184.58,196.35 v 390.31 c 0,108.9 -82.83,196.43 -184.58,196.43 -103.99,-0.01 -186.83,-87.52 -186.83,-196.42 z m 0,-1563.65 c 0,-108.83 82.83,-196.38 186.83,-196.38 101.75,-0.02 184.58,87.56 184.58,196.39 v 390.33 c 0,108.81 -82.83,196.34 -184.58,196.34 -103.99,0 -186.83,-87.53 -186.83,-196.32 z m 0,-1563.73 c 0,-108.74 82.83,-196.3 186.83,-196.3 101.75,-0.01 184.58,87.56 184.58,196.32 v 390.35 c 0,108.82 -82.83,196.35 -184.58,196.35 -103.99,0 -186.83,-87.52 -186.83,-196.36 z m 0,-1563.65 c 0,-108.76 82.83,-196.27 186.83,-196.27 101.75,0 184.58,87.52 184.58,196.28 v 390.34 c 0,108.8 -82.83,196.37 -184.58,196.37 -103.99,-0.02 -186.83,-87.56 -186.83,-196.36 z m 0,-1563.61 c 0,-108.86 82.83,-196.35 186.83,-196.35 101.75,0 184.58,87.49 184.58,196.36 v 390.24 c 0,108.86 -82.83,196.39 -184.58,196.39 -103.99,-0.01 -186.83,-87.52 -186.83,-196.39 z m 402.1,-1594.44 c 59.2,-89.89 175.12,-111.2 260.28,-47.35 82.79,61.52 104.07,182.18 44.94,272.07 l -7.09,7.07 -4.72,9.51 -7.17,9.44 -7.05,9.49 -4.76,9.43 -7.06,9.44 -4.73,9.51 -7.09,11.8 -4.73,9.47 -7.12,9.44 -4.76,9.45 -7.09,9.47 -4.73,9.52 -4.73,9.45 -7.09,11.78 -4.69,9.49 -4.76,9.42 -7.1,9.49 -4.72,11.87 -4.73,9.4 -4.73,9.49 -7.09,11.82 -4.76,9.49 -4.73,9.47 -4.72,11.8 -4.73,9.47 -4.76,11.8 -4.73,9.49 -4.69,9.47 -4.73,11.8 -4.73,9.51 c -42.58,96.97 -153.78,139.56 -246.03,94.65 -92.28,-44.98 -132.5,-160.9 -89.92,-260.25 l 4.8,-9.46 4.69,-14.25 7.09,-11.81 4.73,-11.83 7.06,-14.18 4.76,-11.81 7.09,-11.83 4.73,-11.84 7.16,-14.19 7.05,-11.81 4.73,-11.87 7.09,-11.8 7.09,-11.83 4.73,-14.17 7.12,-11.87 7.13,-11.78 7.06,-11.89 7.12,-11.81 7.06,-11.82 4.76,-11.85 7.06,-11.79 7.12,-11.84 7.09,-11.83 7.09,-11.85 7.13,-11.82 9.45,-11.85 7.1,-9.43 7.09,-11.84 7.09,-11.83 7.12,-11.81 z m 1322.42,-924.96 c 99.38,-21.31 198.69,44.92 220.03,149.02 21.27,106.43 -42.62,210.54 -141.92,234.18 v -0.02 l -11.89,2.37 -11.85,2.36 -9.42,2.4 -11.82,2.4 -11.85,4.72 -9.46,2.34 -11.82,2.37 -9.45,2.36 -11.85,4.76 -9.46,2.32 -11.82,2.4 -9.45,4.71 -11.85,2.36 -11.82,4.72 -9.46,2.36 -9.45,4.72 -11.82,2.4 -9.52,4.77 -11.79,4.7 -9.45,2.36 -11.82,4.76 -9.52,4.73 -9.42,2.36 -11.82,4.72 -9.46,4.7 -11.85,4.77 -9.45,2.32 -9.46,4.76 -11.82,4.76 -9.49,4.71 c -94.65,42.56 -203.45,-2.37 -243.63,-101.74 -40.25,-99.32 2.37,-215.3 96.95,-257.85 h 2.4 l 11.82,-4.67 11.85,-7.16 11.82,-4.72 14.14,-4.76 11.89,-4.73 11.82,-4.7 11.82,-4.72 14.14,-7.13 11.89,-4.72 11.82,-4.76 14.18,-4.67 11.86,-2.4 11.81,-4.72 14.19,-4.76 11.85,-4.72 14.15,-4.71 11.85,-4.72 14.15,-2.4 11.88,-4.72 14.15,-4.73 11.85,-2.36 11.82,-4.74 14.22,-4.72 14.18,-2.37 11.82,-4.72 14.22,-2.36 11.81,-4.74 14.22,-2.36 11.82,-2.37 14.22,-4.72 z m 1518.74,-52.03 c 101.71,0 186.87,87.5 186.87,196.33 0,106.43 -85.16,193.95 -186.87,193.95 l -371.43,-0.01 c -101.67,0 -184.51,-87.51 -184.51,-193.94 0,-108.84 82.83,-196.33 184.51,-196.33 z m 1483.23,0 c 104.07,0 186.9,87.5 186.9,196.33 0,106.43 -82.84,193.95 -186.91,193.95 l -371.43,-0.01 c -101.71,0 -184.47,-87.51 -184.47,-193.94 0,-108.84 82.76,-196.33 184.46,-196.33 z m 1483.22,0 c 104.1,0 186.93,87.5 186.93,196.33 0.01,106.43 -82.83,193.95 -186.94,193.95 l -368.97,-0.01 c -104.1,0 -186.93,-87.51 -186.93,-193.94 0,-108.84 82.83,-196.33 186.93,-196.33 z m 1485.62,0 c 101.74,0 184.53,87.5 184.53,196.33 0.01,106.43 -82.8,193.95 -184.54,193.95 l -371.37,-0.01 c -104.1,0 -186.94,-87.51 -186.94,-193.94 0.01,-108.84 82.84,-196.33 186.94,-196.33 z m 1483.28,0 c 101.75,0 184.5,87.5 184.5,196.33 0.01,106.43 -82.76,193.95 -184.5,193.95 l -371.44,-0.01 c -101.7,0 -184.5,-87.51 -184.5,-193.94 0,-108.84 82.8,-196.33 184.5,-196.33 z m 1483.22,0 c 101.75,0 184.5,87.5 184.5,196.33 0.01,106.43 -82.76,193.95 -184.5,193.95 l -371.4,-0.01 c -101.7,0 -184.51,-87.51 -184.51,-193.94 0.01,-108.84 82.8,-196.33 184.5,-196.33 z m 1483.26,0 c 101.7,0 184.53,87.5 184.53,196.33 0.01,106.43 -82.83,193.95 -184.54,193.95 l -371.39,-0.01 c -101.75,0 -184.55,-87.51 -184.55,-193.94 0.01,-108.84 82.8,-196.33 184.54,-196.33 z m 1483.21,0 c 101.75,0 186.94,87.5 186.94,196.33 0,106.43 -85.2,193.95 -186.94,193.95 l -371.39,-0.01 c -101.71,0 -184.51,-87.51 -184.51,-193.94 0,-108.84 82.79,-196.33 184.5,-196.33 z m 1483.26,0 c 104.07,0 186.86,87.5 186.86,196.33 0.01,106.43 -82.79,193.95 -186.86,193.95 l -369.04,-0.01 c -104.1,0 -186.87,-87.51 -186.87,-193.94 0,-108.84 82.76,-196.33 186.87,-196.33 z m 1483.22,0 c 104.12,0 186.9,87.5 186.9,196.33 0,106.43 -82.8,193.95 -186.9,193.95 l -369.04,-0.01 c -104.07,0 -186.84,-87.51 -186.84,-193.94 0.01,-108.84 82.77,-196.33 186.84,-196.33 z m 1270.39,0 c 104.06,0 186.86,87.5 186.86,196.33 0.01,106.43 -82.8,193.95 -186.87,193.95 l -210.53,-0.01 c -101.8,0 -184.58,-87.51 -184.58,-193.94 0.01,-108.84 82.76,-196.33 184.57,-196.33 z"
   id="path44" />
 </g>
</svg>
