<?xml version="1.0" encoding="UTF-8" standalone="no"?>
<!-- Created with Inkscape (http://www.inkscape.org/) -->

<svg
   xmlns:dc="http://purl.org/dc/elements/1.1/"
   xmlns:cc="http://creativecommons.org/ns#"
   xmlns:rdf="http://www.w3.org/1999/02/22-rdf-syntax-ns#"
   xmlns:svg="http://www.w3.org/2000/svg"
   xmlns="http://www.w3.org/2000/svg"
   xmlns:sodipodi="http://sodipodi.sourceforge.net/DTD/sodipodi-0.dtd"
   xmlns:inkscape="http://www.inkscape.org/namespaces/inkscape"
   width="70mm"
   height="80mm"
   viewBox="0 0 70 80"
   version="1.1"
   id="svg74501"
   inkscape:version="0.92.5 (2060ec1f9f, 2020-04-08)"
   sodipodi:docname="box.svg">
  <metadata
     id="metadata21">
    <rdf:RDF>
      <cc:Work
         rdf:about="">
        <dc:format>image/svg+xml</dc:format>
        <dc:type
           rdf:resource="http://purl.org/dc/dcmitype/StillImage" />
        <dc:title></dc:title>
      </cc:Work>
    </rdf:RDF>
  </metadata>
  <sodipodi:namedview
     id="namedview74503"
     pagecolor="#ffffff"
     bordercolor="#999999"
     borderopacity="1"
     inkscape:pageshadow="0"
     inkscape:pageopacity="0"
     inkscape:pagecheckerboard="0"
     inkscape:document-units="mm"
     showgrid="false"
     inkscape:zoom="1.8973437"
     inkscape:cx="-1.0707024"
     inkscape:cy="156.20092"
     inkscape:window-width="1920"
     inkscape:window-height="1009"
     inkscape:window-x="0"
     inkscape:window-y="0"
     inkscape:window-maximized="1"
     inkscape:current-layer="layer1" />
  <defs
     id="defs74498" />
  <g
     inkscape:label="Layer 1"
     inkscape:groupmode="layer"
     id="layer1">
    <path
       style="opacity:1;vector-effect:none;fill:#c67038;fill-opacity:1;stroke:#000000;stroke-width:7.4079814;stroke-linecap:butt;stroke-linejoin:miter;stroke-miterlimit:4;stroke-dasharray:none;stroke-dashoffset:0;stroke-opacity:1"
       d="M 20.064453 182.19336 A 117.44758 45.688995 0 0 0 19.871094 184.31445 A 117.44758 45.688995 0 0 0 137.31836 230.00391 A 117.44758 45.688995 0 0 0 254.76758 184.31445 A 117.44758 45.688995 0 0 0 254.49414 182.19336 L 226.03711 182.19336 A 90.20525 17.539305 0 0 1 226.17969 182.9707 A 90.20525 17.539305 0 0 1 135.97461 200.50977 A 90.20525 17.539305 0 0 1 45.769531 182.9707 A 90.20525 17.539305 0 0 1 45.96875 182.19336 L 20.064453 182.19336 z "
       id="path857"
       transform="scale(0.26458333)" />
    <path
       style="opacity:1;vector-effect:none;fill:#c67038;fill-opacity:1;stroke:#000000;stroke-width:7.4079814;stroke-linecap:butt;stroke-linejoin:miter;stroke-miterlimit:4;stroke-dasharray:none;stroke-dashoffset:0;stroke-opacity:1"
       d="M 20.064453 182.19336 L 45.96875 182.19336 A 90.20525 17.539305 0 0 1 135.97461 165.43164 A 90.20525 17.539305 0 0 1 226.03711 182.19336 L 254.49414 182.19336 A 117.44758 45.688995 0 0 0 137.31836 138.625 A 117.44758 45.688995 0 0 0 20.064453 182.19336 z "
       id="path908"
       transform="scale(0.26458333)" />
    <ellipse
       ry="4.6406078"
       rx="23.866806"
       cy="48.410908"
       cx="35.976814"
       id="ellipse910"
       style="opacity:1;vector-effect:none;fill:#522e17;fill-opacity:1;stroke:#000000;stroke-width:1.96002841;stroke-linecap:butt;stroke-linejoin:miter;stroke-miterlimit:4;stroke-dasharray:none;stroke-dashoffset:0;stroke-opacity:1" />
    <path
       style="opacity:1;vector-effect:none;fill:#a3582b;fill-opacity:1;stroke:#000000;stroke-width:1.96002841;stroke-linecap:butt;stroke-linejoin:miter;stroke-miterlimit:4;stroke-dasharray:none;stroke-dashoffset:0;stroke-opacity:1"
       d="M 8.9319464,54.449201 A 28.301418,15.288454 0 0 0 7.8178155,58.650643 28.301418,15.288454 0 0 0 36.119061,73.939109 28.301418,15.288454 0 0 0 64.420295,58.650643 28.301418,15.288454 0 0 0 63.433708,54.66897 31.074675,12.088546 0 0 1 36.332506,60.855188 31.074675,12.088546 0 0 1 8.9319464,54.449201 Z"
       id="path912"
       inkscape:connector-curvature="0" />
    <path
       style="opacity:1;vector-effect:none;fill:#c98050;fill-opacity:1;stroke:#000000;stroke-width:1.96002841;stroke-linecap:butt;stroke-linejoin:miter;stroke-miterlimit:4;stroke-dasharray:none;stroke-dashoffset:0;stroke-opacity:1"
       d="M 35.143614,14.377703 A 29.865817,34.843452 0 0 0 5.3087198,48.205326 c 0.2560551,0.336081 0.7978227,0.929673 1.4482662,0.929673 0.9050707,0 1.4076861,-1.257483 1.4076861,-1.257483 l 0.04161,-10e-4 A 26.994807,31.493941 0 0 1 35.143593,17.726982 26.994807,31.493941 0 0 1 62.042935,46.723367 c 0.352135,0.372186 0.891333,0.807873 1.366575,0.613456 0.550886,-0.225363 1.156833,-0.722464 1.47619,-1.002927 A 29.865817,34.843452 0 0 0 35.143614,14.377703 Z"
       id="path917"
       inkscape:connector-curvature="0" />
    <ellipse
       style="opacity:1;vector-effect:none;fill:#e09b71;fill-opacity:1;stroke:#000000;stroke-width:1.96002841;stroke-linecap:butt;stroke-linejoin:miter;stroke-miterlimit:4;stroke-dasharray:none;stroke-dashoffset:0;stroke-opacity:1"
       id="path906"
       cx="41.51622"
       cy="53.639885"
       rx="4.5031199"
       ry="2.6231766"
       transform="rotate(21.710976)" />
  </g>
</svg>
