<?xml version="1.0" encoding="UTF-8" standalone="no"?>
<!-- Created with Inkscape (http://www.inkscape.org/) -->

<svg
   width="70mm"
   height="80mm"
   viewBox="0 0 70 80"
   version="1.1"
   id="svg74501"
   inkscape:version="1.1 (c4e8f9e, 2021-05-24)"
   sodipodi:docname="hedgehog_left_up.svg"
   xmlns:inkscape="http://www.inkscape.org/namespaces/inkscape"
   xmlns:sodipodi="http://sodipodi.sourceforge.net/DTD/sodipodi-0.dtd"
   xmlns="http://www.w3.org/2000/svg"
   xmlns:svg="http://www.w3.org/2000/svg">
  <sodipodi:namedview
     id="namedview74503"
     pagecolor="#ffffff"
     bordercolor="#999999"
     borderopacity="1"
     inkscape:pageshadow="0"
     inkscape:pageopacity="0"
     inkscape:pagecheckerboard="0"
     inkscape:document-units="mm"
     showgrid="false"
     inkscape:zoom="0.67081229"
     inkscape:cx="397.27954"
     inkscape:cy="321.99768"
     inkscape:window-width="1920"
     inkscape:window-height="1027"
     inkscape:window-x="0"
     inkscape:window-y="0"
     inkscape:window-maximized="1"
     inkscape:current-layer="layer1" />
  <defs
     id="defs74498" />
  <g
     inkscape:label="Layer 1"
     inkscape:groupmode="layer"
     id="layer1">
    <path
       style="font-variation-settings:normal;vector-effect:none;fill:#f2cfa9;fill-opacity:1;fill-rule:evenodd;stroke:#000000;stroke-width:0.5;stroke-linecap:butt;stroke-linejoin:miter;stroke-miterlimit:4;stroke-dasharray:none;stroke-dashoffset:0;stroke-opacity:1;-inkscape-stroke:none;stop-color:#000000"
       d="m 19.91355,35.156157 c 0,0 -15.4121768,-2.0758 -16.0396968,-2.70332 -0.627521,-0.62753 -1.192747,-0.10459 -1.611096,0.45321 -0.418348,0.55779 -0.147516,2.67537 0.933217,3.26803 1.080733,0.59265 16.9734008,4.45863 16.9734008,4.45863"
       id="path3196-6-6"
       sodipodi:nodetypes="csssc" />
    <path
       style="font-variation-settings:normal;vector-effect:none;fill:#f2cfa9;fill-opacity:1;fill-rule:evenodd;stroke:#000000;stroke-width:0.5;stroke-linecap:butt;stroke-linejoin:miter;stroke-miterlimit:4;stroke-dasharray:none;stroke-dashoffset:0;stroke-opacity:1;-inkscape-stroke:none;stop-color:#000000"
       d="m 21.338918,65.223057 c 0,0 0.954488,8.70541 -0.450952,9.01773 -1.405437,0.31232 -1.918673,-0.75958 -1.86662,-1.80065 0.05205,-1.04107 0.208216,-6.97514 0.208216,-6.97514"
       id="path3198-0-9" />
    <path
       style="font-variation-settings:normal;vector-effect:none;fill:#f2cfa9;fill-opacity:1;fill-rule:evenodd;stroke:#000000;stroke-width:0.5;stroke-linecap:butt;stroke-linejoin:miter;stroke-miterlimit:4;stroke-dasharray:none;stroke-dashoffset:0;stroke-opacity:1;-inkscape-stroke:none;stop-color:#000000"
       d="m 30.104777,64.844697 c 0,0 0.954488,8.70541 -0.450952,9.01773 -1.405437,0.31232 -1.918673,-0.75958 -1.86662,-1.80065 0.05205,-1.04107 0.208216,-6.97514 0.208216,-6.97514"
       id="path3200-4-2" />
    <path
       style="fill:none;fill-rule:evenodd;stroke:#ff0000;stroke-width:0.5;stroke-linecap:butt;stroke-linejoin:miter;stroke-miterlimit:4;stroke-dasharray:none;stroke-opacity:1"
       d="m 34.740313,65.812437 c -2.347728,0.42582 -4.141436,0.98606 -8.677291,1.38048 -4.535858,0.39442 -8.571809,-0.0674 -10.447509,-1.30748 -4.217058,-2.78797 1.768493,-16.52949 2.774619,-23.17494 1.095994,-7.23904 -5.298225,-15.35347 -6.316094,-19.38569 -1.116717,-4.4238 1.922809,-7.29681 2.613049,-7.74054 0.69024,-0.44372 4.880975,1.42979 7.691234,1.28188 2.810258,-0.14791 8.239114,-2.02142 8.239114,-2.02142 0,0 13.798054,6.81454 9.75637,19.54343 -2.43605,7.6721 -3.94773,13.2524 -4.453624,19.13721 -0.505895,5.88482 -0.006,12.07417 -1.179868,12.28707 z"
       id="path1011-5-8-2"
       sodipodi:nodetypes="ssssssscsss" />
    <path
       id="path1757-7-8-4"
       style="font-variation-settings:normal;vector-effect:none;fill:none;fill-opacity:1;fill-rule:evenodd;stroke:#ff0000;stroke-width:0.499999;stroke-linecap:butt;stroke-linejoin:miter;stroke-miterlimit:4;stroke-dasharray:none;stroke-dashoffset:0;stroke-opacity:1;-inkscape-stroke:none;stop-color:#000000"
       d="m 35.912089,6.4564268 0.147796,1.82418 3.747058,-1.72599 -0.345199,1.57768 6.015135,-0.59118 -0.936892,2.36626 8.051705,1.4784702 -2.564186,2.36626 7.630542,4.3031 -2.760555,2.76055 5.854425,3.05253 -3.35277,2.56418 6.06785,3.54966 -3.55017,0.98598 2.76107,2.36627 -2.36627,1.97249 4.28191,4.2199 -4.33875,-0.19689 4.73305,4.73304 -2.95796,0.5917 2.56366,4.73304 -3.74705,0.39429 3.2954,4.31498 -3.15536,1.38028 3.15536,5.32474 -5.32474,0.1974 -0.19689,3.74706 -4.930442,-2.16937 -0.591696,4.73304 -5.916435,-0.19741 -4.11861,-2.11253 -3.155365,1.77509 -5.167643,-0.96274 c 1.173869,-0.2129 0.674396,-6.40228 1.18029,-12.2871 0.505894,-5.88482 2.017427,-11.46523 4.453475,-19.13733 4.041685,-12.72889 -9.756511,-19.54351 -9.756511,-19.54351 0,0 0.763268,-2.21244 -0.08061,-3.69176 C 29.692828,9.6734668 29.101137,8.2439168 29.101137,8.2439168 l 3.080433,0.92759 0.521417,-2.27531 0.890384,1.61437 z" />
    <circle
       id="path1912-4-8-7"
       style="fill:#000000;stroke:#ff0000;stroke-width:0.264583"
       cx="-39.936676"
       cy="20.838381"
       r="0.017413737"
       transform="scale(-1,1)" />
    <path
       style="font-variation-settings:normal;vector-effect:none;fill:none;fill-opacity:1;fill-rule:evenodd;stroke:#ff0000;stroke-width:0.5;stroke-linecap:butt;stroke-linejoin:miter;stroke-miterlimit:4;stroke-dasharray:none;stroke-dashoffset:0;stroke-opacity:1;-inkscape-stroke:none;stop-color:#000000"
       d="m 40.261389,20.728607 c 0,0 2.102278,-6.39126 6.414672,-0.55779 3.89953,5.27497 -3.550248,6.54718 -3.433633,6.48439 0.04687,-3.20528 -0.982785,-5.13829 -2.981039,-5.9266 z"
       id="path1949-1-9-7"
       sodipodi:nodetypes="cscc" />
    <path
       style="font-variation-settings:normal;vector-effect:none;fill:none;fill-opacity:1;fill-rule:evenodd;stroke:#ff0000;stroke-width:0.5;stroke-linecap:butt;stroke-linejoin:miter;stroke-miterlimit:4;stroke-dasharray:none;stroke-dashoffset:0;stroke-opacity:1;-inkscape-stroke:none;stop-color:#000000"
       d="m 11.698311,21.825527 c 1.249901,3.34758 3.214574,4.43172 5.577975,4.25321"
       id="path2146-8-7-5"
       sodipodi:nodetypes="cc" />
    <ellipse
       style="color:#000000;font-variation-settings:normal;overflow:visible;vector-effect:none;fill:none;fill-opacity:1;fill-rule:evenodd;stroke:#ff0000;stroke-width:0.499999;stroke-linecap:butt;stroke-linejoin:miter;stroke-miterlimit:4;stroke-dasharray:none;stroke-dashoffset:0;stroke-opacity:1;-inkscape-stroke:none;stop-color:#000000"
       id="path2369-5-7-4"
       cx="-28.283602"
       cy="23.70566"
       rx="2.8935738"
       ry="2.7889869"
       transform="scale(-1,1)" />
    <ellipse
       style="color:#000000;font-variation-settings:normal;overflow:visible;vector-effect:none;fill:none;fill-opacity:1;fill-rule:evenodd;stroke:#ff0000;stroke-width:0.499999;stroke-linecap:butt;stroke-linejoin:miter;stroke-miterlimit:4;stroke-dasharray:none;stroke-dashoffset:0;stroke-opacity:1;-inkscape-stroke:none;stop-color:#000000"
       id="path2369-5-3-6-8"
       cx="-27.632143"
       cy="22.941561"
       rx="1.1097133"
       ry="1.0696032"
       transform="scale(-1,1)" />
    <path
       style="font-variation-settings:normal;vector-effect:none;fill:none;fill-opacity:1;fill-rule:evenodd;stroke:#ff0000;stroke-width:0.5;stroke-linecap:butt;stroke-linejoin:miter;stroke-miterlimit:4;stroke-dasharray:none;stroke-dashoffset:0;stroke-opacity:1;-inkscape-stroke:none;stop-color:#000000"
       d="m 33.454477,20.001017 -2.99816,-2.02201"
       id="path2404-9-4-1" />
    <path
       style="font-variation-settings:normal;vector-effect:none;fill:none;fill-opacity:1;fill-rule:evenodd;stroke:#ff0000;stroke-width:0.5;stroke-linecap:butt;stroke-linejoin:miter;stroke-miterlimit:4;stroke-dasharray:none;stroke-dashoffset:0;stroke-opacity:1;-inkscape-stroke:none;stop-color:#000000"
       d="m 34.459873,38.757797 c 0,0 -2.544337,0.82414 -3.151177,0.65884 -0.606843,-0.1653 -3.136276,-0.87827 -3.136276,-0.87827 0,0 -1.81284,-0.59266 -2.196324,0.34862 -0.383487,0.94129 0.478959,3.50053 0.478959,3.50053 0,0 1.444919,1.74436 3.57152,1.81408 2.126602,0.0697 3.799994,-0.5578 3.799994,-0.5578"
       id="path2482-7-3-2" />
    <path
       style="font-variation-settings:normal;vector-effect:none;fill:none;fill-opacity:1;fill-rule:evenodd;stroke:#ff0000;stroke-width:0.5;stroke-linecap:butt;stroke-linejoin:miter;stroke-miterlimit:4;stroke-dasharray:none;stroke-dashoffset:0;stroke-opacity:1;-inkscape-stroke:none;stop-color:#000000"
       d="m 18.122863,16.218377 c 0,0 0.488072,-1.95229 -0.627523,-2.57981 -1.115594,-0.62753 -2.335776,-0.76698 -2.963299,-0.13946 -0.627523,0.62753 -1.293093,0.978 -0.909606,1.88442 0.383485,0.90642 0.548413,0.71342 0.548413,0.71342 z"
       id="path2926-8-0-8" />
    <path
       style="fill:#f2cfa9;fill-opacity:1;fill-rule:evenodd;stroke:#000000;stroke-width:0.5;stroke-linecap:butt;stroke-linejoin:miter;stroke-miterlimit:4;stroke-dasharray:none;stroke-opacity:1"
       d="m 34.740313,65.812437 c -2.347728,0.42582 -4.141436,0.98606 -8.677291,1.38048 -4.535858,0.39442 -8.571809,-0.0674 -10.447509,-1.30748 -4.217058,-2.78797 1.768493,-16.52949 2.774619,-23.17494 1.095994,-7.23904 -5.298225,-15.35347 -6.316094,-19.38569 -1.116717,-4.4238 1.922809,-7.29681 2.613049,-7.74054 0.69024,-0.44372 4.880975,1.42979 7.691234,1.28188 2.810258,-0.14791 8.239114,-2.02142 8.239114,-2.02142 0,0 13.798054,6.81454 9.75637,19.54343 -2.43605,7.6721 -3.94773,13.2524 -4.453624,19.13721 -0.505895,5.88482 -0.006,12.07417 -1.179868,12.28707 z"
       id="path3178-3-9"
       sodipodi:nodetypes="ssssssscsss" />
    <path
       id="path3180-0-3"
       style="font-variation-settings:normal;vector-effect:none;fill:#8c634a;fill-opacity:1;fill-rule:evenodd;stroke:#000000;stroke-width:0.499999;stroke-linecap:butt;stroke-linejoin:miter;stroke-miterlimit:4;stroke-dasharray:none;stroke-dashoffset:0;stroke-opacity:1;-inkscape-stroke:none;stop-color:#000000"
       d="m 35.912089,6.4564268 0.147796,1.82418 3.747058,-1.72599 -0.345199,1.57768 6.015135,-0.59118 -0.936892,2.36626 8.051705,1.4784702 -2.564186,2.36626 7.630542,4.3031 -2.760555,2.76055 5.854425,3.05253 -3.35277,2.56418 6.06785,3.54966 -3.55017,0.98598 2.76107,2.36627 -2.36627,1.97249 4.28191,4.2199 -4.33875,-0.19689 4.73305,4.73304 -2.95796,0.5917 2.56366,4.73304 -3.74705,0.39429 3.2954,4.31498 -3.15536,1.38028 3.15536,5.32474 -5.32474,0.1974 -0.19689,3.74706 -4.930442,-2.16937 -0.591696,4.73304 -5.916435,-0.19741 -4.11861,-2.11253 -3.155365,1.77509 -5.167643,-0.96274 c 1.173869,-0.2129 0.674396,-6.40228 1.18029,-12.2871 0.505894,-5.88482 2.017427,-11.46523 4.453475,-19.13733 4.041685,-12.72889 -9.756511,-19.54351 -9.756511,-19.54351 0,0 0.763268,-2.21244 -0.08061,-3.69176 C 29.692828,9.6734668 29.101137,8.2439168 29.101137,8.2439168 l 3.080433,0.92759 0.521417,-2.27531 0.890384,1.61437 z" />
    <circle
       id="circle3182-9-6"
       style="fill:#000000;stroke:#000000;stroke-width:0.264583"
       cx="-39.936676"
       cy="20.838381"
       r="0.017413737"
       transform="scale(-1,1)" />
    <path
       style="font-variation-settings:normal;vector-effect:none;fill:#f2cfa9;fill-opacity:1;fill-rule:evenodd;stroke:#000000;stroke-width:0.5;stroke-linecap:butt;stroke-linejoin:miter;stroke-miterlimit:4;stroke-dasharray:none;stroke-dashoffset:0;stroke-opacity:1;-inkscape-stroke:none;stop-color:#000000"
       d="m 40.261389,20.728607 c 0,0 2.102278,-6.39126 6.414672,-0.55779 3.89953,5.27497 -3.550248,6.54718 -3.433633,6.48439 0.04687,-3.20528 -0.982785,-5.13829 -2.981039,-5.9266 z"
       id="path3184-2-8"
       sodipodi:nodetypes="cscc" />
    <path
       style="font-variation-settings:normal;vector-effect:none;fill:none;fill-opacity:1;fill-rule:evenodd;stroke:#000000;stroke-width:0.5;stroke-linecap:butt;stroke-linejoin:miter;stroke-miterlimit:4;stroke-dasharray:none;stroke-dashoffset:0;stroke-opacity:1;-inkscape-stroke:none;stop-color:#000000"
       d="m 11.698311,21.825527 c 1.249901,3.34758 3.214574,4.43172 5.577975,4.25321"
       id="path3186-5-0"
       sodipodi:nodetypes="cc" />
    <ellipse
       style="color:#000000;font-variation-settings:normal;overflow:visible;vector-effect:none;fill:#000000;fill-opacity:1;fill-rule:evenodd;stroke:#000000;stroke-width:0.499999;stroke-linecap:butt;stroke-linejoin:miter;stroke-miterlimit:4;stroke-dasharray:none;stroke-dashoffset:0;stroke-opacity:1;-inkscape-stroke:none;stop-color:#000000"
       id="ellipse3188-4-2"
       cx="-28.283602"
       cy="23.70566"
       rx="2.8935738"
       ry="2.7889869"
       transform="scale(-1,1)" />
    <ellipse
       style="color:#000000;font-variation-settings:normal;overflow:visible;vector-effect:none;fill:#ffffff;fill-opacity:1;fill-rule:evenodd;stroke:#ffffff;stroke-width:0.499999;stroke-linecap:butt;stroke-linejoin:miter;stroke-miterlimit:4;stroke-dasharray:none;stroke-dashoffset:0;stroke-opacity:1;-inkscape-stroke:none;stop-color:#000000"
       id="ellipse3190-0-1"
       cx="-27.632143"
       cy="22.941561"
       rx="1.1097133"
       ry="1.0696032"
       transform="scale(-1,1)" />
    <path
       style="font-variation-settings:normal;vector-effect:none;fill:none;fill-opacity:1;fill-rule:evenodd;stroke:#000000;stroke-width:0.5;stroke-linecap:butt;stroke-linejoin:miter;stroke-miterlimit:4;stroke-dasharray:none;stroke-dashoffset:0;stroke-opacity:1;-inkscape-stroke:none;stop-color:#000000"
       d="m 33.454477,20.001017 -2.99816,-2.02201"
       id="path3192-5-0" />
    <path
       style="font-variation-settings:normal;vector-effect:none;fill:#f2cfa9;fill-opacity:1;fill-rule:evenodd;stroke:#000000;stroke-width:0.5;stroke-linecap:butt;stroke-linejoin:miter;stroke-miterlimit:4;stroke-dasharray:none;stroke-dashoffset:0;stroke-opacity:1;-inkscape-stroke:none;stop-color:#000000"
       d="m 34.459873,38.757797 c 0,0 -2.544337,0.82414 -3.151177,0.65884 -0.606843,-0.1653 -3.136276,-0.87827 -3.136276,-0.87827 0,0 -1.81284,-0.59266 -2.196324,0.34862 -0.383487,0.94129 -0.150869,1.9344 0.577564,2.9582 0.728434,1.0238 1.346314,2.28669 3.472915,2.35641 2.126602,0.0697 3.799994,-0.5578 3.799994,-0.5578"
       id="path3194-9-5"
       sodipodi:nodetypes="cscszsc" />
    <path
       style="font-variation-settings:normal;vector-effect:none;fill:#000000;fill-opacity:1;fill-rule:evenodd;stroke:#000000;stroke-width:0.5;stroke-linecap:butt;stroke-linejoin:miter;stroke-miterlimit:4;stroke-dasharray:none;stroke-dashoffset:0;stroke-opacity:1;-inkscape-stroke:none;stop-color:#000000"
       d="m 18.122863,16.218377 c 0,0 0.488072,-1.95229 -0.627523,-2.57981 -1.115594,-0.62753 -2.335776,-0.76698 -2.963299,-0.13946 -0.627523,0.62753 -1.293093,0.978 -0.909606,1.88442 0.383485,0.90642 0.548413,0.71342 0.548413,0.71342 z"
       id="path3202-4-1" />
  </g>
</svg>
