<?xml version="1.0" encoding="UTF-8" standalone="no"?>
<!-- Created with Inkscape (http://www.inkscape.org/) -->

<svg
   width="70mm"
   height="80mm"
   viewBox="0 0 70 80"
   version="1.1"
   id="svg74501"
   inkscape:version="1.1 (c4e8f9e, 2021-05-24)"
   sodipodi:docname="hedgehog_start.svg"
   xmlns:inkscape="http://www.inkscape.org/namespaces/inkscape"
   xmlns:sodipodi="http://sodipodi.sourceforge.net/DTD/sodipodi-0.dtd"
   xmlns="http://www.w3.org/2000/svg"
   xmlns:svg="http://www.w3.org/2000/svg">
  <sodipodi:namedview
     id="namedview74503"
     pagecolor="#ffffff"
     bordercolor="#999999"
     borderopacity="1"
     inkscape:pageshadow="0"
     inkscape:pageopacity="0"
     inkscape:pagecheckerboard="0"
     inkscape:document-units="mm"
     showgrid="false"
     inkscape:zoom="0.67081229"
     inkscape:cx="397.27954"
     inkscape:cy="321.99768"
     inkscape:window-width="1920"
     inkscape:window-height="1027"
     inkscape:window-x="0"
     inkscape:window-y="0"
     inkscape:window-maximized="1"
     inkscape:current-layer="layer1" />
  <defs
     id="defs74498" />
  <g
     inkscape:label="Layer 1"
     inkscape:groupmode="layer"
     id="layer1">
    <circle
       id="path72033"
       style="font-variation-settings:normal;fill:#f2cfa9;fill-opacity:1;stroke:#000000;stroke-width:0.393469;stroke-linecap:butt;stroke-linejoin:miter;stroke-miterlimit:4;stroke-dasharray:none;stroke-dashoffset:0;stroke-opacity:1;stop-color:#000000"
       cx="15.279958"
       cy="16.414486"
       r="0.019379724" />
    <path
       style="font-variation-settings:normal;fill:#f2cfa9;fill-opacity:1;fill-rule:evenodd;stroke:#000000;stroke-width:0.393469;stroke-linecap:butt;stroke-linejoin:miter;stroke-miterlimit:4;stroke-dasharray:none;stroke-dashoffset:0;stroke-opacity:1;stop-color:#000000"
       d="m 20.870221,22.922343 c 0,0 0.29643,0.9525 -1.64348,-0.59943 -1.93992,-1.55193 -1.55193,-2.79347 -0.93115,-3.64703 0.62076,-0.85356 2.56068,-2.40549 3.80222,-1.39674 1.24155,1.00875 2.1727,1.78472 2.1727,1.78472 z"
       id="path72070" />
    <path
       style="font-variation-settings:normal;fill:#f2cfa9;fill-opacity:1;fill-rule:evenodd;stroke:#000000;stroke-width:0.393469;stroke-linecap:butt;stroke-linejoin:miter;stroke-miterlimit:4;stroke-dasharray:none;stroke-dashoffset:0;stroke-opacity:1;stop-color:#000000"
       d="m 43.167017,16.475123 c 0,0 3.13285,-2.86521 4.76237,-0.9253 1.62953,1.93991 2.87107,3.87982 1.78472,5.04377 -1.08635,1.16394 -3.72463,1.86231 -3.72463,1.86231 z"
       id="path72072" />
    <circle
       id="path72029"
       style="font-variation-settings:normal;fill:#f2cfa9;fill-opacity:1;stroke:#000000;stroke-width:0.393469;stroke-linecap:butt;stroke-linejoin:miter;stroke-miterlimit:4;stroke-dasharray:none;stroke-dashoffset:0;stroke-opacity:1;stop-color:#000000"
       cx="20.654499"
       cy="22.86668"
       r="0.019379724" />
    <path
       style="font-variation-settings:normal;vector-effect:none;fill:#8c634a;fill-opacity:1;fill-rule:evenodd;stroke:#000000;stroke-width:0.499999;stroke-linecap:butt;stroke-linejoin:miter;stroke-miterlimit:4;stroke-dasharray:none;stroke-dashoffset:0;stroke-opacity:1;-inkscape-stroke:none;stop-color:#000000"
       d="m 23.815851,61.570323 -3.23676,3.13707 -1.94138,-4.59514 -2.10179,1.30647 0.10214,-7.76173 -2.40549,0.77596 0.77596,-7.42678 -2.79347,-1.31915 0.71003,-7.11821 -1.62953,-3.42789 2.45185,-2.6716 -1.49135,-9.88719 4.60858,-0.69836 -1.62953,-7.68206 4.68221,1.08636 0.93919,-5.4022901 3.3343,0.5448101 0.38798,-4.0350201 3.05902,2.31202 4.26781,-3.72463 1.241536,2.79348 4.6204,-3.47349 1.70712,3.18144 4.81099,-1.39672 1.00875,3.56943 4.89957,-0.23278 -0.15519,2.8710601 4.81098,2.71588 -1.38515,3.24047 2.46466,4.09428 -1.27685,2.15861 1.96109,3.93197 -1.30404,1.60425 2.79347,4.73338 -2.25029,2.79348 2.0175,3.33665 -2.1727,1.93991 2.09511,3.18145 -2.3944,1.41505 1.46118,2.93552 -3.33664,1.47433 1.78472,3.49185 -4.26781,1.39673 z"
       id="path73016" />
    <circle
       id="path72031"
       style="font-variation-settings:normal;fill:#f2cfa9;fill-opacity:1;stroke:#000000;stroke-width:0.393469;stroke-linecap:butt;stroke-linejoin:miter;stroke-miterlimit:4;stroke-dasharray:none;stroke-dashoffset:0;stroke-opacity:1;stop-color:#000000"
       cx="20.654499"
       cy="22.86668"
       r="0.019379724" />
    <path
       style="font-variation-settings:normal;vector-effect:none;fill:#f2cfa9;fill-opacity:1;fill-rule:evenodd;stroke:#000000;stroke-width:0.5;stroke-linecap:butt;stroke-linejoin:miter;stroke-miterlimit:4;stroke-dasharray:none;stroke-dashoffset:0;stroke-opacity:1;-inkscape-stroke:none;stop-color:#000000"
       d="m 40.279327,60.733183 c 0,0 -1.38107,12.59607 0.6525,13.04797 2.03355,0.4519 2.77618,-1.09906 2.70085,-2.6054 -0.0753,-1.50636 -0.30127,-10.0925 -0.30127,-10.0925"
       id="path3198-0-0-6" />
    <path
       style="font-variation-settings:normal;vector-effect:none;fill:#f2cfa9;fill-opacity:1;fill-rule:evenodd;stroke:#000000;stroke-width:0.5;stroke-linecap:butt;stroke-linejoin:miter;stroke-miterlimit:4;stroke-dasharray:none;stroke-dashoffset:0;stroke-opacity:1;-inkscape-stroke:none;stop-color:#000000"
       d="m 27.595801,60.185723 c 0,0 -1.38107,12.59607 0.6525,13.04797 2.03356,0.4519 2.77618,-1.09905 2.70086,-2.6054 -0.0753,-1.50635 -0.30128,-10.0925 -0.30128,-10.0925"
       id="path3200-4-8-2" />
    <path
       style="font-variation-settings:normal;vector-effect:none;fill:#f2cfa9;fill-opacity:1;fill-rule:evenodd;stroke:#000000;stroke-width:0.5;stroke-linecap:butt;stroke-linejoin:miter;stroke-miterlimit:4;stroke-dasharray:none;stroke-dashoffset:0;stroke-opacity:1;-inkscape-stroke:none;stop-color:#000000"
       d="m 25.853941,63.879463 c -4.45211,-3.20272 -5.59417,-7.9036 -5.59417,-15.47298 0,-7.56938 -3.71144,-19.24085 -0.45239,-24.05184 3.25906,-4.81098 4.5006,-9.00119 11.79467,-9.31158 7.294066,-0.31038 13.346596,-0.15518 14.432936,3.72464 1.08635,3.87982 3.57712,13.8215 3.11155,19.87403 -0.46559,6.05253 2.89158,14.84728 0.87407,18.26152 -2.01751,3.41425 -7.75964,6.9837 -10.55311,7.29408 -2.79348,0.31038 -9.928836,2.33282 -13.613556,-0.31787 z"
       id="path71956"
       sodipodi:nodetypes="sssssssss" />
    <ellipse
       style="color:#000000;font-variation-settings:normal;overflow:visible;fill:#000000;fill-opacity:1;fill-rule:evenodd;stroke:#000000;stroke-width:0.914957;stroke-linecap:butt;stroke-linejoin:miter;stroke-miterlimit:4;stroke-dasharray:none;stroke-dashoffset:0;stroke-opacity:1;stop-color:#000000"
       id="path72330"
       cx="27.814487"
       cy="23.989956"
       rx="0.38798246"
       ry="0.46557894" />
    <ellipse
       style="color:#000000;font-variation-settings:normal;overflow:visible;fill:#000000;fill-opacity:1;fill-rule:evenodd;stroke:#000000;stroke-width:0.914957;stroke-linecap:butt;stroke-linejoin:miter;stroke-miterlimit:4;stroke-dasharray:none;stroke-dashoffset:0;stroke-opacity:1;stop-color:#000000"
       id="path72332"
       cx="33.791859"
       cy="24.387043"
       rx="0.98935527"
       ry="0.64017105" />
    <ellipse
       style="color:#000000;font-variation-settings:normal;overflow:visible;fill:#000000;fill-opacity:1;fill-rule:evenodd;stroke:#000000;stroke-width:0.914957;stroke-linecap:butt;stroke-linejoin:miter;stroke-miterlimit:4;stroke-dasharray:none;stroke-dashoffset:0;stroke-opacity:1;stop-color:#000000"
       id="path72356"
       cx="40.458599"
       cy="23.4501"
       rx="0.65957016"
       ry="0.58197367" />
    <path
       style="font-variation-settings:normal;vector-effect:none;fill:#f2cfa9;fill-opacity:1;fill-rule:evenodd;stroke:#000000;stroke-width:0.5;stroke-linecap:butt;stroke-linejoin:miter;stroke-miterlimit:4;stroke-dasharray:none;stroke-dashoffset:0;stroke-opacity:1;-inkscape-stroke:none;stop-color:#000000"
       d="m 31.206311,27.330513 c 0,0 1.2912,1.92034 2.804326,1.53236 1.51313,-0.38799 2.39638,-0.39038 2.78437,-1.55432 0.38798,-1.16395 0.15519,-1.55194 0.15519,-1.55194"
       id="path72451" />
    <path
       style="font-variation-settings:normal;vector-effect:none;fill:#f2cfa9;fill-opacity:1;fill-rule:evenodd;stroke:#000000;stroke-width:0.5;stroke-linecap:butt;stroke-linejoin:miter;stroke-miterlimit:4;stroke-dasharray:none;stroke-dashoffset:0;stroke-opacity:1;-inkscape-stroke:none;stop-color:#000000"
       d="m 45.540307,36.419963 c 0,0 -0.88385,5.70179 -1.66341,7.30912 -0.82391,1.69874 -2.78626,5.0554 -4.16019,3.94137 -1.27717,-1.03556 1.12803,-3.89924 1.35899,-5.99742 0.23095,-2.09819 0.37525,-6.38116 0.37525,-6.38116"
       id="path72603"
       sodipodi:nodetypes="csssc" />
    <path
       style="font-variation-settings:normal;vector-effect:none;fill:#f2cfa9;fill-opacity:1;fill-rule:evenodd;stroke:#000000;stroke-width:0.5;stroke-linecap:butt;stroke-linejoin:miter;stroke-miterlimit:4;stroke-dasharray:none;stroke-dashoffset:0;stroke-opacity:1;-inkscape-stroke:none;stop-color:#000000"
       d="m 24.000971,37.182033 c 0,0 0.88384,5.70179 1.6634,7.30912 0.82391,1.69874 2.78626,5.0554 4.16019,3.94137 1.27717,-1.03556 -1.12803,-3.89924 -1.35899,-5.99742 -0.23095,-2.09818 -0.37524,-6.38116 -0.37524,-6.38116"
       id="path72603-6"
       sodipodi:nodetypes="csssc" />
  </g>
</svg>
