<?xml version="1.0" encoding="UTF-8" standalone="no"?>
<!-- Created with Inkscape (http://www.inkscape.org/) -->

<svg
   width="70mm"
   height="80mm"
   viewBox="0 0 70 80"
   version="1.1"
   id="svg74501"
   inkscape:version="1.1 (c4e8f9e, 2021-05-24)"
   sodipodi:docname="hedgehog_start.svg"
   xmlns:inkscape="http://www.inkscape.org/namespaces/inkscape"
   xmlns:sodipodi="http://sodipodi.sourceforge.net/DTD/sodipodi-0.dtd"
   xmlns="http://www.w3.org/2000/svg"
   xmlns:svg="http://www.w3.org/2000/svg">
  <sodipodi:namedview
     id="namedview74503"
     pagecolor="#ffffff"
     bordercolor="#999999"
     borderopacity="1"
     inkscape:pageshadow="0"
     inkscape:pageopacity="0"
     inkscape:pagecheckerboard="0"
     inkscape:document-units="mm"
     showgrid="false"
     inkscape:zoom="1.8973437"
     inkscape:cx="104.0929"
     inkscape:cy="101.72116"
     inkscape:window-width="1920"
     inkscape:window-height="1027"
     inkscape:window-x="0"
     inkscape:window-y="0"
     inkscape:window-maximized="1"
     inkscape:current-layer="layer1" />
  <defs
     id="defs74498" />
  <g
     inkscape:label="Layer 1"
     inkscape:groupmode="layer"
     id="layer1">
    <path
       style="font-variation-settings:normal;fill:#f2cfa9;fill-opacity:1;fill-rule:evenodd;stroke:#000000;stroke-width:1;stroke-linecap:butt;stroke-linejoin:miter;stroke-miterlimit:4;stroke-dasharray:none;stroke-dashoffset:0;stroke-opacity:1;stop-color:#000000"
       d="m 32.118166,63.943885 c 0,0 1.27879,9.60442 -0.749372,10.05513 -2.02816,0.4507 -2.7688,-1.09614 -2.69368,-2.59848 0.0751,-1.50235 0.39908,-7.10751 0.39908,-7.10751"
       id="path3198-0-9-7-9"
       sodipodi:nodetypes="cssc" />
    <path
       style="font-variation-settings:normal;fill:#f2cfa9;fill-opacity:1;fill-rule:evenodd;stroke:#000000;stroke-width:1;stroke-linecap:butt;stroke-linejoin:miter;stroke-miterlimit:4;stroke-dasharray:none;stroke-dashoffset:0;stroke-opacity:1;stop-color:#000000"
       d="m 41.679386,63.372565 c 0,0 1.27879,9.60442 -0.74937,10.05513 -2.02815,0.4507 -2.76879,-1.09614 -2.69368,-2.59848 0.0751,-1.50235 0.39908,-7.10751 0.39908,-7.10751"
       id="path3198-0-9-3-5-6"
       sodipodi:nodetypes="cssc" />
    <path
       style="font-variation-settings:normal;fill:#8c634a;fill-opacity:1;fill-rule:evenodd;stroke:#000000;stroke-width:1;stroke-linecap:butt;stroke-linejoin:round;stroke-miterlimit:4;stroke-dasharray:none;stroke-dashoffset:0;stroke-opacity:1;stop-color:#000000"
       d="m 24.745194,64.284125 -3.23676,3.13707 -1.94138,-4.59514 -2.10179,1.30647 0.10214,-7.76173 -2.40549,0.77596 0.77596,-7.42678 -2.79347,-1.31915 0.71003,-7.11821 -1.62953,-3.42789 2.45185,-2.6716 -1.49135,-9.88719 4.60858,-0.69836 -1.62953,-7.68206 4.68221,1.08636 0.93919,-5.40229 3.33431,0.54481 0.38797,-4.0350221 3.05903,2.3120221 4.267812,-3.7246321 1.24153,2.7934801 4.6204,-3.4734901 1.70712,3.1814401 4.81099,-1.3967201 1.00875,3.5694321 4.89957,-0.23278 -0.15519,2.87106 4.810984,2.71588 -1.38515,3.24047 2.46466,4.09428 -1.27685,2.15861 1.96109,3.93197 -1.30404,1.60425 2.79348,4.73338 -2.2503,2.79348 2.01751,3.33665 -2.1727,1.93991 2.09511,3.18145 -2.3944,1.41505 1.46118,2.93552 -3.33664,1.47433 1.78472,3.49185 -4.267814,1.39673 z"
       id="path73016-0-5" />
    <path
       style="font-variation-settings:normal;fill:#f2cfa9;fill-opacity:1;fill-rule:evenodd;stroke:#000000;stroke-width:1;stroke-linecap:butt;stroke-linejoin:miter;stroke-miterlimit:4;stroke-dasharray:none;stroke-dashoffset:0;stroke-opacity:1;stop-color:#000000"
       d="m 26.051174,65.512535 c -4.45211,-3.20272 -5.59416,-7.9036 -5.59416,-15.47298 0,-7.56938 0.15827,-14.74361 1.53475,-20.53075 1.34464,-5.65323 5.12285,-10.91909 12.413142,-11.30822 5.815,-0.31038 10.73355,0.97878 12.85526,6.38699 1.47146,3.75073 3.28129,10.91264 2.81572,16.96517 -0.46558,6.05253 0.0507,12.62028 -1.35712,18.69183 -0.94277,4.0659 -7.75964,6.9837 -10.55311,7.29408 -2.79348,0.31038 -8.429762,0.62457 -12.114482,-2.02612 z"
       id="path71956-6-4"
       sodipodi:nodetypes="sssssssss" />
    <ellipse
       style="color:#000000;font-variation-settings:normal;overflow:visible;fill:#000000;fill-opacity:1;fill-rule:evenodd;stroke:#000000;stroke-width:0.914957;stroke-linecap:butt;stroke-linejoin:miter;stroke-miterlimit:4;stroke-dasharray:none;stroke-dashoffset:0;stroke-opacity:1;stop-color:#000000"
       id="path72332-0-8"
       cx="35.779541"
       cy="29.746647"
       rx="0.98935527"
       ry="0.64017105" />
    <path
       style="font-variation-settings:normal;fill:#f2cfa9;fill-opacity:1;fill-rule:evenodd;stroke:#000000;stroke-width:0.941049;stroke-linecap:round;stroke-linejoin:miter;stroke-miterlimit:4;stroke-dasharray:none;stroke-dashoffset:0;stroke-opacity:1;stop-color:#000000"
       d="m 46.917186,45.171105 c 0,0 -0.89218,5.00221 -1.67909,6.41233 -0.83167,1.49032 -2.81251,4.43514 -4.19939,3.45779 -1.2892,-0.9085 1.13866,-3.42083 1.3718,-5.26157 0.23312,-1.84076 0.37878,-5.59823 0.37878,-5.59823"
       id="path72603-2-9"
       sodipodi:nodetypes="csssc" />
    <path
       style="font-variation-settings:normal;fill:#f2cfa9;fill-opacity:1;fill-rule:evenodd;stroke:#000000;stroke-width:0.902917;stroke-linecap:round;stroke-linejoin:miter;stroke-miterlimit:4;stroke-dasharray:none;stroke-dashoffset:0;stroke-opacity:1;stop-color:#000000"
       d="m 23.975854,45.829895 c 0,0 0.89754,4.5774 1.6892,5.86776 0.8367,1.36375 2.8295,4.05848 4.22475,3.16413 1.29699,-0.83134 -1.14552,-3.13031 -1.38008,-4.81473 -0.23453,-1.68442 -0.38105,-5.12279 -0.38105,-5.12279"
       id="path72603-6-2-7"
       sodipodi:nodetypes="csssc" />
    <path
       style="font-variation-settings:normal;fill:#f2cfa9;fill-opacity:1;fill-rule:evenodd;stroke:#000000;stroke-width:1;stroke-linecap:round;stroke-linejoin:round;stroke-miterlimit:4;stroke-dasharray:none;stroke-dashoffset:0;stroke-opacity:1;stop-color:#000000"
       d="m 33.21966,33.142405 c 0,0 0.42878,1.67218 2.40991,1.65562 1.24194,-0.0104 2.39638,-0.39038 2.78437,-1.55432"
       id="path72451-3"
       sodipodi:nodetypes="csc" />
    <ellipse
       style="color:#000000;font-variation-settings:normal;overflow:visible;fill:#ff8080;fill-opacity:1;fill-rule:evenodd;stroke:#ff8080;stroke-width:1.29488;stroke-linecap:butt;stroke-linejoin:miter;stroke-miterlimit:4;stroke-dasharray:none;stroke-dashoffset:0;stroke-opacity:1;stop-color:#000000"
       id="path72356-4-5-8-4-9"
       cx="-17.45318"
       cy="35.803814"
       rx="1.0969627"
       ry="0.70086366"
       transform="matrix(-0.98353533,0.18071593,0.36395114,0.93141804,0,0)" />
    <ellipse
       style="color:#000000;font-variation-settings:normal;overflow:visible;fill:#ff8080;fill-opacity:1;fill-rule:evenodd;stroke:#ff8080;stroke-width:1.29488;stroke-linecap:butt;stroke-linejoin:miter;stroke-miterlimit:4;stroke-dasharray:none;stroke-dashoffset:0;stroke-opacity:1;stop-color:#000000"
       id="path72356-4-5-8-4-9-7"
       cx="-28.663635"
       cy="37.956406"
       rx="1.0969627"
       ry="0.70086366"
       transform="matrix(-0.98353533,0.18071593,0.36395114,0.93141804,0,0)" />
    <path
       style="font-variation-settings:normal;fill:#f2cfa9;fill-opacity:1;fill-rule:evenodd;stroke:#000000;stroke-width:0.802369;stroke-linecap:butt;stroke-linejoin:round;stroke-miterlimit:4;stroke-dasharray:none;stroke-dashoffset:0;stroke-opacity:1;stop-color:#000000"
       d="m 47.153768,20.598552 c 0,0 2.093586,-2.344248 3.527503,-0.903366 1.433925,1.440881 1.568668,1.998122 1.213913,3.377941 -0.3181,1.237246 -2.496036,1.720856 -2.496036,1.720856 -0.346604,-2.011756 -0.944101,-3.2932 -2.24538,-4.195431 z"
       id="path72072-4-7"
       sodipodi:nodetypes="csscc" />
    <path
       style="font-variation-settings:normal;fill:#f2cfa9;fill-opacity:1;fill-rule:evenodd;stroke:#000000;stroke-width:0.802369;stroke-linecap:butt;stroke-linejoin:round;stroke-miterlimit:4;stroke-dasharray:none;stroke-dashoffset:0;stroke-opacity:1;stop-color:#000000"
       d="m 25.187963,20.479879 c 0,0 -1.634915,-2.684334 -3.305854,-1.526655 -1.670947,1.157677 -1.904282,1.681345 -1.805019,3.102576 0.08901,1.27438 2.143508,2.144042 2.143508,2.144042 0.704852,-1.91585 1.524328,-3.068048 2.967365,-3.719963 z"
       id="path72072-4-7-6"
       sodipodi:nodetypes="csscc" />
    <g
       id="g1667"
       transform="translate(0.64093626,-0.24651395)">
      <ellipse
         style="color:#000000;font-variation-settings:normal;overflow:visible;fill:#ffffff;fill-opacity:1;fill-rule:evenodd;stroke:#000000;stroke-width:0.3;stroke-linecap:butt;stroke-linejoin:miter;stroke-miterlimit:4;stroke-dasharray:none;stroke-dashoffset:0;stroke-opacity:1;stop-color:#000000"
         id="ellipse3188-4-2-6-3-0-4-6"
         cx="-31.221277"
         cy="-35.111725"
         rx="2.7083616"
         ry="2.6104693"
         transform="rotate(165)" />
      <ellipse
         style="color:#000000;font-variation-settings:normal;overflow:visible;vector-effect:none;fill:#000000;fill-opacity:1;fill-rule:evenodd;stroke:#000000;stroke-width:0.700792;stroke-linecap:butt;stroke-linejoin:miter;stroke-miterlimit:4;stroke-dasharray:none;stroke-dashoffset:0;stroke-opacity:1;-inkscape-stroke:none;stop-color:#000000"
         id="ellipse3190-0-1-4-3-4-7-4"
         cx="-30.770903"
         cy="-34.999134"
         rx="1.5553625"
         ry="1.4991447"
         transform="rotate(165)" />
      <ellipse
         style="color:#000000;font-variation-settings:normal;overflow:visible;vector-effect:none;fill:#ffffff;fill-opacity:1;fill-rule:evenodd;stroke:#ffffff;stroke-width:0.218855;stroke-linecap:butt;stroke-linejoin:miter;stroke-miterlimit:4;stroke-dasharray:none;stroke-dashoffset:0;stroke-opacity:1;-inkscape-stroke:none;stop-color:#000000"
         id="ellipse3190-0-1-4-3-4-8-8-3"
         cx="43.121655"
         cy="-14.578093"
         rx="0.48573416"
         ry="0.46817756"
         transform="matrix(0.96592583,0.25881905,0.25881905,-0.96592583,0,0)" />
      <ellipse
         style="color:#000000;font-variation-settings:normal;overflow:visible;vector-effect:none;fill:#ffffff;fill-opacity:1;fill-rule:evenodd;stroke:#ffffff;stroke-width:0.0943935;stroke-linecap:butt;stroke-linejoin:miter;stroke-miterlimit:4;stroke-dasharray:none;stroke-dashoffset:0;stroke-opacity:1;-inkscape-stroke:none;stop-color:#000000"
         id="ellipse3190-0-1-4-3-4-8-8-9-3"
         cx="43.356518"
         cy="-15.712141"
         rx="0.20950049"
         ry="0.20192821"
         transform="matrix(0.96592583,0.25881905,0.25881905,-0.96592583,0,0)" />
    </g>
    <g
       id="g1673"
       transform="translate(0.09860558,0.04930279)">
      <ellipse
         style="color:#000000;font-variation-settings:normal;overflow:visible;fill:#ffffff;fill-opacity:1;fill-rule:evenodd;stroke:#000000;stroke-width:0.3;stroke-linecap:butt;stroke-linejoin:miter;stroke-miterlimit:4;stroke-dasharray:none;stroke-dashoffset:0;stroke-opacity:1;stop-color:#000000"
         id="ellipse3188-4-2-6-3-0-4-6-3"
         cx="-24.389107"
         cy="-33.178967"
         rx="2.7083616"
         ry="2.6104693"
         transform="rotate(165)" />
      <ellipse
         style="color:#000000;font-variation-settings:normal;overflow:visible;vector-effect:none;fill:#000000;fill-opacity:1;fill-rule:evenodd;stroke:#000000;stroke-width:0.700792;stroke-linecap:butt;stroke-linejoin:miter;stroke-miterlimit:4;stroke-dasharray:none;stroke-dashoffset:0;stroke-opacity:1;-inkscape-stroke:none;stop-color:#000000"
         id="ellipse3190-0-1-4-3-4-7-4-8"
         cx="-23.938732"
         cy="-33.066376"
         rx="1.5553625"
         ry="1.4991447"
         transform="rotate(165)" />
      <ellipse
         style="color:#000000;font-variation-settings:normal;overflow:visible;vector-effect:none;fill:#ffffff;fill-opacity:1;fill-rule:evenodd;stroke:#ffffff;stroke-width:0.218855;stroke-linecap:butt;stroke-linejoin:miter;stroke-miterlimit:4;stroke-dasharray:none;stroke-dashoffset:0;stroke-opacity:1;-inkscape-stroke:none;stop-color:#000000"
         id="ellipse3190-0-1-4-3-4-8-8-3-6"
         cx="36.238445"
         cy="-16.32036"
         rx="0.48573416"
         ry="0.46817756"
         transform="matrix(0.96592583,0.25881905,0.25881905,-0.96592583,0,0)" />
      <ellipse
         style="color:#000000;font-variation-settings:normal;overflow:visible;vector-effect:none;fill:#ffffff;fill-opacity:1;fill-rule:evenodd;stroke:#ffffff;stroke-width:0.0943935;stroke-linecap:butt;stroke-linejoin:miter;stroke-miterlimit:4;stroke-dasharray:none;stroke-dashoffset:0;stroke-opacity:1;-inkscape-stroke:none;stop-color:#000000"
         id="ellipse3190-0-1-4-3-4-8-8-9-3-0"
         cx="36.473309"
         cy="-17.454409"
         rx="0.20950049"
         ry="0.20192821"
         transform="matrix(0.96592583,0.25881905,0.25881905,-0.96592583,0,0)" />
    </g>
  </g>
</svg>
