<?xml version="1.0" encoding="UTF-8" standalone="no"?>
<!-- Created with Inkscape (http://www.inkscape.org/) -->

<svg
   width="70mm"
   height="80mm"
   viewBox="0 0 70 80"
   version="1.1"
   id="svg74501"
   inkscape:version="1.1 (c4e8f9e, 2021-05-24)"
   sodipodi:docname="hedgehog_left_down.svg"
   xmlns:inkscape="http://www.inkscape.org/namespaces/inkscape"
   xmlns:sodipodi="http://sodipodi.sourceforge.net/DTD/sodipodi-0.dtd"
   xmlns="http://www.w3.org/2000/svg"
   xmlns:svg="http://www.w3.org/2000/svg">
  <sodipodi:namedview
     id="namedview74503"
     pagecolor="#ffffff"
     bordercolor="#999999"
     borderopacity="1"
     inkscape:pageshadow="0"
     inkscape:pageopacity="0"
     inkscape:pagecheckerboard="0"
     inkscape:document-units="mm"
     showgrid="false"
     inkscape:zoom="1.3416246"
     inkscape:cx="205.34806"
     inkscape:cy="122.23986"
     inkscape:window-width="1920"
     inkscape:window-height="1027"
     inkscape:window-x="0"
     inkscape:window-y="0"
     inkscape:window-maximized="1"
     inkscape:current-layer="layer1" />
  <defs
     id="defs74498" />
  <g
     inkscape:label="Layer 1"
     inkscape:groupmode="layer"
     id="layer1">
    <path
       style="font-variation-settings:normal;vector-effect:none;fill:#f2cfa9;fill-opacity:1;fill-rule:evenodd;stroke:#000000;stroke-width:0.5;stroke-linecap:butt;stroke-linejoin:miter;stroke-miterlimit:4;stroke-dasharray:none;stroke-dashoffset:0;stroke-opacity:1;-inkscape-stroke:none;stop-color:#000000"
       d="m 21.192819,45.543164 c 0,0 -8.415089,11.788984 -10.066015,13.528588 -0.484332,0.510343 -0.692705,1.084639 -0.591496,1.949814 0.101195,0.865148 1.470664,2.326127 2.386554,1.749307 0.915884,-0.576819 11.577071,-13.013187 11.577071,-13.013187"
       id="path3196-6-1-0"
       sodipodi:nodetypes="csssc" />
    <path
       style="font-variation-settings:normal;vector-effect:none;fill:#f2cfa9;fill-opacity:1;fill-rule:evenodd;stroke:#000000;stroke-width:0.5;stroke-linecap:butt;stroke-linejoin:miter;stroke-miterlimit:4;stroke-dasharray:none;stroke-dashoffset:0;stroke-opacity:1;-inkscape-stroke:none;stop-color:#000000"
       d="m 28.030887,65.724332 c 0,0 0.954487,8.70541 -0.450953,9.01773 -1.405437,0.31232 -1.918672,-0.75958 -1.866619,-1.80065 0.05205,-1.04107 0.208215,-6.97514 0.208215,-6.97514"
       id="path3198-0-0-8" />
    <path
       style="font-variation-settings:normal;vector-effect:none;fill:#f2cfa9;fill-opacity:1;fill-rule:evenodd;stroke:#000000;stroke-width:0.5;stroke-linecap:butt;stroke-linejoin:miter;stroke-miterlimit:4;stroke-dasharray:none;stroke-dashoffset:0;stroke-opacity:1;-inkscape-stroke:none;stop-color:#000000"
       d="m 36.796746,65.345972 c 0,0 0.954488,8.70541 -0.450952,9.01773 -1.405438,0.31232 -1.918673,-0.75958 -1.86662,-1.80065 0.05205,-1.04107 0.208216,-6.97514 0.208216,-6.97514"
       id="path3200-4-8-1" />
    <path
       style="fill:none;fill-rule:evenodd;stroke:#ff0000;stroke-width:0.5;stroke-linecap:butt;stroke-linejoin:miter;stroke-miterlimit:4;stroke-dasharray:none;stroke-opacity:1"
       d="m 45.036679,62.793162 c -2.03787,1.241063 -3.510424,2.408473 -7.601532,4.406568 -4.091112,1.998095 -8.023412,3.017502 -10.21945,2.53432 C 22.278454,68.647783 22.925947,53.673239 21.476726,47.110158 19.898055,39.960842 11.01495,34.68633 8.6160438,31.289257 5.9841715,27.562286 7.788193,23.788904 8.272863,23.126769 c 0.4846727,-0.662126 5.068729,-0.41977 7.638101,-1.567705 2.569373,-1.147935 6.962295,-4.847226 6.962295,-4.847226 0,0 15.32521,1.400788 16.127826,14.731792 0.48376,8.035012 1.078423,13.785778 2.721113,19.459268 1.642692,5.673499 4.333423,11.269741 3.314481,11.890264 z"
       id="path1011-5-8-5-3"
       sodipodi:nodetypes="ssssssscsss" />
    <path
       id="path1757-7-8-0-1"
       style="font-variation-settings:normal;vector-effect:none;fill:none;fill-opacity:1;fill-rule:evenodd;stroke:#ff0000;stroke-width:0.499999;stroke-linecap:butt;stroke-linejoin:miter;stroke-miterlimit:4;stroke-dasharray:none;stroke-dashoffset:0;stroke-opacity:1;-inkscape-stroke:none;stop-color:#000000"
       d="m 24.799764,6.9811891 0.793468,1.6492075 2.876486,-2.9572471 0.244818,1.5963398 5.40086,-2.7133107 -0.02396,2.5448732 8.04514,-1.5137884 -1.542542,3.1296641 8.667177,1.273502 -1.584097,3.5681815 6.5603,0.744745 -2.207312,3.597748 6.938112,1.131969 -2.958684,2.195918 3.426976,1.215968 -1.499346,2.691072 5.512348,2.399235 -4.119675,1.375457 6.117755,2.715973 -2.547726,1.615157 4.093295,3.495571 -3.355053,1.714508 4.625917,2.842477 -2.448562,2.422 4.858104,3.835108 -4.898096,2.097733 1.162822,3.567502 -5.380675,-0.252625 1.148714,4.629495 -5.592144,1.941931 -4.602643,-0.491327 -2.306675,2.790435 -5.168405,0.958641 C 46.05541,62.172773 43.365063,56.576352 41.72237,50.902853 40.079675,45.229354 39.484836,39.478539 39.001074,31.443527 38.198459,18.112523 22.873088,16.711712 22.873088,16.711712 c 0,0 -0.08279,-2.338934 -1.401912,-3.416173 -1.319124,-1.077236 -2.385016,-2.198656 -2.385016,-2.198656 l 3.207994,-0.241373 -0.33108,-2.3106925 1.411049,1.186555 z" />
    <circle
       id="path1912-4-8-6-1"
       style="fill:#000000;stroke:#ff0000;stroke-width:0.264583"
       cx="-24.658875"
       cy="29.808929"
       r="0.017413737"
       transform="matrix(-0.93319747,0.359364,0.359364,0.93319747,0,0)" />
    <path
       style="font-variation-settings:normal;vector-effect:none;fill:none;fill-opacity:1;fill-rule:evenodd;stroke:#ff0000;stroke-width:0.5;stroke-linecap:butt;stroke-linejoin:miter;stroke-miterlimit:4;stroke-dasharray:none;stroke-dashoffset:0;stroke-opacity:1;-inkscape-stroke:none;stop-color:#000000"
       d="m 33.987428,18.736971 c 0,0 -0.334949,-6.719792 5.785706,-2.825731 5.534665,3.521238 -0.960262,7.385643 -0.874002,7.285141 -1.108123,-3.008003 -2.763649,-4.441862 -4.911704,-4.45941 z"
       id="path1949-1-9-4-0"
       sodipodi:nodetypes="cscc" />
    <path
       style="font-variation-settings:normal;vector-effect:none;fill:none;fill-opacity:1;fill-rule:evenodd;stroke:#ff0000;stroke-width:0.5;stroke-linecap:butt;stroke-linejoin:miter;stroke-miterlimit:4;stroke-dasharray:none;stroke-dashoffset:0;stroke-opacity:1;-inkscape-stroke:none;stop-color:#000000"
       d="m 7.7266274,30.025156 c 2.3694056,2.674783 4.5924326,2.980467 6.7338026,1.964561"
       id="path2146-8-7-6-3"
       sodipodi:nodetypes="cc" />
    <ellipse
       style="color:#000000;font-variation-settings:normal;overflow:visible;vector-effect:none;fill:none;fill-opacity:1;fill-rule:evenodd;stroke:#ff0000;stroke-width:0.499999;stroke-linecap:butt;stroke-linejoin:miter;stroke-miterlimit:4;stroke-dasharray:none;stroke-dashoffset:0;stroke-opacity:1;-inkscape-stroke:none;stop-color:#000000"
       id="path2369-5-7-2-4"
       cx="-13.005794"
       cy="32.676208"
       rx="2.8935738"
       ry="2.7889869"
       transform="matrix(-0.93319747,0.359364,0.359364,0.93319747,0,0)" />
    <ellipse
       style="color:#000000;font-variation-settings:normal;overflow:visible;vector-effect:none;fill:none;fill-opacity:1;fill-rule:evenodd;stroke:#ff0000;stroke-width:0.499999;stroke-linecap:butt;stroke-linejoin:miter;stroke-miterlimit:4;stroke-dasharray:none;stroke-dashoffset:0;stroke-opacity:1;-inkscape-stroke:none;stop-color:#000000"
       id="path2369-5-3-6-5-0"
       cx="-12.354335"
       cy="31.912109"
       rx="1.1097133"
       ry="1.0696032"
       transform="matrix(-0.93319747,0.359364,0.359364,0.93319747,0,0)" />
    <path
       style="font-variation-settings:normal;vector-effect:none;fill:none;fill-opacity:1;fill-rule:evenodd;stroke:#ff0000;stroke-width:0.5;stroke-linecap:butt;stroke-linejoin:miter;stroke-miterlimit:4;stroke-dasharray:none;stroke-dashoffset:0;stroke-opacity:1;-inkscape-stroke:none;stop-color:#000000"
       d="M 27.373764,20.504145 23.849252,19.694641"
       id="path2404-9-4-8-3" />
    <path
       style="font-variation-settings:normal;vector-effect:none;fill:none;fill-opacity:1;fill-rule:evenodd;stroke:#ff0000;stroke-width:0.5;stroke-linecap:butt;stroke-linejoin:miter;stroke-miterlimit:4;stroke-dasharray:none;stroke-dashoffset:0;stroke-opacity:1;-inkscape-stroke:none;stop-color:#000000"
       d="m 35.052509,37.646621 c 0,0 -2.078204,1.683429 -2.703907,1.747247 -0.625706,0.06382 -3.242383,0.307466 -3.242383,0.307466 0,0 -1.904719,0.0984 -1.924323,1.114611 -0.0196,1.016221 1.704928,3.094565 1.704928,3.094565 0,0 1.975255,1.10858 3.984849,0.409419 2.009586,-0.69918 3.345691,-1.886119 3.345691,-1.886119"
       id="path2482-7-3-6-9" />
    <path
       style="font-variation-settings:normal;vector-effect:none;fill:none;fill-opacity:1;fill-rule:evenodd;stroke:#ff0000;stroke-width:0.5;stroke-linecap:butt;stroke-linejoin:miter;stroke-miterlimit:4;stroke-dasharray:none;stroke-dashoffset:0;stroke-opacity:1;-inkscape-stroke:none;stop-color:#000000"
       d="m 11.706996,22.483824 c 0,0 -0.24611,-1.997267 -1.512693,-2.181962 -1.2665816,-0.184705 -2.4553656,0.123649 -2.8154601,0.934759 -0.3600912,0.811119 -0.8552529,1.377358 -0.1716498,2.085416 0.6836013,0.708058 0.7681552,0.468681 0.7681552,0.468681 z"
       id="path2926-8-0-2-1" />
    <path
       style="fill:#f2cfa9;fill-opacity:1;fill-rule:evenodd;stroke:#000000;stroke-width:0.5;stroke-linecap:butt;stroke-linejoin:miter;stroke-miterlimit:4;stroke-dasharray:none;stroke-opacity:1"
       d="m 45.036679,62.793162 c -2.03787,1.241063 -3.510424,2.408473 -7.601532,4.406568 -4.091112,1.998095 -8.023412,3.017502 -10.21945,2.53432 C 22.278454,68.647783 22.925947,53.673239 21.476726,47.110158 19.898055,39.960842 11.01495,34.68633 8.6160438,31.289257 5.9841715,27.562286 7.788193,23.788904 8.272863,23.126769 c 0.4846727,-0.662126 5.068729,-0.41977 7.638101,-1.567705 2.569373,-1.147935 6.962295,-4.847226 6.962295,-4.847226 0,0 15.32521,1.400788 16.127826,14.731792 0.48376,8.035012 1.078423,13.785778 2.721113,19.459268 1.642692,5.673499 4.333423,11.269741 3.314481,11.890264 z"
       id="path3178-3-8-9"
       sodipodi:nodetypes="ssssssscsss" />
    <path
       id="path3180-0-4-6"
       style="font-variation-settings:normal;vector-effect:none;fill:#8c634a;fill-opacity:1;fill-rule:evenodd;stroke:#000000;stroke-width:0.499999;stroke-linecap:butt;stroke-linejoin:miter;stroke-miterlimit:4;stroke-dasharray:none;stroke-dashoffset:0;stroke-opacity:1;-inkscape-stroke:none;stop-color:#000000"
       d="m 24.799764,6.9811891 0.793468,1.6492075 2.876486,-2.9572471 0.244818,1.5963398 5.40086,-2.7133107 -0.02396,2.5448732 8.04514,-1.5137884 -1.542542,3.1296641 8.667177,1.273502 -1.584097,3.5681815 6.5603,0.744745 -2.207312,3.597748 6.938112,1.131969 -2.958684,2.195918 3.426976,1.215968 -1.499346,2.691072 5.512348,2.399235 -4.119675,1.375457 6.117755,2.715973 -2.547726,1.615157 4.093295,3.495571 -3.355053,1.714508 4.625917,2.842477 -2.448562,2.422 4.858104,3.835108 -4.898096,2.097733 1.162822,3.567502 -5.380675,-0.252625 1.148714,4.629495 -5.592144,1.941931 -4.602643,-0.491327 -2.306675,2.790435 -5.168405,0.958641 C 46.05541,62.172773 43.365063,56.576352 41.72237,50.902853 40.079675,45.229354 39.484836,39.478539 39.001074,31.443527 38.198459,18.112523 22.873088,16.711712 22.873088,16.711712 c 0,0 -0.08279,-2.338934 -1.401912,-3.416173 -1.319124,-1.077236 -2.385016,-2.198656 -2.385016,-2.198656 l 3.207994,-0.241373 -0.33108,-2.3106925 1.411049,1.186555 z" />
    <circle
       id="circle3182-9-7-9"
       style="fill:#000000;stroke:#000000;stroke-width:0.264583"
       cx="-24.658875"
       cy="29.808929"
       r="0.017413737"
       transform="matrix(-0.93319747,0.359364,0.359364,0.93319747,0,0)" />
    <path
       style="font-variation-settings:normal;vector-effect:none;fill:#f2cfa9;fill-opacity:1;fill-rule:evenodd;stroke:#000000;stroke-width:0.5;stroke-linecap:butt;stroke-linejoin:miter;stroke-miterlimit:4;stroke-dasharray:none;stroke-dashoffset:0;stroke-opacity:1;-inkscape-stroke:none;stop-color:#000000"
       d="m 33.987428,18.736971 c 0,0 -0.334949,-6.719792 5.785706,-2.825731 5.534665,3.521238 -0.960262,7.385643 -0.874002,7.285141 -1.108123,-3.008003 -2.763649,-4.441862 -4.911704,-4.45941 z"
       id="path3184-2-2-3"
       sodipodi:nodetypes="cscc" />
    <path
       style="font-variation-settings:normal;vector-effect:none;fill:none;fill-opacity:1;fill-rule:evenodd;stroke:#000000;stroke-width:0.5;stroke-linecap:butt;stroke-linejoin:miter;stroke-miterlimit:4;stroke-dasharray:none;stroke-dashoffset:0;stroke-opacity:1;-inkscape-stroke:none;stop-color:#000000"
       d="m 7.7266274,30.025156 c 2.3694056,2.674783 4.5924326,2.980467 6.7338026,1.964561"
       id="path3186-5-4-3"
       sodipodi:nodetypes="cc" />
    <ellipse
       style="color:#000000;font-variation-settings:normal;overflow:visible;vector-effect:none;fill:#000000;fill-opacity:1;fill-rule:evenodd;stroke:#000000;stroke-width:0.499999;stroke-linecap:butt;stroke-linejoin:miter;stroke-miterlimit:4;stroke-dasharray:none;stroke-dashoffset:0;stroke-opacity:1;-inkscape-stroke:none;stop-color:#000000"
       id="ellipse3188-4-0-8"
       cx="-13.005794"
       cy="32.676208"
       rx="2.8935738"
       ry="2.7889869"
       transform="matrix(-0.93319747,0.359364,0.359364,0.93319747,0,0)" />
    <ellipse
       style="color:#000000;font-variation-settings:normal;overflow:visible;vector-effect:none;fill:#ffffff;fill-opacity:1;fill-rule:evenodd;stroke:#ffffff;stroke-width:0.499999;stroke-linecap:butt;stroke-linejoin:miter;stroke-miterlimit:4;stroke-dasharray:none;stroke-dashoffset:0;stroke-opacity:1;-inkscape-stroke:none;stop-color:#000000"
       id="ellipse3190-0-6-0"
       cx="-12.354335"
       cy="31.912109"
       rx="1.1097133"
       ry="1.0696032"
       transform="matrix(-0.93319747,0.359364,0.359364,0.93319747,0,0)" />
    <path
       style="font-variation-settings:normal;vector-effect:none;fill:none;fill-opacity:1;fill-rule:evenodd;stroke:#000000;stroke-width:0.5;stroke-linecap:butt;stroke-linejoin:miter;stroke-miterlimit:4;stroke-dasharray:none;stroke-dashoffset:0;stroke-opacity:1;-inkscape-stroke:none;stop-color:#000000"
       d="M 27.373764,20.504145 23.849252,19.694641"
       id="path3192-5-2-5" />
    <path
       style="font-variation-settings:normal;vector-effect:none;fill:#f2cfa9;fill-opacity:1;fill-rule:evenodd;stroke:#000000;stroke-width:0.5;stroke-linecap:butt;stroke-linejoin:miter;stroke-miterlimit:4;stroke-dasharray:none;stroke-dashoffset:0;stroke-opacity:1;-inkscape-stroke:none;stop-color:#000000"
       d="m 35.052509,37.646621 c 0,0 -2.078204,1.683429 -2.703907,1.747247 -0.625706,0.06382 -3.242383,0.307466 -3.242383,0.307466 0,0 -1.904719,0.0984 -1.924323,1.114611 -0.0196,1.016221 0.554363,1.859394 1.602052,2.553029 1.04769,0.693635 2.078131,1.650116 4.087725,0.950955 2.009586,-0.69918 3.34569,-1.886118 3.34569,-1.886118"
       id="path3194-9-9-6"
       sodipodi:nodetypes="cscszsc" />
    <path
       style="font-variation-settings:normal;vector-effect:none;fill:#000000;fill-opacity:1;fill-rule:evenodd;stroke:#000000;stroke-width:0.5;stroke-linecap:butt;stroke-linejoin:miter;stroke-miterlimit:4;stroke-dasharray:none;stroke-dashoffset:0;stroke-opacity:1;-inkscape-stroke:none;stop-color:#000000"
       d="m 11.706996,22.483824 c 0,0 -0.24611,-1.997267 -1.512693,-2.181962 -1.2665816,-0.184705 -2.4553656,0.123649 -2.8154601,0.934759 -0.3600912,0.811119 -0.8552529,1.377358 -0.1716498,2.085416 0.6836013,0.708058 0.7681552,0.468681 0.7681552,0.468681 z"
       id="path3202-4-9-6" />
  </g>
</svg>
