<?xml version="1.0" encoding="UTF-8" standalone="no"?>
<!-- Created with Inkscape (http://www.inkscape.org/) -->

<svg
   width="70mm"
   height="80mm"
   viewBox="0 0 70 80"
   version="1.1"
   id="svg74501"
   inkscape:version="1.1 (c4e8f9e, 2021-05-24)"
   sodipodi:docname="hedgehog_right_down.svg"
   xmlns:inkscape="http://www.inkscape.org/namespaces/inkscape"
   xmlns:sodipodi="http://sodipodi.sourceforge.net/DTD/sodipodi-0.dtd"
   xmlns="http://www.w3.org/2000/svg"
   xmlns:svg="http://www.w3.org/2000/svg">
  <sodipodi:namedview
     id="namedview74503"
     pagecolor="#ffffff"
     bordercolor="#999999"
     borderopacity="1"
     inkscape:pageshadow="0"
     inkscape:pageopacity="0"
     inkscape:pagecheckerboard="0"
     inkscape:document-units="mm"
     showgrid="false"
     inkscape:zoom="1.3416246"
     inkscape:cx="205.34806"
     inkscape:cy="122.23986"
     inkscape:window-width="1920"
     inkscape:window-height="1027"
     inkscape:window-x="0"
     inkscape:window-y="0"
     inkscape:window-maximized="1"
     inkscape:current-layer="layer1" />
  <defs
     id="defs74498" />
  <g
     inkscape:label="Layer 1"
     inkscape:groupmode="layer"
     id="layer1">
    <path
       style="font-variation-settings:normal;vector-effect:none;fill:#f2cfa9;fill-opacity:1;fill-rule:evenodd;stroke:#000000;stroke-width:0.5;stroke-linecap:butt;stroke-linejoin:miter;stroke-miterlimit:4;stroke-dasharray:none;stroke-dashoffset:0;stroke-opacity:1;-inkscape-stroke:none;stop-color:#000000"
       d="m 52.820621,44.542128 c 0,0 8.415093,11.78899 10.066013,13.52859 0.48433,0.51034 0.69271,1.08464 0.5915,1.94982 -0.1012,0.86514 -1.47067,2.32612 -2.38656,1.7493 -0.91588,-0.57682 -11.577067,-13.01318 -11.577067,-13.01318"
       id="path3196-6-1-0-0"
       sodipodi:nodetypes="csssc" />
    <path
       style="font-variation-settings:normal;vector-effect:none;fill:#f2cfa9;fill-opacity:1;fill-rule:evenodd;stroke:#000000;stroke-width:0.5;stroke-linecap:butt;stroke-linejoin:miter;stroke-miterlimit:4;stroke-dasharray:none;stroke-dashoffset:0;stroke-opacity:1;-inkscape-stroke:none;stop-color:#000000"
       d="m 45.982553,64.723298 c 0,0 -0.954487,8.70541 0.450953,9.01773 1.405437,0.31232 1.918672,-0.75958 1.866619,-1.80065 -0.05205,-1.04107 -0.208215,-6.97514 -0.208215,-6.97514"
       id="path3198-0-0-8-5" />
    <path
       style="font-variation-settings:normal;vector-effect:none;fill:#f2cfa9;fill-opacity:1;fill-rule:evenodd;stroke:#000000;stroke-width:0.5;stroke-linecap:butt;stroke-linejoin:miter;stroke-miterlimit:4;stroke-dasharray:none;stroke-dashoffset:0;stroke-opacity:1;-inkscape-stroke:none;stop-color:#000000"
       d="m 37.216694,64.344938 c 0,0 -0.954488,8.70541 0.450952,9.01773 1.405438,0.31232 1.918673,-0.75958 1.86662,-1.80065 -0.05205,-1.04107 -0.208216,-6.97514 -0.208216,-6.97514"
       id="path3200-4-8-1-5" />
    <path
       style="fill:none;fill-rule:evenodd;stroke:#ff0000;stroke-width:0.5;stroke-linecap:butt;stroke-linejoin:miter;stroke-miterlimit:4;stroke-dasharray:none;stroke-opacity:1"
       d="m 28.976761,61.792128 c 2.03787,1.24106 3.510424,2.40847 7.601532,4.40657 4.091112,1.9981 8.023412,3.0175 10.21945,2.53432 4.937243,-1.08627 4.28975,-16.06081 5.738971,-22.62389 1.578671,-7.14932 10.46178,-12.42383 12.86068,-15.8209 2.63187,-3.72697 0.82785,-7.50036 0.34318,-8.16249 -0.48467,-0.66213 -5.06873,-0.41977 -7.6381,-1.56771 -2.569371,-1.14793 -6.962293,-4.84722 -6.962293,-4.84722 0,0 -15.32521,1.40079 -16.127826,14.73179 -0.48376,8.03501 -1.078423,13.78578 -2.721113,19.45927 -1.642692,5.6735 -4.333423,11.26974 -3.314481,11.89026 z"
       id="path1011-5-8-5-3-2"
       sodipodi:nodetypes="ssssssscsss" />
    <path
       id="path1757-7-8-0-1-9"
       style="font-variation-settings:normal;vector-effect:none;fill:none;fill-opacity:1;fill-rule:evenodd;stroke:#ff0000;stroke-width:0.499999;stroke-linecap:butt;stroke-linejoin:miter;stroke-miterlimit:4;stroke-dasharray:none;stroke-dashoffset:0;stroke-opacity:1;-inkscape-stroke:none;stop-color:#000000"
       d="m 49.213676,5.980158 -0.793468,1.64921 -2.876486,-2.95725 -0.244818,1.59634 -5.40086,-2.71331 0.02396,2.54487 -8.04514,-1.51379 1.542542,3.12967 -8.667177,1.2735 1.584097,3.56818 -6.5603,0.74475 2.207312,3.59774 -6.938112,1.13197 2.958684,2.19592 -3.426976,1.21597 1.499346,2.69107 -5.512348,2.39924 4.119675,1.37545 -6.1177546,2.71598 2.5477256,1.61515 -4.0932946,3.49557 3.3550526,1.71451 -4.6259166,2.84248 2.448562,2.422 -4.858104,3.83511 4.898096,2.09773 -1.162822,3.5675 5.3806746,-0.25262 -1.148714,4.62949 5.592144,1.94193 4.602643,-0.49132 2.306675,2.79043 5.168405,0.95864 c -1.018949,-0.62053 1.671398,-6.21695 3.314091,-11.89045 1.642695,-5.6735 2.237534,-11.42431 2.721296,-19.45932 0.802615,-13.33101 16.127986,-14.73182 16.127986,-14.73182 0,0 0.08279,-2.33893 1.401912,-3.41617 1.319124,-1.07724 2.385016,-2.19866 2.385016,-2.19866 l -3.207994,-0.24137 0.33108,-2.31069 -1.411049,1.18655 z" />
    <circle
       id="path1912-4-8-6-1-0"
       style="fill:#000000;stroke:#ff0000;stroke-width:0.264583"
       cx="44.050545"
       cy="2.2770023"
       r="0.017413737"
       transform="rotate(21.061142)" />
    <path
       style="font-variation-settings:normal;vector-effect:none;fill:none;fill-opacity:1;fill-rule:evenodd;stroke:#ff0000;stroke-width:0.5;stroke-linecap:butt;stroke-linejoin:miter;stroke-miterlimit:4;stroke-dasharray:none;stroke-dashoffset:0;stroke-opacity:1;-inkscape-stroke:none;stop-color:#000000"
       d="m 40.026012,17.735938 c 0,0 0.334949,-6.71979 -5.785706,-2.82573 -5.534665,3.52124 0.960262,7.38564 0.874002,7.28514 1.108123,-3.008 2.763649,-4.44186 4.911704,-4.45941 z"
       id="path1949-1-9-4-0-2"
       sodipodi:nodetypes="cscc" />
    <path
       style="font-variation-settings:normal;vector-effect:none;fill:none;fill-opacity:1;fill-rule:evenodd;stroke:#ff0000;stroke-width:0.5;stroke-linecap:butt;stroke-linejoin:miter;stroke-miterlimit:4;stroke-dasharray:none;stroke-dashoffset:0;stroke-opacity:1;-inkscape-stroke:none;stop-color:#000000"
       d="m 66.286814,29.024128 c -2.36941,2.67478 -4.59243,2.98046 -6.7338,1.96456"
       id="path2146-8-7-6-3-8"
       sodipodi:nodetypes="cc" />
    <ellipse
       style="color:#000000;font-variation-settings:normal;overflow:visible;vector-effect:none;fill:none;fill-opacity:1;fill-rule:evenodd;stroke:#ff0000;stroke-width:0.499999;stroke-linecap:butt;stroke-linejoin:miter;stroke-miterlimit:4;stroke-dasharray:none;stroke-dashoffset:0;stroke-opacity:1;-inkscape-stroke:none;stop-color:#000000"
       id="path2369-5-7-2-4-3"
       cx="55.703636"
       cy="5.1442795"
       rx="2.8935738"
       ry="2.7889869"
       transform="rotate(21.061142)" />
    <ellipse
       style="color:#000000;font-variation-settings:normal;overflow:visible;vector-effect:none;fill:none;fill-opacity:1;fill-rule:evenodd;stroke:#ff0000;stroke-width:0.499999;stroke-linecap:butt;stroke-linejoin:miter;stroke-miterlimit:4;stroke-dasharray:none;stroke-dashoffset:0;stroke-opacity:1;-inkscape-stroke:none;stop-color:#000000"
       id="path2369-5-3-6-5-0-8"
       cx="56.35508"
       cy="4.3801804"
       rx="1.1097133"
       ry="1.0696032"
       transform="rotate(21.061142)" />
    <path
       style="font-variation-settings:normal;vector-effect:none;fill:none;fill-opacity:1;fill-rule:evenodd;stroke:#ff0000;stroke-width:0.5;stroke-linecap:butt;stroke-linejoin:miter;stroke-miterlimit:4;stroke-dasharray:none;stroke-dashoffset:0;stroke-opacity:1;-inkscape-stroke:none;stop-color:#000000"
       d="m 46.639676,19.503118 3.524512,-0.80951"
       id="path2404-9-4-8-3-0" />
    <path
       style="font-variation-settings:normal;vector-effect:none;fill:none;fill-opacity:1;fill-rule:evenodd;stroke:#ff0000;stroke-width:0.5;stroke-linecap:butt;stroke-linejoin:miter;stroke-miterlimit:4;stroke-dasharray:none;stroke-dashoffset:0;stroke-opacity:1;-inkscape-stroke:none;stop-color:#000000"
       d="m 38.960931,36.645588 c 0,0 2.078204,1.68343 2.703907,1.74725 0.625706,0.0638 3.242383,0.30746 3.242383,0.30746 0,0 1.904719,0.0984 1.924323,1.11461 0.0196,1.01623 -1.704928,3.09457 -1.704928,3.09457 0,0 -1.975255,1.10858 -3.984849,0.40942 -2.009586,-0.69918 -3.345691,-1.88612 -3.345691,-1.88612"
       id="path2482-7-3-6-9-4" />
    <path
       style="font-variation-settings:normal;vector-effect:none;fill:none;fill-opacity:1;fill-rule:evenodd;stroke:#ff0000;stroke-width:0.5;stroke-linecap:butt;stroke-linejoin:miter;stroke-miterlimit:4;stroke-dasharray:none;stroke-dashoffset:0;stroke-opacity:1;-inkscape-stroke:none;stop-color:#000000"
       d="m 62.306444,21.482788 c 0,0 0.24611,-1.99726 1.51269,-2.18196 1.26659,-0.1847 2.45537,0.12365 2.81546,0.93476 0.36009,0.81112 0.85526,1.37736 0.17165,2.08542 -0.6836,0.70806 -0.76815,0.46868 -0.76815,0.46868 z"
       id="path2926-8-0-2-1-0" />
    <path
       style="fill:#f2cfa9;fill-opacity:1;fill-rule:evenodd;stroke:#000000;stroke-width:0.5;stroke-linecap:butt;stroke-linejoin:miter;stroke-miterlimit:4;stroke-dasharray:none;stroke-opacity:1"
       d="m 28.976761,61.792128 c 2.03787,1.24106 3.510424,2.40847 7.601532,4.40657 4.091112,1.9981 8.023412,3.0175 10.21945,2.53432 4.937243,-1.08627 4.28975,-16.06081 5.738971,-22.62389 1.578671,-7.14932 10.46178,-12.42383 12.86068,-15.8209 2.63187,-3.72697 0.82785,-7.50036 0.34318,-8.16249 -0.48467,-0.66213 -5.06873,-0.41977 -7.6381,-1.56771 -2.569371,-1.14793 -6.962293,-4.84722 -6.962293,-4.84722 0,0 -15.32521,1.40079 -16.127826,14.73179 -0.48376,8.03501 -1.078423,13.78578 -2.721113,19.45927 -1.642692,5.6735 -4.333423,11.26974 -3.314481,11.89026 z"
       id="path3178-3-8-9-9"
       sodipodi:nodetypes="ssssssscsss" />
    <path
       id="path3180-0-4-6-1"
       style="font-variation-settings:normal;vector-effect:none;fill:#8c634a;fill-opacity:1;fill-rule:evenodd;stroke:#000000;stroke-width:0.499999;stroke-linecap:butt;stroke-linejoin:miter;stroke-miterlimit:4;stroke-dasharray:none;stroke-dashoffset:0;stroke-opacity:1;-inkscape-stroke:none;stop-color:#000000"
       d="m 49.213676,5.980158 -0.793468,1.64921 -2.876486,-2.95725 -0.244818,1.59634 -5.40086,-2.71331 0.02396,2.54487 -8.04514,-1.51379 1.542542,3.12967 -8.667177,1.2735 1.584097,3.56818 -6.5603,0.74475 2.207312,3.59774 -6.938112,1.13197 2.958684,2.19592 -3.426976,1.21597 1.499346,2.69107 -5.512348,2.39924 4.119675,1.37545 -6.1177546,2.71598 2.5477256,1.61515 -4.0932946,3.49557 3.3550526,1.71451 -4.6259166,2.84248 2.448562,2.422 -4.858104,3.83511 4.898096,2.09773 -1.162822,3.5675 5.3806746,-0.25262 -1.148714,4.62949 5.592144,1.94193 4.602643,-0.49132 2.306675,2.79043 5.168405,0.95864 c -1.018949,-0.62053 1.671398,-6.21695 3.314091,-11.89045 1.642695,-5.6735 2.237534,-11.42431 2.721296,-19.45932 0.802615,-13.33101 16.127986,-14.73182 16.127986,-14.73182 0,0 0.08279,-2.33893 1.401912,-3.41617 1.319124,-1.07724 2.385016,-2.19866 2.385016,-2.19866 l -3.207994,-0.24137 0.33108,-2.31069 -1.411049,1.18655 z" />
    <circle
       id="circle3182-9-7-9-9"
       style="fill:#000000;stroke:#000000;stroke-width:0.264583"
       cx="44.050545"
       cy="2.2770023"
       r="0.017413737"
       transform="rotate(21.061142)" />
    <path
       style="font-variation-settings:normal;vector-effect:none;fill:#f2cfa9;fill-opacity:1;fill-rule:evenodd;stroke:#000000;stroke-width:0.5;stroke-linecap:butt;stroke-linejoin:miter;stroke-miterlimit:4;stroke-dasharray:none;stroke-dashoffset:0;stroke-opacity:1;-inkscape-stroke:none;stop-color:#000000"
       d="m 40.026012,17.735938 c 0,0 0.334949,-6.71979 -5.785706,-2.82573 -5.534665,3.52124 0.960262,7.38564 0.874002,7.28514 1.108123,-3.008 2.763649,-4.44186 4.911704,-4.45941 z"
       id="path3184-2-2-3-6"
       sodipodi:nodetypes="cscc" />
    <path
       style="font-variation-settings:normal;vector-effect:none;fill:none;fill-opacity:1;fill-rule:evenodd;stroke:#000000;stroke-width:0.5;stroke-linecap:butt;stroke-linejoin:miter;stroke-miterlimit:4;stroke-dasharray:none;stroke-dashoffset:0;stroke-opacity:1;-inkscape-stroke:none;stop-color:#000000"
       d="m 66.286814,29.024128 c -2.36941,2.67478 -4.59243,2.98046 -6.7338,1.96456"
       id="path3186-5-4-3-2"
       sodipodi:nodetypes="cc" />
    <ellipse
       style="color:#000000;font-variation-settings:normal;overflow:visible;vector-effect:none;fill:#000000;fill-opacity:1;fill-rule:evenodd;stroke:#000000;stroke-width:0.499999;stroke-linecap:butt;stroke-linejoin:miter;stroke-miterlimit:4;stroke-dasharray:none;stroke-dashoffset:0;stroke-opacity:1;-inkscape-stroke:none;stop-color:#000000"
       id="ellipse3188-4-0-8-5"
       cx="55.703636"
       cy="5.1442795"
       rx="2.8935738"
       ry="2.7889869"
       transform="rotate(21.061142)" />
    <ellipse
       style="color:#000000;font-variation-settings:normal;overflow:visible;vector-effect:none;fill:#ffffff;fill-opacity:1;fill-rule:evenodd;stroke:#ffffff;stroke-width:0.499999;stroke-linecap:butt;stroke-linejoin:miter;stroke-miterlimit:4;stroke-dasharray:none;stroke-dashoffset:0;stroke-opacity:1;-inkscape-stroke:none;stop-color:#000000"
       id="ellipse3190-0-6-0-4"
       cx="56.35508"
       cy="4.3801804"
       rx="1.1097133"
       ry="1.0696032"
       transform="rotate(21.061142)" />
    <path
       style="font-variation-settings:normal;vector-effect:none;fill:none;fill-opacity:1;fill-rule:evenodd;stroke:#000000;stroke-width:0.5;stroke-linecap:butt;stroke-linejoin:miter;stroke-miterlimit:4;stroke-dasharray:none;stroke-dashoffset:0;stroke-opacity:1;-inkscape-stroke:none;stop-color:#000000"
       d="m 46.639676,19.503118 3.524512,-0.80951"
       id="path3192-5-2-5-4" />
    <path
       style="font-variation-settings:normal;vector-effect:none;fill:#f2cfa9;fill-opacity:1;fill-rule:evenodd;stroke:#000000;stroke-width:0.5;stroke-linecap:butt;stroke-linejoin:miter;stroke-miterlimit:4;stroke-dasharray:none;stroke-dashoffset:0;stroke-opacity:1;-inkscape-stroke:none;stop-color:#000000"
       d="m 38.960931,36.645588 c 0,0 2.078204,1.68343 2.703907,1.74725 0.625706,0.0638 3.242383,0.30746 3.242383,0.30746 0,0 1.904719,0.0984 1.924323,1.11461 0.0196,1.01623 -0.554363,1.8594 -1.602052,2.55303 -1.04769,0.69364 -2.078131,1.65012 -4.087725,0.95096 -2.009586,-0.69918 -3.34569,-1.88612 -3.34569,-1.88612"
       id="path3194-9-9-6-9"
       sodipodi:nodetypes="cscszsc" />
    <path
       style="font-variation-settings:normal;vector-effect:none;fill:#000000;fill-opacity:1;fill-rule:evenodd;stroke:#000000;stroke-width:0.5;stroke-linecap:butt;stroke-linejoin:miter;stroke-miterlimit:4;stroke-dasharray:none;stroke-dashoffset:0;stroke-opacity:1;-inkscape-stroke:none;stop-color:#000000"
       d="m 62.306444,21.482788 c 0,0 0.24611,-1.99726 1.51269,-2.18196 1.26659,-0.1847 2.45537,0.12365 2.81546,0.93476 0.36009,0.81112 0.85526,1.37736 0.17165,2.08542 -0.6836,0.70806 -0.76815,0.46868 -0.76815,0.46868 z"
       id="path3202-4-9-6-9" />
  </g>
</svg>
