<?xml version="1.0" encoding="UTF-8" standalone="no"?>
<!-- Created with Inkscape (http://www.inkscape.org/) -->

<svg
   width="70mm"
   height="80mm"
   viewBox="0 0 70 80"
   version="1.1"
   id="svg74501"
   inkscape:version="1.1 (c4e8f9e, 2021-05-24)"
   sodipodi:docname="hedgehog_right_up.svg"
   xmlns:inkscape="http://www.inkscape.org/namespaces/inkscape"
   xmlns:sodipodi="http://sodipodi.sourceforge.net/DTD/sodipodi-0.dtd"
   xmlns="http://www.w3.org/2000/svg"
   xmlns:svg="http://www.w3.org/2000/svg">
  <sodipodi:namedview
     id="namedview74503"
     pagecolor="#ffffff"
     bordercolor="#999999"
     borderopacity="1"
     inkscape:pageshadow="0"
     inkscape:pageopacity="0"
     inkscape:pagecheckerboard="0"
     inkscape:document-units="mm"
     showgrid="false"
     inkscape:zoom="1.3416246"
     inkscape:cx="205.34806"
     inkscape:cy="122.23986"
     inkscape:window-width="1920"
     inkscape:window-height="1027"
     inkscape:window-x="0"
     inkscape:window-y="0"
     inkscape:window-maximized="1"
     inkscape:current-layer="layer1" />
  <defs
     id="defs74498" />
  <g
     inkscape:label="Layer 1"
     inkscape:groupmode="layer"
     id="layer1">
    <path
       style="font-variation-settings:normal;vector-effect:none;fill:#f2cfa9;fill-opacity:1;fill-rule:evenodd;stroke:#000000;stroke-width:0.5;stroke-linecap:butt;stroke-linejoin:miter;stroke-miterlimit:4;stroke-dasharray:none;stroke-dashoffset:0;stroke-opacity:1;-inkscape-stroke:none;stop-color:#000000"
       d="m 49.931217,34.461626 c 0,0 15.412177,-2.0758 16.039697,-2.70332 0.62752,-0.62753 1.19275,-0.10459 1.6111,0.45321 0.41834,0.55779 0.14751,2.67537 -0.93322,3.26803 -1.08073,0.59265 -16.973402,4.45863 -16.973402,4.45863"
       id="path3196-6"
       sodipodi:nodetypes="csssc" />
    <path
       style="font-variation-settings:normal;vector-effect:none;fill:#f2cfa9;fill-opacity:1;fill-rule:evenodd;stroke:#000000;stroke-width:0.5;stroke-linecap:butt;stroke-linejoin:miter;stroke-miterlimit:4;stroke-dasharray:none;stroke-dashoffset:0;stroke-opacity:1;-inkscape-stroke:none;stop-color:#000000"
       d="m 48.505849,64.528526 c 0,0 -0.954488,8.70541 0.450952,9.01773 1.405437,0.31232 1.918673,-0.75958 1.86662,-1.80065 -0.05205,-1.04107 -0.208216,-6.97514 -0.208216,-6.97514"
       id="path3198-0" />
    <path
       style="font-variation-settings:normal;vector-effect:none;fill:#f2cfa9;fill-opacity:1;fill-rule:evenodd;stroke:#000000;stroke-width:0.5;stroke-linecap:butt;stroke-linejoin:miter;stroke-miterlimit:4;stroke-dasharray:none;stroke-dashoffset:0;stroke-opacity:1;-inkscape-stroke:none;stop-color:#000000"
       d="m 39.73999,64.150166 c 0,0 -0.954488,8.70541 0.450952,9.01773 1.405437,0.31232 1.918673,-0.75958 1.86662,-1.80065 -0.05205,-1.04107 -0.208216,-6.97514 -0.208216,-6.97514"
       id="path3200-4" />
    <path
       style="fill:none;fill-rule:evenodd;stroke:#ff0000;stroke-width:0.5;stroke-linecap:butt;stroke-linejoin:miter;stroke-miterlimit:4;stroke-dasharray:none;stroke-opacity:1"
       d="m 35.104454,65.117906 c 2.347728,0.42582 4.141436,0.98606 8.677291,1.38048 4.535858,0.39442 8.571809,-0.0674 10.447509,-1.30748 4.217058,-2.78797 -1.768493,-16.52949 -2.774619,-23.17494 -1.095994,-7.23904 5.298225,-15.35347 6.316094,-19.38569 1.116717,-4.4238 -1.922809,-7.29681 -2.613049,-7.74054 -0.69024,-0.44372 -4.880975,1.42979 -7.691234,1.28188 -2.810258,-0.14791 -8.239114,-2.02142 -8.239114,-2.02142 0,0 -13.798054,6.81454 -9.75637,19.54343 2.43605,7.6721 3.94773,13.2524 4.453624,19.13721 0.505895,5.88482 0.006,12.07417 1.179868,12.28707 z"
       id="path1011-5-8"
       sodipodi:nodetypes="ssssssscsss" />
    <path
       id="path1757-7-8"
       style="font-variation-settings:normal;vector-effect:none;fill:none;fill-opacity:1;fill-rule:evenodd;stroke:#ff0000;stroke-width:0.499999;stroke-linecap:butt;stroke-linejoin:miter;stroke-miterlimit:4;stroke-dasharray:none;stroke-dashoffset:0;stroke-opacity:1;-inkscape-stroke:none;stop-color:#000000"
       d="m 33.932678,5.7618964 -0.147796,1.82418 -3.747058,-1.72599 0.345199,1.57768 -6.015135,-0.59118 0.936892,2.36626 -8.051705,1.4784696 2.564186,2.36626 -7.630541,4.3031 2.760554,2.76055 -5.8544233,3.05253 3.3527663,2.56418 -6.0678463,3.54966 3.550171,0.98598 -2.761072,2.36627 2.366264,1.97249 -4.281909,4.2199 4.338753,-0.19689 -4.733045,4.73304 2.95796,0.5917 -2.563668,4.73304 3.747058,0.39429 -3.295406,4.31498 3.155363,1.38028 -3.155363,5.32474 5.3247403,0.1974 0.196887,3.74706 4.930447,-2.16937 0.591696,4.73304 5.916435,-0.19741 4.11861,-2.11253 3.155365,1.77509 5.167643,-0.96274 c -1.173869,-0.2129 -0.674396,-6.40228 -1.18029,-12.2871 -0.505894,-5.88482 -2.017427,-11.46523 -4.453475,-19.13733 -4.041685,-12.72889 9.756511,-19.54351 9.756511,-19.54351 0,0 -0.763268,-2.21244 0.08061,-3.69176 0.843883,-1.4793196 1.435574,-2.9088696 1.435574,-2.9088696 l -3.080433,0.92759 -0.521417,-2.27531 -0.890384,1.61437 z" />
    <circle
       id="path1912-4-8"
       style="fill:#000000;stroke:#ff0000;stroke-width:0.264583"
       cx="29.908087"
       cy="20.143856"
       r="0.017413737" />
    <path
       style="font-variation-settings:normal;vector-effect:none;fill:none;fill-opacity:1;fill-rule:evenodd;stroke:#ff0000;stroke-width:0.5;stroke-linecap:butt;stroke-linejoin:miter;stroke-miterlimit:4;stroke-dasharray:none;stroke-dashoffset:0;stroke-opacity:1;-inkscape-stroke:none;stop-color:#000000"
       d="m 29.583378,20.034076 c 0,0 -2.102278,-6.39126 -6.414672,-0.55779 -3.89953,5.27497 3.550248,6.54718 3.433633,6.48439 -0.04687,-3.20528 0.982785,-5.13829 2.981039,-5.9266 z"
       id="path1949-1-9"
       sodipodi:nodetypes="cscc" />
    <path
       style="font-variation-settings:normal;vector-effect:none;fill:none;fill-opacity:1;fill-rule:evenodd;stroke:#ff0000;stroke-width:0.5;stroke-linecap:butt;stroke-linejoin:miter;stroke-miterlimit:4;stroke-dasharray:none;stroke-dashoffset:0;stroke-opacity:1;-inkscape-stroke:none;stop-color:#000000"
       d="m 58.146456,21.130996 c -1.249901,3.34758 -3.214574,4.43172 -5.577975,4.25321"
       id="path2146-8-7"
       sodipodi:nodetypes="cc" />
    <ellipse
       style="color:#000000;font-variation-settings:normal;overflow:visible;vector-effect:none;fill:none;fill-opacity:1;fill-rule:evenodd;stroke:#ff0000;stroke-width:0.499999;stroke-linecap:butt;stroke-linejoin:miter;stroke-miterlimit:4;stroke-dasharray:none;stroke-dashoffset:0;stroke-opacity:1;-inkscape-stroke:none;stop-color:#000000"
       id="path2369-5-7"
       cx="41.561165"
       cy="23.011135"
       rx="2.8935738"
       ry="2.7889869" />
    <ellipse
       style="color:#000000;font-variation-settings:normal;overflow:visible;vector-effect:none;fill:none;fill-opacity:1;fill-rule:evenodd;stroke:#ff0000;stroke-width:0.499999;stroke-linecap:butt;stroke-linejoin:miter;stroke-miterlimit:4;stroke-dasharray:none;stroke-dashoffset:0;stroke-opacity:1;-inkscape-stroke:none;stop-color:#000000"
       id="path2369-5-3-6"
       cx="42.212624"
       cy="22.247036"
       rx="1.1097133"
       ry="1.0696032" />
    <path
       style="font-variation-settings:normal;vector-effect:none;fill:none;fill-opacity:1;fill-rule:evenodd;stroke:#ff0000;stroke-width:0.5;stroke-linecap:butt;stroke-linejoin:miter;stroke-miterlimit:4;stroke-dasharray:none;stroke-dashoffset:0;stroke-opacity:1;-inkscape-stroke:none;stop-color:#000000"
       d="m 36.39029,19.306486 2.99816,-2.02201"
       id="path2404-9-4" />
    <path
       style="font-variation-settings:normal;vector-effect:none;fill:none;fill-opacity:1;fill-rule:evenodd;stroke:#ff0000;stroke-width:0.5;stroke-linecap:butt;stroke-linejoin:miter;stroke-miterlimit:4;stroke-dasharray:none;stroke-dashoffset:0;stroke-opacity:1;-inkscape-stroke:none;stop-color:#000000"
       d="m 35.384894,38.063266 c 0,0 2.544337,0.82414 3.151177,0.65884 0.606843,-0.1653 3.136276,-0.87827 3.136276,-0.87827 0,0 1.81284,-0.59266 2.196324,0.34862 0.383487,0.94129 -0.478959,3.50053 -0.478959,3.50053 0,0 -1.444919,1.74436 -3.57152,1.81408 -2.126602,0.0697 -3.799994,-0.5578 -3.799994,-0.5578"
       id="path2482-7-3" />
    <path
       style="font-variation-settings:normal;vector-effect:none;fill:none;fill-opacity:1;fill-rule:evenodd;stroke:#ff0000;stroke-width:0.5;stroke-linecap:butt;stroke-linejoin:miter;stroke-miterlimit:4;stroke-dasharray:none;stroke-dashoffset:0;stroke-opacity:1;-inkscape-stroke:none;stop-color:#000000"
       d="m 51.721904,15.523846 c 0,0 -0.488072,-1.95229 0.627523,-2.57981 1.115594,-0.62753 2.335776,-0.76698 2.963299,-0.13946 0.627523,0.62753 1.293093,0.978 0.909606,1.88442 -0.383485,0.90642 -0.548413,0.71342 -0.548413,0.71342 z"
       id="path2926-8-0" />
    <path
       style="fill:#f2cfa9;fill-opacity:1;fill-rule:evenodd;stroke:#000000;stroke-width:0.5;stroke-linecap:butt;stroke-linejoin:miter;stroke-miterlimit:4;stroke-dasharray:none;stroke-opacity:1"
       d="m 35.104454,65.117906 c 2.347728,0.42582 4.141436,0.98606 8.677291,1.38048 4.535858,0.39442 8.571809,-0.0674 10.447509,-1.30748 4.217058,-2.78797 -1.768493,-16.52949 -2.774619,-23.17494 -1.095994,-7.23904 5.298225,-15.35347 6.316094,-19.38569 1.116717,-4.4238 -1.922809,-7.29681 -2.613049,-7.74054 -0.69024,-0.44372 -4.880975,1.42979 -7.691234,1.28188 -2.810258,-0.14791 -8.239114,-2.02142 -8.239114,-2.02142 0,0 -13.798054,6.81454 -9.75637,19.54343 2.43605,7.6721 3.94773,13.2524 4.453624,19.13721 0.505895,5.88482 0.006,12.07417 1.179868,12.28707 z"
       id="path3178-3"
       sodipodi:nodetypes="ssssssscsss" />
    <path
       id="path3180-0"
       style="font-variation-settings:normal;vector-effect:none;fill:#8c634a;fill-opacity:1;fill-rule:evenodd;stroke:#000000;stroke-width:0.499999;stroke-linecap:butt;stroke-linejoin:miter;stroke-miterlimit:4;stroke-dasharray:none;stroke-dashoffset:0;stroke-opacity:1;-inkscape-stroke:none;stop-color:#000000"
       d="m 33.932678,5.7618964 -0.147796,1.82418 -3.747058,-1.72599 0.345199,1.57768 -6.015135,-0.59118 0.936892,2.36626 -8.051705,1.4784696 2.564186,2.36626 -7.630541,4.3031 2.760554,2.76055 -5.8544233,3.05253 3.3527663,2.56418 -6.0678463,3.54966 3.550171,0.98598 -2.761072,2.36627 2.366264,1.97249 -4.281909,4.2199 4.338753,-0.19689 -4.733045,4.73304 2.95796,0.5917 -2.563668,4.73304 3.747058,0.39429 -3.295406,4.31498 3.155363,1.38028 -3.155363,5.32474 5.3247403,0.1974 0.196887,3.74706 4.930447,-2.16937 0.591696,4.73304 5.916435,-0.19741 4.11861,-2.11253 3.155365,1.77509 5.167643,-0.96274 c -1.173869,-0.2129 -0.674396,-6.40228 -1.18029,-12.2871 -0.505894,-5.88482 -2.017427,-11.46523 -4.453475,-19.13733 -4.041685,-12.72889 9.756511,-19.54351 9.756511,-19.54351 0,0 -0.763268,-2.21244 0.08061,-3.69176 0.843883,-1.4793196 1.435574,-2.9088696 1.435574,-2.9088696 l -3.080433,0.92759 -0.521417,-2.27531 -0.890384,1.61437 z" />
    <circle
       id="circle3182-9"
       style="fill:#000000;stroke:#000000;stroke-width:0.264583"
       cx="29.908087"
       cy="20.143856"
       r="0.017413737" />
    <path
       style="font-variation-settings:normal;vector-effect:none;fill:#f2cfa9;fill-opacity:1;fill-rule:evenodd;stroke:#000000;stroke-width:0.5;stroke-linecap:butt;stroke-linejoin:miter;stroke-miterlimit:4;stroke-dasharray:none;stroke-dashoffset:0;stroke-opacity:1;-inkscape-stroke:none;stop-color:#000000"
       d="m 29.583378,20.034076 c 0,0 -2.102278,-6.39126 -6.414672,-0.55779 -3.89953,5.27497 3.550248,6.54718 3.433633,6.48439 -0.04687,-3.20528 0.982785,-5.13829 2.981039,-5.9266 z"
       id="path3184-2"
       sodipodi:nodetypes="cscc" />
    <path
       style="font-variation-settings:normal;vector-effect:none;fill:none;fill-opacity:1;fill-rule:evenodd;stroke:#000000;stroke-width:0.5;stroke-linecap:butt;stroke-linejoin:miter;stroke-miterlimit:4;stroke-dasharray:none;stroke-dashoffset:0;stroke-opacity:1;-inkscape-stroke:none;stop-color:#000000"
       d="m 58.146456,21.130996 c -1.249901,3.34758 -3.214574,4.43172 -5.577975,4.25321"
       id="path3186-5"
       sodipodi:nodetypes="cc" />
    <ellipse
       style="color:#000000;font-variation-settings:normal;overflow:visible;vector-effect:none;fill:#000000;fill-opacity:1;fill-rule:evenodd;stroke:#000000;stroke-width:0.499999;stroke-linecap:butt;stroke-linejoin:miter;stroke-miterlimit:4;stroke-dasharray:none;stroke-dashoffset:0;stroke-opacity:1;-inkscape-stroke:none;stop-color:#000000"
       id="ellipse3188-4"
       cx="41.561165"
       cy="23.011135"
       rx="2.8935738"
       ry="2.7889869" />
    <ellipse
       style="color:#000000;font-variation-settings:normal;overflow:visible;vector-effect:none;fill:#ffffff;fill-opacity:1;fill-rule:evenodd;stroke:#ffffff;stroke-width:0.499999;stroke-linecap:butt;stroke-linejoin:miter;stroke-miterlimit:4;stroke-dasharray:none;stroke-dashoffset:0;stroke-opacity:1;-inkscape-stroke:none;stop-color:#000000"
       id="ellipse3190-0"
       cx="42.212624"
       cy="22.247036"
       rx="1.1097133"
       ry="1.0696032" />
    <path
       style="font-variation-settings:normal;vector-effect:none;fill:none;fill-opacity:1;fill-rule:evenodd;stroke:#000000;stroke-width:0.5;stroke-linecap:butt;stroke-linejoin:miter;stroke-miterlimit:4;stroke-dasharray:none;stroke-dashoffset:0;stroke-opacity:1;-inkscape-stroke:none;stop-color:#000000"
       d="m 36.39029,19.306486 2.99816,-2.02201"
       id="path3192-5" />
    <path
       style="font-variation-settings:normal;vector-effect:none;fill:#f2cfa9;fill-opacity:1;fill-rule:evenodd;stroke:#000000;stroke-width:0.5;stroke-linecap:butt;stroke-linejoin:miter;stroke-miterlimit:4;stroke-dasharray:none;stroke-dashoffset:0;stroke-opacity:1;-inkscape-stroke:none;stop-color:#000000"
       d="m 35.384894,38.063266 c 0,0 2.544337,0.82414 3.151177,0.65884 0.606843,-0.1653 3.136276,-0.87827 3.136276,-0.87827 0,0 1.81284,-0.59266 2.196324,0.34862 0.383487,0.94129 0.150869,1.9344 -0.577564,2.9582 -0.728434,1.0238 -1.346314,2.28669 -3.472915,2.35641 -2.126602,0.0697 -3.799994,-0.5578 -3.799994,-0.5578"
       id="path3194-9"
       sodipodi:nodetypes="cscszsc" />
    <path
       style="font-variation-settings:normal;vector-effect:none;fill:#000000;fill-opacity:1;fill-rule:evenodd;stroke:#000000;stroke-width:0.5;stroke-linecap:butt;stroke-linejoin:miter;stroke-miterlimit:4;stroke-dasharray:none;stroke-dashoffset:0;stroke-opacity:1;-inkscape-stroke:none;stop-color:#000000"
       d="m 51.721904,15.523846 c 0,0 -0.488072,-1.95229 0.627523,-2.57981 1.115594,-0.62753 2.335776,-0.76698 2.963299,-0.13946 0.627523,0.62753 1.293093,0.978 0.909606,1.88442 -0.383485,0.90642 -0.548413,0.71342 -0.548413,0.71342 z"
       id="path3202-4" />
  </g>
</svg>
