<?xml version="1.0" encoding="UTF-8" standalone="no"?>
<!-- Created with Inkscape (http://www.inkscape.org/) -->

<svg
   width="70mm"
   height="80mm"
   viewBox="0 0 70 80"
   version="1.1"
   id="svg74501"
   inkscape:version="1.1 (c4e8f9e, 2021-05-24)"
   sodipodi:docname="hedgehog_right_down.svg"
   xmlns:inkscape="http://www.inkscape.org/namespaces/inkscape"
   xmlns:sodipodi="http://sodipodi.sourceforge.net/DTD/sodipodi-0.dtd"
   xmlns="http://www.w3.org/2000/svg"
   xmlns:svg="http://www.w3.org/2000/svg">
  <sodipodi:namedview
     id="namedview74503"
     pagecolor="#ffffff"
     bordercolor="#999999"
     borderopacity="1"
     inkscape:pageshadow="0"
     inkscape:pageopacity="0"
     inkscape:pagecheckerboard="0"
     inkscape:document-units="mm"
     showgrid="false"
     inkscape:zoom="1.3416246"
     inkscape:cx="132.30228"
     inkscape:cy="156.52665"
     inkscape:window-width="1920"
     inkscape:window-height="1027"
     inkscape:window-x="0"
     inkscape:window-y="0"
     inkscape:window-maximized="1"
     inkscape:current-layer="layer1" />
  <defs
     id="defs74498" />
  <g
     inkscape:label="Layer 1"
     inkscape:groupmode="layer"
     id="layer1">
    <path
       style="font-variation-settings:normal;fill:#f2cfa9;fill-opacity:1;fill-rule:evenodd;stroke:#000000;stroke-width:0.941049;stroke-linecap:round;stroke-linejoin:miter;stroke-miterlimit:4;stroke-dasharray:none;stroke-dashoffset:0;stroke-opacity:1;stop-color:#000000"
       d="m 49.445912,52.628975 c 0,0 3.98396,3.15376 5.50789,3.68788 1.6106,0.56455 5.04581,1.4562 5.43629,-0.19491 0.36298,-1.53483 -3.12019,-1.80639 -4.51498,-3.03001 -1.39479,-1.22364 -3.99468,-3.94033 -3.99468,-3.94033"
       id="path72603-2-9-3-1-2-9-5"
       sodipodi:nodetypes="csssc" />
    <path
       style="font-variation-settings:normal;fill:#f2cfa9;fill-opacity:1;fill-rule:evenodd;stroke:#000000;stroke-width:1;stroke-linecap:butt;stroke-linejoin:miter;stroke-miterlimit:4;stroke-dasharray:none;stroke-dashoffset:0;stroke-opacity:1;stop-color:#000000"
       d="m 33.089751,64.337455 c 0,0 -4.06757,8.79404 -2.26408,9.82553 1.80349,1.03149 2.96926,-0.22638 3.34273,-1.6835 0.37348,-1.45712 1.725121,-6.90651 1.725121,-6.90651"
       id="path3198-0-9-9-0-0"
       sodipodi:nodetypes="cssc" />
    <path
       style="font-variation-settings:normal;fill:#f2cfa9;fill-opacity:1;fill-rule:evenodd;stroke:#000000;stroke-width:1;stroke-linecap:butt;stroke-linejoin:miter;stroke-miterlimit:4;stroke-dasharray:none;stroke-dashoffset:0;stroke-opacity:1;stop-color:#000000"
       d="m 22.028341,61.099005 c 0,0 -8.82409,4.00195 -8.13225,5.96102 0.69185,1.95905 2.39619,1.76806 3.63074,0.90867 1.23457,-0.85938 5.81749,-4.10277 5.81749,-4.10277"
       id="path3198-0-9-3-9-2-2"
       sodipodi:nodetypes="cssc" />
    <circle
       id="path1912-4-8-7-6-8-9"
       style="fill:#000000;stroke:#ff0000;stroke-width:0.264583"
       cx="43.852089"
       cy="7.448204"
       r="0.017413737"
       transform="rotate(19.84065)" />
    <path
       style="font-variation-settings:normal;vector-effect:none;fill:none;fill-opacity:1;fill-rule:evenodd;stroke:#ff0000;stroke-width:0.5;stroke-linecap:butt;stroke-linejoin:miter;stroke-miterlimit:4;stroke-dasharray:none;stroke-dashoffset:0;stroke-opacity:1;-inkscape-stroke:none;stop-color:#000000"
       d="m 38.452902,21.676265 c 0,0 0.19174,-6.72541 -5.844581,-2.70186 -5.45841,3.63833 1.11736,7.36352 1.02898,7.26487 1.0438,-3.03092 2.668411,-4.49973 4.815601,-4.56301 z"
       id="path1949-1-9-7-0-3-4"
       sodipodi:nodetypes="cscc" />
    <path
       style="font-variation-settings:normal;vector-effect:none;fill:none;fill-opacity:1;fill-rule:evenodd;stroke:#ff0000;stroke-width:0.5;stroke-linecap:butt;stroke-linejoin:miter;stroke-miterlimit:4;stroke-dasharray:none;stroke-dashoffset:0;stroke-opacity:1;-inkscape-stroke:none;stop-color:#000000"
       d="m 64.948182,32.402525 c -2.31189,2.72465 -4.52791,3.07761 -6.69043,2.10755"
       id="path2146-8-7-5-2-80-3"
       sodipodi:nodetypes="cc" />
    <path
       style="font-variation-settings:normal;vector-effect:none;fill:none;fill-opacity:1;fill-rule:evenodd;stroke:#ff0000;stroke-width:0.5;stroke-linecap:butt;stroke-linejoin:miter;stroke-miterlimit:4;stroke-dasharray:none;stroke-dashoffset:0;stroke-opacity:1;-inkscape-stroke:none;stop-color:#000000"
       d="m 37.790842,40.604305 c 0,0 2.11359,1.63878 2.74051,1.68926 0.62692,0.0505 3.2482,0.23833 3.2482,0.23833 0,0 1.90638,0.0578 1.94762,1.07337 0.0412,1.01558 -1.63862,3.13018 -1.63862,3.13018 0,0 -1.9512,1.1504 -3.97523,0.4942 -2.02402,-0.65621 -3.3851,-1.81442 -3.3851,-1.81442"
       id="path2482-7-3-2-3-1-4" />
    <path
       style="font-variation-settings:normal;vector-effect:none;fill:none;fill-opacity:1;fill-rule:evenodd;stroke:#ff0000;stroke-width:0.5;stroke-linecap:butt;stroke-linejoin:miter;stroke-miterlimit:4;stroke-dasharray:none;stroke-dashoffset:0;stroke-opacity:1;-inkscape-stroke:none;stop-color:#000000"
       d="m 60.808092,24.947695 c 0,0 0.20351,-2.00206 1.46587,-2.21369 1.26236,-0.21164 2.45744,0.0713 2.83473,0.87457 0.37729,0.80327 0.8844,1.35883 0.21603,2.08129 -0.66836,0.72245 -0.75799,0.48494 -0.75799,0.48494 z"
       id="path2926-8-0-8-2-9-3" />
    <path
       style="fill:#f2cfa9;fill-opacity:1;fill-rule:evenodd;stroke:#000000;stroke-width:1;stroke-linecap:butt;stroke-linejoin:miter;stroke-miterlimit:4;stroke-dasharray:none;stroke-opacity:1"
       d="m 28.344561,65.957795 c 2.06384,1.19738 3.33225,2.22346 7.983051,3.2362 4.45282,0.96964 6.11584,0.005 9.59699,-5.26551 2.78614,-4.21825 4.33142,-7.55949 5.64052,-14.15195 1.42603,-7.18132 10.19477,-12.64385 12.52078,-16.09125 2.55188,-3.78218 0.6679,-7.51628 0.16924,-8.16795 -0.49867,-0.65165 -5.07652,-0.31171 -7.66976,-1.40466 -2.59324,-1.09294 -7.06396,-4.69783 -7.06396,-4.69783 0,0 -15.291901,1.7269 -15.810381,15.07197 -0.31251,8.0435 -0.78454,13.80562 -2.30602,19.51283 -1.52147,5.70719 -4.09239,11.35947 -3.06046,11.95815 z"
       id="path3178-3-9-1-6-1"
       sodipodi:nodetypes="ssssssscsss" />
    <path
       id="path3180-0-3-5-2-4"
       style="font-variation-settings:normal;fill:#8c634a;fill-opacity:1;fill-rule:evenodd;stroke:#000000;stroke-width:1;stroke-linecap:round;stroke-linejoin:round;stroke-miterlimit:4;stroke-dasharray:none;stroke-dashoffset:0;stroke-opacity:1;stop-color:#000000"
       d="m 47.388082,9.727445 -0.75816,1.66574 -2.93882,-2.89531 -0.21076,1.60119 -5.45743,-2.59765 0.0782,2.54378 -8.075561,-1.34209 1.60886,3.09611 -8.63809,1.45782 1.65974,3.53363 -5.04529,1.86944 2.28345,3.54992 -6.91244,1.27949 3.00479,2.1324 -3.4003,1.2887 1.55633,2.65852 -5.45999,2.5161 4.14803,1.2874 -3.46618,3.26216 2.58155,1.56053 -2.89214,3.54343 3.39081,1.64265 -4.5643203,2.94037 2.4995903,2.36928 -4.7753023,3.93772 4.9416623,1.99293 -1.08657,3.59146 5.37407,-0.36718 -1.04984,4.65292 5.57138,-1.09045 -0.009,3.53252 3.75844,-0.0924 3.24035,1.10934 c -1.03193,-0.59868 1.53861,-6.25113 3.06008,-11.95834 1.52148,-5.7072 1.99369,-11.46938 2.3062,-19.51287 0.51848,-13.34508 15.810541,-15.072 15.810541,-15.072 0,0 0.0329,-2.34016 1.32882,-3.44525 1.29588,-1.10509 2.33764,-2.24896 2.33764,-2.24896 l -3.2124,-0.17299 0.28178,-2.31721 -1.38545,1.21634 z"
       sodipodi:nodetypes="cccccccccccccccccccccccccccccccccsscsccccc" />
    <circle
       id="circle3182-9-6-9-5-6"
       style="fill:#000000;stroke:#000000;stroke-width:0.264583"
       cx="43.852089"
       cy="7.448204"
       r="0.017413737"
       transform="rotate(19.84065)" />
    <path
       style="font-variation-settings:normal;fill:#f2cfa9;fill-opacity:1;fill-rule:evenodd;stroke:#000000;stroke-width:1;stroke-linecap:butt;stroke-linejoin:miter;stroke-miterlimit:4;stroke-dasharray:none;stroke-dashoffset:0;stroke-opacity:1;stop-color:#000000"
       d="m 38.452902,21.676265 c 0,0 0.19174,-6.72541 -5.844581,-2.70186 -5.45841,3.63833 1.11736,7.36352 1.02898,7.26487 1.0438,-3.03092 2.668411,-4.49973 4.815601,-4.56301 z"
       id="path3184-2-8-9-4-9"
       sodipodi:nodetypes="cscc" />
    <path
       style="font-variation-settings:normal;fill:none;fill-opacity:1;fill-rule:evenodd;stroke:#000000;stroke-width:1;stroke-linecap:round;stroke-linejoin:miter;stroke-miterlimit:4;stroke-dasharray:none;stroke-dashoffset:0;stroke-opacity:1;stop-color:#000000"
       d="m 57.178552,37.394465 c -2.9383,2.03344 -5.17016,1.80084 -7.00793,0.30412"
       id="path3186-5-0-1-4-4"
       sodipodi:nodetypes="cc" />
    <path
       style="font-variation-settings:normal;fill:none;fill-opacity:1;fill-rule:evenodd;stroke:#000000;stroke-width:1;stroke-linecap:round;stroke-linejoin:miter;stroke-miterlimit:4;stroke-dasharray:none;stroke-dashoffset:0;stroke-opacity:1;stop-color:#000000"
       d="m 45.102712,23.302165 c 1.09184,-0.94773 2.27736,-1.10086 3.50647,-0.8844"
       id="path3192-5-0-1-3-6"
       sodipodi:nodetypes="cc" />
    <path
       style="font-variation-settings:normal;vector-effect:none;fill:#000000;fill-opacity:1;fill-rule:evenodd;stroke:#000000;stroke-width:0.5;stroke-linecap:butt;stroke-linejoin:miter;stroke-miterlimit:4;stroke-dasharray:none;stroke-dashoffset:0;stroke-opacity:1;-inkscape-stroke:none;stop-color:#000000"
       d="m 60.808092,24.947695 c 0,0 0.20351,-2.00206 1.46587,-2.21369 1.26236,-0.21164 2.45744,0.0713 2.83473,0.87457 0.37729,0.80327 0.8844,1.35883 0.21603,2.08129 -0.66836,0.72245 -0.75799,0.48494 -0.75799,0.48494 z"
       id="path3202-4-1-0-6-4" />
    <path
       style="font-variation-settings:normal;fill:#f2cfa9;fill-opacity:1;fill-rule:evenodd;stroke:#000000;stroke-width:0.941049;stroke-linecap:round;stroke-linejoin:miter;stroke-miterlimit:4;stroke-dasharray:none;stroke-dashoffset:0;stroke-opacity:1;stop-color:#000000"
       d="m 37.019852,48.598005 c 0,0 3.45653,3.72432 4.88121,4.48455 1.50571,0.80346 4.76479,2.2085 5.40244,0.63622 0.59276,-1.46152 -2.8083,-2.26099 -4.00021,-3.68296 -1.1919,-1.42202 -3.34719,-4.50333 -3.34719,-4.50333"
       id="path72603-2-9-3-7-0-1"
       sodipodi:nodetypes="csssc" />
    <g
       id="g1667"
       transform="matrix(-0.78173331,-0.62361288,-0.62361288,0.78173331,95.041067,30.807804)">
      <ellipse
         style="color:#000000;font-variation-settings:normal;overflow:visible;fill:#ffffff;fill-opacity:1;fill-rule:evenodd;stroke:#000000;stroke-width:0.3;stroke-linecap:butt;stroke-linejoin:miter;stroke-miterlimit:4;stroke-dasharray:none;stroke-dashoffset:0;stroke-opacity:1;stop-color:#000000"
         id="ellipse3188-4-2-6-3-0-4-6-1"
         cx="-31.221277"
         cy="-35.111725"
         rx="2.7083616"
         ry="2.6104693"
         transform="rotate(165)" />
      <ellipse
         style="color:#000000;font-variation-settings:normal;overflow:visible;vector-effect:none;fill:#000000;fill-opacity:1;fill-rule:evenodd;stroke:#000000;stroke-width:0.700792;stroke-linecap:butt;stroke-linejoin:miter;stroke-miterlimit:4;stroke-dasharray:none;stroke-dashoffset:0;stroke-opacity:1;-inkscape-stroke:none;stop-color:#000000"
         id="ellipse3190-0-1-4-3-4-7-4"
         cx="-30.770903"
         cy="-34.999134"
         rx="1.5553625"
         ry="1.4991447"
         transform="rotate(165)" />
      <ellipse
         style="color:#000000;font-variation-settings:normal;overflow:visible;vector-effect:none;fill:#ffffff;fill-opacity:1;fill-rule:evenodd;stroke:#ffffff;stroke-width:0.218855;stroke-linecap:butt;stroke-linejoin:miter;stroke-miterlimit:4;stroke-dasharray:none;stroke-dashoffset:0;stroke-opacity:1;-inkscape-stroke:none;stop-color:#000000"
         id="ellipse3190-0-1-4-3-4-8-8-3"
         cx="43.121655"
         cy="-14.578093"
         rx="0.48573416"
         ry="0.46817756"
         transform="matrix(0.96592583,0.25881905,0.25881905,-0.96592583,0,0)" />
      <ellipse
         style="color:#000000;font-variation-settings:normal;overflow:visible;vector-effect:none;fill:#ffffff;fill-opacity:1;fill-rule:evenodd;stroke:#ffffff;stroke-width:0.0943935;stroke-linecap:butt;stroke-linejoin:miter;stroke-miterlimit:4;stroke-dasharray:none;stroke-dashoffset:0;stroke-opacity:1;-inkscape-stroke:none;stop-color:#000000"
         id="ellipse3190-0-1-4-3-4-8-8-9-3"
         cx="43.356518"
         cy="-15.712141"
         rx="0.20950049"
         ry="0.20192821"
         transform="matrix(0.96592583,0.25881905,0.25881905,-0.96592583,0,0)" />
    </g>
    <ellipse
       style="color:#000000;font-variation-settings:normal;overflow:visible;fill:#ff8080;fill-opacity:1;fill-rule:evenodd;stroke:#ff8080;stroke-width:1.29488;stroke-linecap:butt;stroke-linejoin:miter;stroke-miterlimit:4;stroke-dasharray:none;stroke-dashoffset:0;stroke-opacity:1;stop-color:#000000"
       id="path72356-4-5-8-4-9-7"
       cx="49.789875"
       cy="-12.919123"
       rx="1.0969627"
       ry="0.70086366"
       transform="matrix(0.65616555,0.75461697,-0.86535702,0.50115589,0,0)" />
  </g>
</svg>
