<?xml version="1.0" encoding="UTF-8" standalone="no"?>
<!-- Created with Inkscape (http://www.inkscape.org/) -->

<svg
   xmlns:dc="http://purl.org/dc/elements/1.1/"
   xmlns:cc="http://creativecommons.org/ns#"
   xmlns:rdf="http://www.w3.org/1999/02/22-rdf-syntax-ns#"
   xmlns:svg="http://www.w3.org/2000/svg"
   xmlns="http://www.w3.org/2000/svg"
   xmlns:sodipodi="http://sodipodi.sourceforge.net/DTD/sodipodi-0.dtd"
   xmlns:inkscape="http://www.inkscape.org/namespaces/inkscape"
   width="70mm"
   height="80mm"
   viewBox="0 0 70 80"
   version="1.1"
   id="svg74501"
   inkscape:version="0.92.5 (2060ec1f9f, 2020-04-08)"
   sodipodi:docname="hedgehog_box.svg">
  <metadata
     id="metadata21">
    <rdf:RDF>
      <cc:Work
         rdf:about="">
        <dc:format>image/svg+xml</dc:format>
        <dc:type
           rdf:resource="http://purl.org/dc/dcmitype/StillImage" />
        <dc:title></dc:title>
      </cc:Work>
    </rdf:RDF>
  </metadata>
  <sodipodi:namedview
     id="namedview74503"
     pagecolor="#ffffff"
     bordercolor="#999999"
     borderopacity="1"
     inkscape:pageshadow="0"
     inkscape:pageopacity="0"
     inkscape:pagecheckerboard="0"
     inkscape:document-units="mm"
     showgrid="false"
     inkscape:zoom="0.67081229"
     inkscape:cx="-162.77905"
     inkscape:cy="34.71393"
     inkscape:window-width="1920"
     inkscape:window-height="1009"
     inkscape:window-x="0"
     inkscape:window-y="0"
     inkscape:window-maximized="1"
     inkscape:current-layer="layer1" />
  <defs
     id="defs74498" />
  <g
     inkscape:label="Layer 1"
     inkscape:groupmode="layer"
     id="layer1">
    <path
       inkscape:connector-curvature="0"
       style="fill:#f2cfa9;fill-opacity:1;fill-rule:evenodd;stroke:#000000;stroke-width:1;stroke-linecap:butt;stroke-linejoin:miter;stroke-miterlimit:4;stroke-dasharray:none;stroke-dashoffset:0;stroke-opacity:1"
       d="m 32.776408,62.773837 c 0,0 1.278792,9.60442 -0.749372,10.05512 -2.028161,0.4507 -2.7688,-1.09613 -2.69368,-2.59848 0.0751,-1.50235 0.39908,-7.10751 0.39908,-7.10751"
       id="path3198-0-9-7-9"
       sodipodi:nodetypes="cssc" />
    <path
       inkscape:connector-curvature="0"
       style="fill:#f2cfa9;fill-opacity:1;fill-rule:evenodd;stroke:#000000;stroke-width:1;stroke-linecap:butt;stroke-linejoin:miter;stroke-miterlimit:4;stroke-dasharray:none;stroke-dashoffset:0;stroke-opacity:1"
       d="m 42.33763,62.202517 c 0,0 1.27879,9.60442 -0.74937,10.05512 -2.02815,0.4507 -2.76879,-1.09613 -2.69368,-2.59848 0.0751,-1.50235 0.39908,-7.10751 0.39908,-7.10751"
       id="path3198-0-9-3-5-6"
       sodipodi:nodetypes="cssc" />
    <path
       inkscape:connector-curvature="0"
       style="fill:#8c634a;fill-opacity:1;fill-rule:evenodd;stroke:#000000;stroke-width:1;stroke-linecap:butt;stroke-linejoin:round;stroke-miterlimit:4;stroke-dasharray:none;stroke-dashoffset:0;stroke-opacity:1"
       d="m 25.403436,63.114067 -3.236761,3.13708 -1.94138,-4.59514 -2.10179,1.30647 0.10214,-7.76174 -2.40549,0.77597 0.77596,-7.42678 -2.79347,-1.31916 0.71003,-7.118206 -1.62953,-3.427889 2.45185,-2.671601 -1.49135,-9.88719 4.60858,-0.69836 -1.62953,-7.68206 4.68221,1.08636 0.939191,-5.40229 3.334309,0.54481 0.387971,-4.0350217 3.05903,2.3120217 4.267814,-3.7246317 1.24153,2.79348 4.6204,-3.47349 1.70712,3.18144 4.81099,-1.39672 1.00875,3.5694317 4.89957,-0.23278 -0.15519,2.87106 4.81098,2.71588 -1.38515,3.24047 2.46466,4.09428 -1.27685,2.15861 1.96109,3.93197 -1.30404,1.60425 2.79348,4.73338 -2.2503,2.793481 2.01751,3.33665 -2.1727,1.939905 2.09511,3.18145 -2.3944,1.41505 1.46118,2.93552 -3.33664,1.47433 1.78472,3.49185 -4.26781,1.39673 z"
       id="path73016-0-5" />
    <path
       inkscape:connector-curvature="0"
       style="fill:#f2cfa9;fill-opacity:1;fill-rule:evenodd;stroke:#000000;stroke-width:1;stroke-linecap:butt;stroke-linejoin:miter;stroke-miterlimit:4;stroke-dasharray:none;stroke-dashoffset:0;stroke-opacity:1"
       d="m 26.709415,64.342477 c -4.45211,-3.20272 -5.59416,-7.9036 -5.59416,-15.47298 0,-7.569375 0.15827,-14.743605 1.53475,-20.530746 1.34464,-5.65323 5.12285,-10.91909 12.413145,-11.30822 5.815,-0.31038 10.73355,0.97878 12.85526,6.38699 1.47146,3.75073 3.28129,10.91264 2.81572,16.965169 -0.46558,6.052527 0.0507,12.620277 -1.35712,18.691827 -0.94277,4.0659 -7.75964,6.9837 -10.55311,7.29408 -2.79348,0.31038 -8.429765,0.62457 -12.114485,-2.02612 z"
       id="path71956-6-4"
       sodipodi:nodetypes="sssssssss" />
    <ellipse
       style="color:#000000;overflow:visible;fill:#000000;fill-opacity:1;fill-rule:evenodd;stroke:#000000;stroke-width:0.91495699;stroke-linecap:butt;stroke-linejoin:miter;stroke-miterlimit:4;stroke-dasharray:none;stroke-dashoffset:0;stroke-opacity:1"
       id="path72332-0-8"
       cx="36.437782"
       cy="28.576593"
       rx="0.98935527"
       ry="0.64017105" />
    <path
       inkscape:connector-curvature="0"
       style="fill:#f2cfa9;fill-opacity:1;fill-rule:evenodd;stroke:#000000;stroke-width:0.94104898;stroke-linecap:round;stroke-linejoin:miter;stroke-miterlimit:4;stroke-dasharray:none;stroke-dashoffset:0;stroke-opacity:1"
       d="m 47.57543,44.001057 c 0,0 -0.89218,5.0022 -1.67909,6.41232 -0.83167,1.49032 -2.81251,4.43514 -4.19939,3.45779 -1.2892,-0.90849 1.13866,-3.42082 1.3718,-5.26157 0.23312,-1.84076 0.37878,-5.598226 0.37878,-5.598226"
       id="path72603-2-9"
       sodipodi:nodetypes="csssc" />
    <path
       inkscape:connector-curvature="0"
       style="fill:#f2cfa9;fill-opacity:1;fill-rule:evenodd;stroke:#000000;stroke-width:0.90291703;stroke-linecap:round;stroke-linejoin:miter;stroke-miterlimit:4;stroke-dasharray:none;stroke-dashoffset:0;stroke-opacity:1"
       d="m 24.634095,44.659837 c 0,0 0.89754,4.5774 1.6892,5.86776 0.836701,1.36375 2.829501,4.05848 4.224751,3.16413 1.29699,-0.83133 -1.14552,-3.1303 -1.38008,-4.81473 -0.234531,-1.68442 -0.38105,-5.12279 -0.38105,-5.12279"
       id="path72603-6-2-7"
       sodipodi:nodetypes="csssc" />
    <path
       inkscape:connector-curvature="0"
       style="fill:#f2cfa9;fill-opacity:1;fill-rule:evenodd;stroke:#000000;stroke-width:1;stroke-linecap:round;stroke-linejoin:round;stroke-miterlimit:4;stroke-dasharray:none;stroke-dashoffset:0;stroke-opacity:1"
       d="m 33.8779,31.972351 c 0,0 0.42878,1.67218 2.40991,1.655619 1.24194,-0.0104 2.39638,-0.390379 2.78437,-1.554318"
       id="path72451-3"
       sodipodi:nodetypes="csc" />
    <ellipse
       style="color:#000000;overflow:visible;fill:#ff8080;fill-opacity:1;fill-rule:evenodd;stroke:#ff8080;stroke-width:1.29488003;stroke-linecap:butt;stroke-linejoin:miter;stroke-miterlimit:4;stroke-dasharray:none;stroke-dashoffset:0;stroke-opacity:1"
       id="path72356-4-5-8-4-9"
       cx="-18.511322"
       cy="34.752903"
       rx="1.0969627"
       ry="0.70086372"
       transform="matrix(-0.98353533,0.18071593,0.36395114,0.93141804,0,0)" />
    <ellipse
       style="color:#000000;overflow:visible;fill:#ff8080;fill-opacity:1;fill-rule:evenodd;stroke:#ff8080;stroke-width:1.29488003;stroke-linecap:butt;stroke-linejoin:miter;stroke-miterlimit:4;stroke-dasharray:none;stroke-dashoffset:0;stroke-opacity:1"
       id="path72356-4-5-8-4-9-7"
       cx="-29.721775"
       cy="36.905506"
       rx="1.0969627"
       ry="0.70086372"
       transform="matrix(-0.98353533,0.18071593,0.36395114,0.93141804,0,0)" />
    <path
       inkscape:connector-curvature="0"
       style="fill:#f2cfa9;fill-opacity:1;fill-rule:evenodd;stroke:#000000;stroke-width:0.802369;stroke-linecap:butt;stroke-linejoin:round;stroke-miterlimit:4;stroke-dasharray:none;stroke-dashoffset:0;stroke-opacity:1"
       d="m 47.81201,19.428498 c 0,0 2.09359,-2.344248 3.5275,-0.903366 1.43393,1.440881 1.56867,1.998122 1.21392,3.377941 -0.3181,1.237246 -2.49604,1.720856 -2.49604,1.720856 -0.3466,-2.011756 -0.9441,-3.2932 -2.24538,-4.195431 z"
       id="path72072-4-7"
       sodipodi:nodetypes="csscc" />
    <path
       inkscape:connector-curvature="0"
       style="fill:#f2cfa9;fill-opacity:1;fill-rule:evenodd;stroke:#000000;stroke-width:0.802369;stroke-linecap:butt;stroke-linejoin:round;stroke-miterlimit:4;stroke-dasharray:none;stroke-dashoffset:0;stroke-opacity:1"
       d="m 25.846205,19.309825 c 0,0 -1.634916,-2.684334 -3.305855,-1.526655 -1.670947,1.157677 -1.904282,1.681345 -1.805019,3.102576 0.08901,1.27438 2.143509,2.144042 2.143509,2.144042 0.704851,-1.91585 1.524328,-3.068048 2.967365,-3.719963 z"
       id="path72072-4-7-6"
       sodipodi:nodetypes="csscc" />
    <g
       id="g1667"
       transform="translate(1.2991775,-1.4165677)">
      <ellipse
         style="color:#000000;overflow:visible;fill:#ffffff;fill-opacity:1;fill-rule:evenodd;stroke:#000000;stroke-width:0.30000001;stroke-linecap:butt;stroke-linejoin:miter;stroke-miterlimit:4;stroke-dasharray:none;stroke-dashoffset:0;stroke-opacity:1"
         id="ellipse3188-4-2-6-3-0-4-6"
         cx="-31.221277"
         cy="-35.111725"
         rx="2.7083616"
         ry="2.6104693"
         transform="rotate(165)" />
      <ellipse
         style="color:#000000;overflow:visible;vector-effect:none;fill:#000000;fill-opacity:1;fill-rule:evenodd;stroke:#000000;stroke-width:0.70079201;stroke-linecap:butt;stroke-linejoin:miter;stroke-miterlimit:4;stroke-dasharray:none;stroke-dashoffset:0;stroke-opacity:1"
         id="ellipse3190-0-1-4-3-4-7-4"
         cx="-30.770903"
         cy="-34.999134"
         rx="1.5553625"
         ry="1.4991447"
         transform="rotate(165)" />
      <ellipse
         style="color:#000000;overflow:visible;vector-effect:none;fill:#ffffff;fill-opacity:1;fill-rule:evenodd;stroke:#ffffff;stroke-width:0.21885499;stroke-linecap:butt;stroke-linejoin:miter;stroke-miterlimit:4;stroke-dasharray:none;stroke-dashoffset:0;stroke-opacity:1"
         id="ellipse3190-0-1-4-3-4-8-8-3"
         cx="43.121655"
         cy="-14.578093"
         rx="0.48573416"
         ry="0.46817756"
         transform="matrix(0.96592583,0.25881905,0.25881905,-0.96592583,0,0)" />
      <ellipse
         style="color:#000000;overflow:visible;vector-effect:none;fill:#ffffff;fill-opacity:1;fill-rule:evenodd;stroke:#ffffff;stroke-width:0.0943935;stroke-linecap:butt;stroke-linejoin:miter;stroke-miterlimit:4;stroke-dasharray:none;stroke-dashoffset:0;stroke-opacity:1"
         id="ellipse3190-0-1-4-3-4-8-8-9-3"
         cx="43.356518"
         cy="-15.712141"
         rx="0.20950049"
         ry="0.20192821"
         transform="matrix(0.96592583,0.25881905,0.25881905,-0.96592583,0,0)" />
    </g>
    <g
       id="g1673"
       transform="translate(0.75684653,-1.1207507)">
      <ellipse
         style="color:#000000;overflow:visible;fill:#ffffff;fill-opacity:1;fill-rule:evenodd;stroke:#000000;stroke-width:0.30000001;stroke-linecap:butt;stroke-linejoin:miter;stroke-miterlimit:4;stroke-dasharray:none;stroke-dashoffset:0;stroke-opacity:1"
         id="ellipse3188-4-2-6-3-0-4-6-3"
         cx="-24.389107"
         cy="-33.178967"
         rx="2.7083616"
         ry="2.6104693"
         transform="rotate(165)" />
      <ellipse
         style="color:#000000;overflow:visible;vector-effect:none;fill:#000000;fill-opacity:1;fill-rule:evenodd;stroke:#000000;stroke-width:0.70079201;stroke-linecap:butt;stroke-linejoin:miter;stroke-miterlimit:4;stroke-dasharray:none;stroke-dashoffset:0;stroke-opacity:1"
         id="ellipse3190-0-1-4-3-4-7-4-8"
         cx="-23.938732"
         cy="-33.066376"
         rx="1.5553625"
         ry="1.4991447"
         transform="rotate(165)" />
      <ellipse
         style="color:#000000;overflow:visible;vector-effect:none;fill:#ffffff;fill-opacity:1;fill-rule:evenodd;stroke:#ffffff;stroke-width:0.21885499;stroke-linecap:butt;stroke-linejoin:miter;stroke-miterlimit:4;stroke-dasharray:none;stroke-dashoffset:0;stroke-opacity:1"
         id="ellipse3190-0-1-4-3-4-8-8-3-6"
         cx="36.238445"
         cy="-16.32036"
         rx="0.48573416"
         ry="0.46817756"
         transform="matrix(0.96592583,0.25881905,0.25881905,-0.96592583,0,0)" />
      <ellipse
         style="color:#000000;overflow:visible;vector-effect:none;fill:#ffffff;fill-opacity:1;fill-rule:evenodd;stroke:#ffffff;stroke-width:0.0943935;stroke-linecap:butt;stroke-linejoin:miter;stroke-miterlimit:4;stroke-dasharray:none;stroke-dashoffset:0;stroke-opacity:1"
         id="ellipse3190-0-1-4-3-4-8-8-9-3-0"
         cx="36.473309"
         cy="-17.454409"
         rx="0.20950049"
         ry="0.20192821"
         transform="matrix(0.96592583,0.25881905,0.25881905,-0.96592583,0,0)" />
    </g>
    <g
       id="g930"
       transform="matrix(0.31219612,0,0,0.31219612,-29.559029,47.399997)">
      <ellipse
         ry="11.853195"
         rx="30.469683"
         cy="43.743172"
         cx="209.94099"
         id="path908"
         style="opacity:1;vector-effect:none;fill:#c67038;fill-opacity:1;stroke:#000000;stroke-width:1.92186886;stroke-linecap:butt;stroke-linejoin:miter;stroke-miterlimit:4;stroke-dasharray:none;stroke-dashoffset:0;stroke-opacity:1" />
      <ellipse
         style="opacity:1;vector-effect:none;fill:#000000;fill-opacity:0.58823529;stroke:#000000;stroke-width:1.92186886;stroke-linecap:butt;stroke-linejoin:miter;stroke-miterlimit:4;stroke-dasharray:none;stroke-dashoffset:0;stroke-opacity:1"
         id="ellipse910"
         cx="209.59236"
         cy="43.39455"
         rx="23.402145"
         ry="4.5502601" />
      <path
         inkscape:connector-curvature="0"
         id="path912"
         d="m 183.07403,49.315285 a 27.75042,14.990804 0 0 0 -1.09244,4.119644 27.75042,14.990804 0 0 0 27.75025,14.990816 27.75042,14.990804 0 0 0 27.75024,-14.990816 27.75042,14.990804 0 0 0 -0.96738,-3.904154 30.469684,11.853195 0 0 1 -26.57357,6.065779 30.469684,11.853195 0 0 1 -26.8671,-6.281269 z"
         style="opacity:1;vector-effect:none;fill:#a3582b;fill-opacity:1;stroke:#000000;stroke-width:1.92186886;stroke-linecap:butt;stroke-linejoin:miter;stroke-miterlimit:4;stroke-dasharray:none;stroke-dashoffset:0;stroke-opacity:1" />
      <path
         inkscape:connector-curvature="0"
         id="path917"
         d="M 209.73184,8.6020066 A 29.284361,34.165087 0 0 0 180.4778,41.771041 c 0.25107,0.329538 0.78229,0.911574 1.42007,0.911574 0.88745,0 1.38028,-1.233001 1.38028,-1.233001 l 0.0408,-10e-4 a 26.469247,30.880788 0 0 1 26.41287,-29.562536 26.469247,30.880788 0 0 1 26.37564,28.431857 c 0.34528,0.36494 0.87398,0.792144 1.33997,0.601512 0.54016,-0.220975 1.13431,-0.708398 1.44745,-0.983401 A 29.284361,34.165087 0 0 0 209.73184,8.6020066 Z"
         style="opacity:1;vector-effect:none;fill:#c98050;fill-opacity:1;stroke:#000000;stroke-width:1.92186886;stroke-linecap:butt;stroke-linejoin:miter;stroke-miterlimit:4;stroke-dasharray:none;stroke-dashoffset:0;stroke-opacity:1" />
      <ellipse
         transform="rotate(21.710976)"
         ry="2.5721061"
         rx="4.4154491"
         cy="-15.673075"
         cx="201.15123"
         id="path906"
         style="opacity:1;vector-effect:none;fill:#e09b71;fill-opacity:1;stroke:#000000;stroke-width:1.92186886;stroke-linecap:butt;stroke-linejoin:miter;stroke-miterlimit:4;stroke-dasharray:none;stroke-dashoffset:0;stroke-opacity:1" />
    </g>
  </g>
</svg>
