<?xml version="1.0" encoding="UTF-8" standalone="no"?>
<!-- Created with Inkscape (http://www.inkscape.org/) -->

<svg
   width="70mm"
   height="80mm"
   viewBox="0 0 70 80"
   version="1.1"
   id="svg74501"
   inkscape:version="1.1 (c4e8f9e, 2021-05-24)"
   sodipodi:docname="hedgehog_finish.svg"
   xmlns:inkscape="http://www.inkscape.org/namespaces/inkscape"
   xmlns:sodipodi="http://sodipodi.sourceforge.net/DTD/sodipodi-0.dtd"
   xmlns="http://www.w3.org/2000/svg"
   xmlns:svg="http://www.w3.org/2000/svg">
  <sodipodi:namedview
     id="namedview74503"
     pagecolor="#ffffff"
     bordercolor="#999999"
     borderopacity="1"
     inkscape:pageshadow="0"
     inkscape:pageopacity="0"
     inkscape:pagecheckerboard="0"
     inkscape:document-units="mm"
     showgrid="false"
     inkscape:zoom="0.67081229"
     inkscape:cx="397.27954"
     inkscape:cy="321.99768"
     inkscape:window-width="1920"
     inkscape:window-height="1027"
     inkscape:window-x="0"
     inkscape:window-y="0"
     inkscape:window-maximized="1"
     inkscape:current-layer="layer1" />
  <defs
     id="defs74498" />
  <g
     inkscape:label="Layer 1"
     inkscape:groupmode="layer"
     id="layer1">
    <circle
       id="path72033-7"
       style="font-variation-settings:normal;fill:#f2cfa9;fill-opacity:1;stroke:#000000;stroke-width:0.393469;stroke-linecap:butt;stroke-linejoin:miter;stroke-miterlimit:4;stroke-dasharray:none;stroke-dashoffset:0;stroke-opacity:1;stop-color:#000000"
       cx="15.753676"
       cy="17.382725"
       r="0.019379724" />
    <path
       style="font-variation-settings:normal;fill:#f2cfa9;fill-opacity:1;fill-rule:evenodd;stroke:#000000;stroke-width:0.393469;stroke-linecap:butt;stroke-linejoin:miter;stroke-miterlimit:4;stroke-dasharray:none;stroke-dashoffset:0;stroke-opacity:1;stop-color:#000000"
       d="m 21.343934,23.89059 c 0,0 0.29643,0.9525 -1.64348,-0.59943 -1.93992,-1.55193 -1.55193,-2.79347 -0.93115,-3.64703 0.62076,-0.85356 2.56068,-2.40549 3.80222,-1.39674 1.24155,1.00875 2.1727,1.78472 2.1727,1.78472 z"
       id="path72070-0" />
    <path
       style="font-variation-settings:normal;fill:#f2cfa9;fill-opacity:1;fill-rule:evenodd;stroke:#000000;stroke-width:0.393469;stroke-linecap:butt;stroke-linejoin:miter;stroke-miterlimit:4;stroke-dasharray:none;stroke-dashoffset:0;stroke-opacity:1;stop-color:#000000"
       d="m 43.640734,17.44337 c 0,0 3.13285,-2.86521 4.76237,-0.9253 1.62953,1.93991 2.87107,3.87982 1.78472,5.04377 -1.08635,1.16394 -3.72463,1.86231 -3.72463,1.86231 z"
       id="path72072-4" />
    <circle
       id="path72029-8"
       style="font-variation-settings:normal;fill:#f2cfa9;fill-opacity:1;stroke:#000000;stroke-width:0.393469;stroke-linecap:butt;stroke-linejoin:miter;stroke-miterlimit:4;stroke-dasharray:none;stroke-dashoffset:0;stroke-opacity:1;stop-color:#000000"
       cx="21.12822"
       cy="23.834934"
       r="0.019379724" />
    <path
       style="font-variation-settings:normal;vector-effect:none;fill:#8c634a;fill-opacity:1;fill-rule:evenodd;stroke:#000000;stroke-width:0.499999;stroke-linecap:butt;stroke-linejoin:miter;stroke-miterlimit:4;stroke-dasharray:none;stroke-dashoffset:0;stroke-opacity:1;-inkscape-stroke:none;stop-color:#000000"
       d="m 24.289564,62.53857 -3.23676,3.13707 -1.94138,-4.59514 -2.10179,1.30647 0.10214,-7.76173 -2.40549,0.77596 0.77596,-7.42678 -2.79347,-1.31915 0.71003,-7.11821 -1.62953,-3.42789 2.45185,-2.6716 -1.49135,-9.88719 4.60858,-0.69836 -1.62953,-7.68206 4.68221,1.08636 0.93919,-5.40229 3.33431,0.54481 0.38797,-4.0350203 3.05903,2.31202 4.26781,-3.72463 1.24153,2.79348 4.6204,-3.47349 1.70712,3.18144 4.81099,-1.39672 1.00875,3.5694303 4.89957,-0.23278 -0.15519,2.87106 4.81098,2.71588 -1.38515,3.24047 2.46466,4.09428 -1.27685,2.15861 1.96109,3.93197 -1.30404,1.60425 2.79348,4.73338 -2.2503,2.79348 2.01751,3.33665 -2.1727,1.93991 2.09511,3.18145 -2.3944,1.41505 1.46118,2.93552 -3.33664,1.47433 1.78472,3.49185 -4.26781,1.39673 z"
       id="path73016-0" />
    <circle
       id="path72031-4"
       style="font-variation-settings:normal;fill:#f2cfa9;fill-opacity:1;stroke:#000000;stroke-width:0.393469;stroke-linecap:butt;stroke-linejoin:miter;stroke-miterlimit:4;stroke-dasharray:none;stroke-dashoffset:0;stroke-opacity:1;stop-color:#000000"
       cx="21.12822"
       cy="23.834934"
       r="0.019379724" />
    <path
       style="font-variation-settings:normal;vector-effect:none;fill:#f2cfa9;fill-opacity:1;fill-rule:evenodd;stroke:#000000;stroke-width:0.5;stroke-linecap:butt;stroke-linejoin:miter;stroke-miterlimit:4;stroke-dasharray:none;stroke-dashoffset:0;stroke-opacity:1;-inkscape-stroke:none;stop-color:#000000"
       d="m 40.753044,61.70143 c 0,0 -1.38106,12.59606 0.6525,13.04796 2.03355,0.45191 2.77619,-1.09905 2.70086,-2.6054 -0.0753,-1.50635 -0.30127,-10.09249 -0.30127,-10.09249"
       id="path3198-0-0-6-2" />
    <path
       style="font-variation-settings:normal;vector-effect:none;fill:#f2cfa9;fill-opacity:1;fill-rule:evenodd;stroke:#000000;stroke-width:0.5;stroke-linecap:butt;stroke-linejoin:miter;stroke-miterlimit:4;stroke-dasharray:none;stroke-dashoffset:0;stroke-opacity:1;-inkscape-stroke:none;stop-color:#000000"
       d="m 28.069524,61.15397 c 0,0 -1.38108,12.59607 0.65249,13.04797 2.03357,0.4519 2.77618,-1.09906 2.70087,-2.6054 -0.0753,-1.50636 -0.30129,-10.0925 -0.30129,-10.0925"
       id="path3200-4-8-2-9" />
    <path
       style="font-variation-settings:normal;vector-effect:none;fill:#f2cfa9;fill-opacity:1;fill-rule:evenodd;stroke:#000000;stroke-width:0.5;stroke-linecap:butt;stroke-linejoin:miter;stroke-miterlimit:4;stroke-dasharray:none;stroke-dashoffset:0;stroke-opacity:1;-inkscape-stroke:none;stop-color:#000000"
       d="m 26.327654,64.84771 c -4.45211,-3.20272 -5.59416,-7.9036 -5.59416,-15.47298 0,-7.56938 -3.71145,-19.24085 -0.4524,-24.05184 3.25907,-4.81098 4.5006,-9.00119 11.79467,-9.31158 7.29408,-0.31038 13.3466,-0.15518 14.43295,3.72464 1.08634,3.87982 3.57711,13.8215 3.11154,19.87403 -0.46558,6.05253 2.89159,14.84728 0.87407,18.26152 -2.01751,3.41425 -7.75964,6.9837 -10.55311,7.29408 -2.79348,0.31038 -9.92884,2.33282 -13.61356,-0.31787 z"
       id="path71956-6"
       sodipodi:nodetypes="sssssssss" />
    <ellipse
       style="color:#000000;font-variation-settings:normal;overflow:visible;fill:#000000;fill-opacity:1;fill-rule:evenodd;stroke:#000000;stroke-width:0.914957;stroke-linecap:butt;stroke-linejoin:miter;stroke-miterlimit:4;stroke-dasharray:none;stroke-dashoffset:0;stroke-opacity:1;stop-color:#000000"
       id="path72330-1"
       cx="28.288208"
       cy="24.958195"
       rx="0.38798246"
       ry="0.46557894" />
    <ellipse
       style="color:#000000;font-variation-settings:normal;overflow:visible;fill:#000000;fill-opacity:1;fill-rule:evenodd;stroke:#000000;stroke-width:0.914957;stroke-linecap:butt;stroke-linejoin:miter;stroke-miterlimit:4;stroke-dasharray:none;stroke-dashoffset:0;stroke-opacity:1;stop-color:#000000"
       id="path72332-0"
       cx="34.265579"
       cy="25.355289"
       rx="0.98935527"
       ry="0.64017105" />
    <ellipse
       style="color:#000000;font-variation-settings:normal;overflow:visible;fill:#000000;fill-opacity:1;fill-rule:evenodd;stroke:#000000;stroke-width:0.914957;stroke-linecap:butt;stroke-linejoin:miter;stroke-miterlimit:4;stroke-dasharray:none;stroke-dashoffset:0;stroke-opacity:1;stop-color:#000000"
       id="path72356-4"
       cx="40.932312"
       cy="24.418354"
       rx="0.65957016"
       ry="0.58197367" />
    <path
       style="font-variation-settings:normal;vector-effect:none;fill:#f2cfa9;fill-opacity:1;fill-rule:evenodd;stroke:#000000;stroke-width:0.5;stroke-linecap:butt;stroke-linejoin:miter;stroke-miterlimit:4;stroke-dasharray:none;stroke-dashoffset:0;stroke-opacity:1;-inkscape-stroke:none;stop-color:#000000"
       d="m 46.014024,37.38821 c 0,0 -0.88385,5.70179 -1.66341,7.30912 -0.82391,1.69874 -2.78626,5.0554 -4.16019,3.94137 -1.27717,-1.03556 1.12803,-3.89924 1.35899,-5.99742 0.23095,-2.09819 0.37525,-6.38116 0.37525,-6.38116"
       id="path72603-2"
       sodipodi:nodetypes="csssc" />
    <path
       style="font-variation-settings:normal;vector-effect:none;fill:#f2cfa9;fill-opacity:1;fill-rule:evenodd;stroke:#000000;stroke-width:0.5;stroke-linecap:butt;stroke-linejoin:miter;stroke-miterlimit:4;stroke-dasharray:none;stroke-dashoffset:0;stroke-opacity:1;-inkscape-stroke:none;stop-color:#000000"
       d="m 24.474694,38.15028 c 0,0 0.88383,5.70179 1.66339,7.30912 0.82391,1.69874 2.78626,5.0554 4.16019,3.94137 1.27717,-1.03556 -1.12802,-3.89924 -1.35899,-5.99742 -0.23095,-2.09818 -0.37523,-6.38116 -0.37523,-6.38116"
       id="path72603-6-2"
       sodipodi:nodetypes="csssc" />
    <path
       style="fill:none;fill-rule:evenodd;stroke:#000000;stroke-width:0.264583px;stroke-linecap:butt;stroke-linejoin:miter;stroke-opacity:1"
       d="m 32.048014,30.10351 c 0,-0.27889 0.36352,-1.37461 1.73741,-1.46755 1.78812,-0.12096 3.32564,1.15418 3.32564,1.15418"
       id="path73939"
       sodipodi:nodetypes="csc" />
  </g>
</svg>
