<?xml version="1.0" encoding="UTF-8" standalone="no"?>
<!-- Created with Inkscape (http://www.inkscape.org/) -->

<svg
   width="70mm"
   height="80mm"
   viewBox="0 0 70 80"
   version="1.1"
   id="svg74501"
   inkscape:version="1.1 (c4e8f9e, 2021-05-24)"
   sodipodi:docname="hedgehog_go.svg"
   xmlns:inkscape="http://www.inkscape.org/namespaces/inkscape"
   xmlns:sodipodi="http://sodipodi.sourceforge.net/DTD/sodipodi-0.dtd"
   xmlns="http://www.w3.org/2000/svg"
   xmlns:svg="http://www.w3.org/2000/svg">
  <sodipodi:namedview
     id="namedview74503"
     pagecolor="#ffffff"
     bordercolor="#999999"
     borderopacity="1"
     inkscape:pageshadow="0"
     inkscape:pageopacity="0"
     inkscape:pagecheckerboard="0"
     inkscape:document-units="mm"
     showgrid="false"
     inkscape:zoom="0.67081229"
     inkscape:cx="397.27954"
     inkscape:cy="560.51448"
     inkscape:window-width="1920"
     inkscape:window-height="1027"
     inkscape:window-x="0"
     inkscape:window-y="0"
     inkscape:window-maximized="1"
     inkscape:current-layer="layer1" />
  <defs
     id="defs74498" />
  <g
     inkscape:label="Layer 1"
     inkscape:groupmode="layer"
     id="layer1">
    <path
       style="font-variation-settings:normal;vector-effect:none;fill:#f2cfa9;fill-opacity:1;fill-rule:evenodd;stroke:#000000;stroke-width:0.5;stroke-linecap:butt;stroke-linejoin:miter;stroke-miterlimit:4;stroke-dasharray:none;stroke-dashoffset:0;stroke-opacity:1;-inkscape-stroke:none;stop-color:#000000"
       d="m 52.700333,34.304339 c 0,0 4.74431,2.03796 5.37183,1.41044 0.62752,-0.62752 1.19274,-0.10459 1.61109,0.45321 0.41835,0.5578 0.14752,2.67537 -0.93321,3.26803 -1.08074,0.59266 -6.305531,0.34487 -6.305531,0.34487"
       id="path3196"
       sodipodi:nodetypes="csssc" />
    <path
       style="font-variation-settings:normal;vector-effect:none;fill:#f2cfa9;fill-opacity:1;fill-rule:evenodd;stroke:#000000;stroke-width:0.5;stroke-linecap:butt;stroke-linejoin:miter;stroke-miterlimit:4;stroke-dasharray:none;stroke-dashoffset:0;stroke-opacity:1;-inkscape-stroke:none;stop-color:#000000"
       d="m 51.274969,64.371239 c 0,0 -0.954488,8.70542 0.450952,9.01774 1.405432,0.31232 1.918672,-0.75959 1.866622,-1.80065 -0.052,-1.04107 -0.20822,-6.97515 -0.20822,-6.97515"
       id="path3198" />
    <path
       style="font-variation-settings:normal;vector-effect:none;fill:#f2cfa9;fill-opacity:1;fill-rule:evenodd;stroke:#000000;stroke-width:0.5;stroke-linecap:butt;stroke-linejoin:miter;stroke-miterlimit:4;stroke-dasharray:none;stroke-dashoffset:0;stroke-opacity:1;-inkscape-stroke:none;stop-color:#000000"
       d="m 42.509109,63.992879 c 0,0 -0.954488,8.70542 0.450952,9.01774 1.405437,0.31232 1.918673,-0.75959 1.86662,-1.80065 -0.05205,-1.04107 -0.208216,-6.97515 -0.208216,-6.97515"
       id="path3200" />
    <path
       style="fill:none;fill-rule:evenodd;stroke:#ff0000;stroke-width:0.5;stroke-linecap:butt;stroke-linejoin:miter;stroke-miterlimit:4;stroke-dasharray:none;stroke-opacity:1"
       d="m 37.873573,64.960629 c 2.347728,0.42581 4.141436,0.98605 8.677292,1.38048 4.535858,0.39442 8.571808,-0.0674 10.447508,-1.30749 4.21706,-2.78797 -1.76849,-16.52948 -2.77462,-23.17494 -1.09599,-7.23903 5.29823,-15.35346 6.3161,-19.38569 1.11671,-4.4238 -1.92281,-7.29681 -2.61305,-7.74054 -0.69024,-0.44372 -4.88098,1.42979 -7.691237,1.28188 -2.810258,-0.14791 -8.239115,-2.02142 -8.239115,-2.02142 0,0 -13.798054,6.81454 -9.75637,19.54343 2.43605,7.6721 3.94773,13.2524 4.453624,19.13722 0.505895,5.88482 0.006,12.07416 1.179868,12.28707 z"
       id="path1011-5"
       sodipodi:nodetypes="ssssssscsss" />
    <path
       id="path1757-7"
       style="font-variation-settings:normal;vector-effect:none;fill:none;fill-opacity:1;fill-rule:evenodd;stroke:#ff0000;stroke-width:0.499999;stroke-linecap:butt;stroke-linejoin:miter;stroke-miterlimit:4;stroke-dasharray:none;stroke-dashoffset:0;stroke-opacity:1;-inkscape-stroke:none;stop-color:#000000"
       d="m 36.701797,5.6046093 -0.147796,1.82418 -3.747058,-1.72599 0.345199,1.57768 -6.015135,-0.59118 0.936892,2.36627 -8.051705,1.4784597 2.564186,2.36626 -7.630541,4.3031 2.760554,2.76055 -5.854423,3.05253 3.352766,2.56418 -6.0678459,3.54966 3.5501709,0.98599 -2.7610719,2.36626 2.3662639,1.97249 -4.2819089,4.2199 4.3387529,-0.19689 -4.7330449,4.73304 2.9579599,0.5917 -2.5636679,4.73304 3.7470579,0.39429 -3.2954059,4.31499 3.1553629,1.38027 -3.1553629,5.32474 5.3247399,0.19741 0.196887,3.74706 4.930447,-2.16938 0.591696,4.73304 5.916435,-0.1974 4.11861,-2.11253 3.155365,1.77508 5.167643,-0.96273 c -1.173869,-0.21291 -0.674396,-6.40229 -1.18029,-12.28711 -0.505894,-5.88482 -2.017427,-11.46522 -4.453475,-19.13733 -4.041685,-12.72889 9.756511,-19.54351 9.756511,-19.54351 0,0 -0.763268,-2.21244 0.08061,-3.69176 0.843883,-1.4793197 1.435575,-2.9088697 1.435575,-2.9088697 l -3.080434,0.92759 -0.521417,-2.27531 -0.890384,1.61437 z" />
    <circle
       id="path1912-4"
       style="fill:#000000;stroke:#ff0000;stroke-width:0.264583"
       cx="32.677212"
       cy="19.986565"
       r="0.017413737" />
    <path
       style="font-variation-settings:normal;vector-effect:none;fill:none;fill-opacity:1;fill-rule:evenodd;stroke:#ff0000;stroke-width:0.5;stroke-linecap:butt;stroke-linejoin:miter;stroke-miterlimit:4;stroke-dasharray:none;stroke-dashoffset:0;stroke-opacity:1;-inkscape-stroke:none;stop-color:#000000"
       d="m 32.352497,19.876789 c 0,0 -2.102278,-6.39126 -6.414672,-0.55779 -3.89953,5.27497 3.550248,6.54718 3.433633,6.48439 -0.04687,-3.20528 0.982785,-5.13829 2.981039,-5.9266 z"
       id="path1949-1"
       sodipodi:nodetypes="cscc" />
    <path
       style="font-variation-settings:normal;vector-effect:none;fill:none;fill-opacity:1;fill-rule:evenodd;stroke:#ff0000;stroke-width:0.5;stroke-linecap:butt;stroke-linejoin:miter;stroke-miterlimit:4;stroke-dasharray:none;stroke-dashoffset:0;stroke-opacity:1;-inkscape-stroke:none;stop-color:#000000"
       d="m 60.915573,20.973709 c -1.2499,3.34758 -3.21457,4.43172 -5.57797,4.25321"
       id="path2146-8"
       sodipodi:nodetypes="cc" />
    <ellipse
       style="color:#000000;font-variation-settings:normal;overflow:visible;vector-effect:none;fill:none;fill-opacity:1;fill-rule:evenodd;stroke:#ff0000;stroke-width:0.499999;stroke-linecap:butt;stroke-linejoin:miter;stroke-miterlimit:4;stroke-dasharray:none;stroke-dashoffset:0;stroke-opacity:1;-inkscape-stroke:none;stop-color:#000000"
       id="path2369-5"
       cx="44.330288"
       cy="22.853844"
       rx="2.8935738"
       ry="2.7889869" />
    <ellipse
       style="color:#000000;font-variation-settings:normal;overflow:visible;vector-effect:none;fill:none;fill-opacity:1;fill-rule:evenodd;stroke:#ff0000;stroke-width:0.499999;stroke-linecap:butt;stroke-linejoin:miter;stroke-miterlimit:4;stroke-dasharray:none;stroke-dashoffset:0;stroke-opacity:1;-inkscape-stroke:none;stop-color:#000000"
       id="path2369-5-3"
       cx="44.981747"
       cy="22.089745"
       rx="1.1097133"
       ry="1.0696032" />
    <path
       style="font-variation-settings:normal;vector-effect:none;fill:none;fill-opacity:1;fill-rule:evenodd;stroke:#ff0000;stroke-width:0.5;stroke-linecap:butt;stroke-linejoin:miter;stroke-miterlimit:4;stroke-dasharray:none;stroke-dashoffset:0;stroke-opacity:1;-inkscape-stroke:none;stop-color:#000000"
       d="m 39.159409,19.149209 2.99816,-2.02202"
       id="path2404-9" />
    <path
       style="font-variation-settings:normal;vector-effect:none;fill:none;fill-opacity:1;fill-rule:evenodd;stroke:#ff0000;stroke-width:0.5;stroke-linecap:butt;stroke-linejoin:miter;stroke-miterlimit:4;stroke-dasharray:none;stroke-dashoffset:0;stroke-opacity:1;-inkscape-stroke:none;stop-color:#000000"
       d="m 38.154013,37.905979 c 0,0 2.544337,0.82414 3.151177,0.65884 0.606843,-0.1653 3.136277,-0.87827 3.136277,-0.87827 0,0 1.81284,-0.59266 2.196324,0.34862 0.383487,0.94129 -0.478959,3.50053 -0.478959,3.50053 0,0 -1.444919,1.74436 -3.571521,1.81409 -2.126602,0.0697 -3.799994,-0.5578 -3.799994,-0.5578"
       id="path2482-7" />
    <path
       style="font-variation-settings:normal;vector-effect:none;fill:none;fill-opacity:1;fill-rule:evenodd;stroke:#ff0000;stroke-width:0.5;stroke-linecap:butt;stroke-linejoin:miter;stroke-miterlimit:4;stroke-dasharray:none;stroke-dashoffset:0;stroke-opacity:1;-inkscape-stroke:none;stop-color:#000000"
       d="m 54.491023,15.366559 c 0,0 -0.48807,-1.95229 0.62752,-2.57981 1.1156,-0.62753 2.33578,-0.76698 2.9633,-0.13946 0.62753,0.62753 1.2931,0.978 0.90961,1.88442 -0.38349,0.90642 -0.54841,0.71342 -0.54841,0.71342 z"
       id="path2926-8" />
    <path
       style="fill:#f2cfa9;fill-opacity:1;fill-rule:evenodd;stroke:#000000;stroke-width:0.5;stroke-linecap:butt;stroke-linejoin:miter;stroke-miterlimit:4;stroke-dasharray:none;stroke-opacity:1"
       d="m 37.873573,64.960629 c 2.347728,0.42581 4.141436,0.98605 8.677292,1.38048 4.535858,0.39442 8.571808,-0.0674 10.447508,-1.30749 4.21706,-2.78797 -1.76849,-16.52948 -2.77462,-23.17494 -1.09599,-7.23903 5.29823,-15.35346 6.3161,-19.38569 1.11671,-4.4238 -1.92281,-7.29681 -2.61305,-7.74054 -0.69024,-0.44372 -4.88098,1.42979 -7.691237,1.28188 -2.810258,-0.14791 -8.239115,-2.02142 -8.239115,-2.02142 0,0 -13.798054,6.81454 -9.75637,19.54343 2.43605,7.6721 3.94773,13.2524 4.453624,19.13722 0.505895,5.88482 0.006,12.07416 1.179868,12.28707 z"
       id="path3178"
       sodipodi:nodetypes="ssssssscsss" />
    <path
       id="path3180"
       style="font-variation-settings:normal;vector-effect:none;fill:#8c634a;fill-opacity:1;fill-rule:evenodd;stroke:#000000;stroke-width:0.499999;stroke-linecap:butt;stroke-linejoin:miter;stroke-miterlimit:4;stroke-dasharray:none;stroke-dashoffset:0;stroke-opacity:1;-inkscape-stroke:none;stop-color:#000000"
       d="m 36.701797,5.6046093 -0.147796,1.82418 -3.747058,-1.72599 0.345199,1.57768 -6.015135,-0.59118 0.936892,2.36627 -8.051705,1.4784597 2.564186,2.36626 -7.630541,4.3031 2.760554,2.76055 -5.854423,3.05253 3.352766,2.56418 -6.0678459,3.54966 3.5501709,0.98599 -2.7610719,2.36626 2.3662639,1.97249 -4.2819089,4.2199 4.3387529,-0.19689 -4.7330449,4.73304 2.9579599,0.5917 -2.5636679,4.73304 3.7470579,0.39429 -3.2954059,4.31499 3.1553629,1.38027 -3.1553629,5.32474 5.3247399,0.19741 0.196887,3.74706 4.930447,-2.16938 0.591696,4.73304 5.916435,-0.1974 4.11861,-2.11253 3.155365,1.77508 5.167643,-0.96273 c -1.173869,-0.21291 -0.674396,-6.40229 -1.18029,-12.28711 -0.505894,-5.88482 -2.017427,-11.46522 -4.453475,-19.13733 -4.041685,-12.72889 9.756511,-19.54351 9.756511,-19.54351 0,0 -0.763268,-2.21244 0.08061,-3.69176 0.843883,-1.4793197 1.435575,-2.9088697 1.435575,-2.9088697 l -3.080434,0.92759 -0.521417,-2.27531 -0.890384,1.61437 z" />
    <circle
       id="circle3182"
       style="fill:#000000;stroke:#000000;stroke-width:0.264583"
       cx="32.677212"
       cy="19.986565"
       r="0.017413737" />
    <path
       style="font-variation-settings:normal;vector-effect:none;fill:#f2cfa9;fill-opacity:1;fill-rule:evenodd;stroke:#000000;stroke-width:0.5;stroke-linecap:butt;stroke-linejoin:miter;stroke-miterlimit:4;stroke-dasharray:none;stroke-dashoffset:0;stroke-opacity:1;-inkscape-stroke:none;stop-color:#000000"
       d="m 32.352497,19.876789 c 0,0 -2.102278,-6.39126 -6.414672,-0.55779 -3.89953,5.27497 3.550248,6.54718 3.433633,6.48439 -0.04687,-3.20528 0.982785,-5.13829 2.981039,-5.9266 z"
       id="path3184"
       sodipodi:nodetypes="cscc" />
    <path
       style="font-variation-settings:normal;vector-effect:none;fill:none;fill-opacity:1;fill-rule:evenodd;stroke:#000000;stroke-width:0.5;stroke-linecap:butt;stroke-linejoin:miter;stroke-miterlimit:4;stroke-dasharray:none;stroke-dashoffset:0;stroke-opacity:1;-inkscape-stroke:none;stop-color:#000000"
       d="m 60.915573,20.973709 c -1.2499,3.34758 -3.21457,4.43172 -5.57797,4.25321"
       id="path3186"
       sodipodi:nodetypes="cc" />
    <ellipse
       style="color:#000000;font-variation-settings:normal;overflow:visible;vector-effect:none;fill:#000000;fill-opacity:1;fill-rule:evenodd;stroke:#000000;stroke-width:0.499999;stroke-linecap:butt;stroke-linejoin:miter;stroke-miterlimit:4;stroke-dasharray:none;stroke-dashoffset:0;stroke-opacity:1;-inkscape-stroke:none;stop-color:#000000"
       id="ellipse3188"
       cx="44.330288"
       cy="22.853844"
       rx="2.8935738"
       ry="2.7889869" />
    <ellipse
       style="color:#000000;font-variation-settings:normal;overflow:visible;vector-effect:none;fill:#ffffff;fill-opacity:1;fill-rule:evenodd;stroke:#ffffff;stroke-width:0.499999;stroke-linecap:butt;stroke-linejoin:miter;stroke-miterlimit:4;stroke-dasharray:none;stroke-dashoffset:0;stroke-opacity:1;-inkscape-stroke:none;stop-color:#000000"
       id="ellipse3190"
       cx="44.981747"
       cy="22.089745"
       rx="1.1097133"
       ry="1.0696032" />
    <path
       style="font-variation-settings:normal;vector-effect:none;fill:none;fill-opacity:1;fill-rule:evenodd;stroke:#000000;stroke-width:0.5;stroke-linecap:butt;stroke-linejoin:miter;stroke-miterlimit:4;stroke-dasharray:none;stroke-dashoffset:0;stroke-opacity:1;-inkscape-stroke:none;stop-color:#000000"
       d="m 39.159409,19.149209 2.99816,-2.02202"
       id="path3192" />
    <path
       style="font-variation-settings:normal;vector-effect:none;fill:#f2cfa9;fill-opacity:1;fill-rule:evenodd;stroke:#000000;stroke-width:0.5;stroke-linecap:butt;stroke-linejoin:miter;stroke-miterlimit:4;stroke-dasharray:none;stroke-dashoffset:0;stroke-opacity:1;-inkscape-stroke:none;stop-color:#000000"
       d="m 38.154013,37.905979 c 0,0 2.544337,0.82414 3.151177,0.65884 0.606843,-0.1653 3.136277,-0.87827 3.136277,-0.87827 0,0 1.81284,-0.59266 2.196324,0.34862 0.383487,0.94129 0.150868,1.9344 -0.577565,2.9582 -0.728433,1.0238 -1.346313,2.28669 -3.472915,2.35642 -2.126602,0.0697 -3.799994,-0.5578 -3.799994,-0.5578"
       id="path3194"
       sodipodi:nodetypes="cscszsc" />
    <path
       style="font-variation-settings:normal;vector-effect:none;fill:#000000;fill-opacity:1;fill-rule:evenodd;stroke:#000000;stroke-width:0.5;stroke-linecap:butt;stroke-linejoin:miter;stroke-miterlimit:4;stroke-dasharray:none;stroke-dashoffset:0;stroke-opacity:1;-inkscape-stroke:none;stop-color:#000000"
       d="m 54.491023,15.366559 c 0,0 -0.48807,-1.95229 0.62752,-2.57981 1.1156,-0.62753 2.33578,-0.76698 2.9633,-0.13946 0.62753,0.62753 1.2931,0.978 0.90961,1.88442 -0.38349,0.90642 -0.54841,0.71342 -0.54841,0.71342 z"
       id="path3202" />
  </g>
</svg>
