<?xml version="1.0" encoding="UTF-8" standalone="no"?>
<!-- Created with Inkscape (http://www.inkscape.org/) -->

<svg
   width="70mm"
   height="80mm"
   viewBox="0 0 70 80"
   version="1.1"
   id="svg74501"
   inkscape:version="1.1 (c4e8f9e, 2021-05-24)"
   sodipodi:docname="hedgehog_left_up.svg"
   xmlns:inkscape="http://www.inkscape.org/namespaces/inkscape"
   xmlns:sodipodi="http://sodipodi.sourceforge.net/DTD/sodipodi-0.dtd"
   xmlns="http://www.w3.org/2000/svg"
   xmlns:svg="http://www.w3.org/2000/svg">
  <sodipodi:namedview
     id="namedview74503"
     pagecolor="#ffffff"
     bordercolor="#999999"
     borderopacity="1"
     inkscape:pageshadow="0"
     inkscape:pageopacity="0"
     inkscape:pagecheckerboard="0"
     inkscape:document-units="mm"
     showgrid="false"
     inkscape:zoom="1.8973437"
     inkscape:cx="108.30932"
     inkscape:cy="166.54864"
     inkscape:window-width="1920"
     inkscape:window-height="1027"
     inkscape:window-x="0"
     inkscape:window-y="0"
     inkscape:window-maximized="1"
     inkscape:current-layer="layer1" />
  <defs
     id="defs74498" />
  <g
     inkscape:label="Layer 1"
     inkscape:groupmode="layer"
     id="layer1">
    <path
       style="font-variation-settings:normal;fill:#f2cfa9;fill-opacity:1;fill-rule:evenodd;stroke:#000000;stroke-width:0.941049;stroke-linecap:round;stroke-linejoin:miter;stroke-miterlimit:4;stroke-dasharray:none;stroke-dashoffset:0;stroke-opacity:1;stop-color:#000000"
       d="m 17.087224,47.840995 c 0,0 -4.81787,1.61438 -6.432627,1.59956 -1.7066021,-0.0156 -5.2405341,-0.34281 -5.0474361,-2.02844 0.17949,-1.56692 3.548076,-0.64015 5.2753721,-1.31774 1.727301,-0.67761 5.094921,-2.35062 5.094921,-2.35062"
       id="path72603-2-9-3-1-2"
       sodipodi:nodetypes="csssc" />
    <path
       style="font-variation-settings:normal;fill:#f2cfa9;fill-opacity:1;fill-rule:evenodd;stroke:#000000;stroke-width:1;stroke-linecap:butt;stroke-linejoin:miter;stroke-miterlimit:4;stroke-dasharray:none;stroke-dashoffset:0;stroke-opacity:1;stop-color:#000000"
       d="m 28.408386,66.383385 c 0,0 1.278795,9.60443 -0.749366,10.05513 -2.028156,0.4507 -2.768796,-1.09614 -2.69368,-2.59848 0.07511,-1.50235 0.399078,-7.10751 0.399078,-7.10751"
       id="path3198-0-9-9"
       sodipodi:nodetypes="cssc" />
    <path
       style="font-variation-settings:normal;fill:#f2cfa9;fill-opacity:1;fill-rule:evenodd;stroke:#000000;stroke-width:1;stroke-linecap:butt;stroke-linejoin:miter;stroke-miterlimit:4;stroke-dasharray:none;stroke-dashoffset:0;stroke-opacity:1;stop-color:#000000"
       d="m 37.414794,65.730565 c 0,0 1.278795,9.60442 -0.749366,10.05513 -2.028156,0.4507 -2.768796,-1.09614 -2.69368,-2.59848 0.07511,-1.50235 0.399078,-7.10751 0.399078,-7.10751"
       id="path3198-0-9-3-9"
       sodipodi:nodetypes="cssc" />
    <circle
       id="path1912-4-8-7-6"
       style="fill:#000000;stroke:#ff0000;stroke-width:0.264583"
       cx="-37.608505"
       cy="22.566484"
       r="0.017413737"
       transform="scale(-1,1)" />
    <path
       style="font-variation-settings:normal;vector-effect:none;fill:none;fill-opacity:1;fill-rule:evenodd;stroke:#ff0000;stroke-width:0.5;stroke-linecap:butt;stroke-linejoin:miter;stroke-miterlimit:4;stroke-dasharray:none;stroke-dashoffset:0;stroke-opacity:1;-inkscape-stroke:none;stop-color:#000000"
       d="m 37.933209,22.456715 c 0,0 2.102278,-6.39126 6.414672,-0.55779 3.899534,5.27497 -3.550248,6.54718 -3.433633,6.48439 0.04687,-3.20528 -0.982785,-5.13829 -2.981039,-5.9266 z"
       id="path1949-1-9-7-0"
       sodipodi:nodetypes="cscc" />
    <path
       style="font-variation-settings:normal;vector-effect:none;fill:none;fill-opacity:1;fill-rule:evenodd;stroke:#ff0000;stroke-width:0.5;stroke-linecap:butt;stroke-linejoin:miter;stroke-miterlimit:4;stroke-dasharray:none;stroke-dashoffset:0;stroke-opacity:1;-inkscape-stroke:none;stop-color:#000000"
       d="m 9.3701309,23.553635 c 1.2499011,3.34758 3.2145741,4.43172 5.5779751,4.25321"
       id="path2146-8-7-5-2"
       sodipodi:nodetypes="cc" />
    <path
       style="font-variation-settings:normal;vector-effect:none;fill:none;fill-opacity:1;fill-rule:evenodd;stroke:#ff0000;stroke-width:0.5;stroke-linecap:butt;stroke-linejoin:miter;stroke-miterlimit:4;stroke-dasharray:none;stroke-dashoffset:0;stroke-opacity:1;-inkscape-stroke:none;stop-color:#000000"
       d="m 31.126297,21.729125 -2.99816,-2.02201"
       id="path2404-9-4-1-1" />
    <path
       style="font-variation-settings:normal;vector-effect:none;fill:none;fill-opacity:1;fill-rule:evenodd;stroke:#ff0000;stroke-width:0.5;stroke-linecap:butt;stroke-linejoin:miter;stroke-miterlimit:4;stroke-dasharray:none;stroke-dashoffset:0;stroke-opacity:1;-inkscape-stroke:none;stop-color:#000000"
       d="m 32.131693,40.485905 c 0,0 -2.544337,0.82414 -3.151177,0.65884 -0.606843,-0.1653 -3.136276,-0.87827 -3.136276,-0.87827 0,0 -1.81284,-0.59266 -2.196324,0.34862 -0.383487,0.94129 0.478959,3.50053 0.478959,3.50053 0,0 1.444919,1.74436 3.57152,1.81408 2.126602,0.0697 3.799994,-0.5578 3.799994,-0.5578"
       id="path2482-7-3-2-3" />
    <path
       style="font-variation-settings:normal;vector-effect:none;fill:none;fill-opacity:1;fill-rule:evenodd;stroke:#ff0000;stroke-width:0.5;stroke-linecap:butt;stroke-linejoin:miter;stroke-miterlimit:4;stroke-dasharray:none;stroke-dashoffset:0;stroke-opacity:1;-inkscape-stroke:none;stop-color:#000000"
       d="m 15.794683,17.946485 c 0,0 0.488072,-1.95229 -0.627523,-2.57981 -1.115594,-0.62753 -2.335776,-0.76698 -2.963299,-0.13946 -0.627523,0.62753 -1.293093,0.978 -0.909606,1.88442 0.383485,0.90642 0.548413,0.71342 0.548413,0.71342 z"
       id="path2926-8-0-8-2" />
    <path
       style="fill:#f2cfa9;fill-opacity:1;fill-rule:evenodd;stroke:#000000;stroke-width:1;stroke-linecap:butt;stroke-linejoin:miter;stroke-miterlimit:4;stroke-dasharray:none;stroke-opacity:1"
       d="m 32.412133,67.540545 c -2.347728,0.42582 -3.889102,0.96049 -8.607566,0.33461 -4.517599,-0.59923 -5.754508,-2.07101 -7.240174,-8.21022 -1.18905,-4.9135 -1.508567,-8.58088 -0.502441,-15.22633 1.095994,-7.23904 -5.298225,-15.35347 -6.3160941,-19.38569 -1.116717,-4.4238 1.9228091,-7.29681 2.6130491,-7.74054 0.69024,-0.44372 4.880975,1.42979 7.691234,1.28188 2.810258,-0.14791 8.239114,-2.02142 8.239114,-2.02142 0,0 13.798054,6.81454 9.75637,19.54343 -2.43605,7.6721 -3.94773,13.2524 -4.453624,19.13721 -0.505895,5.88482 -0.006,12.07417 -1.179868,12.28707 z"
       id="path3178-3-9-1"
       sodipodi:nodetypes="ssssssscsss" />
    <path
       id="path3180-0-3-5"
       style="font-variation-settings:normal;fill:#8c634a;fill-opacity:1;fill-rule:evenodd;stroke:#000000;stroke-width:1;stroke-linecap:round;stroke-linejoin:round;stroke-miterlimit:4;stroke-dasharray:none;stroke-dashoffset:0;stroke-opacity:1;stop-color:#000000"
       d="m 33.583909,8.1845353 0.147796,1.8241797 3.747058,-1.7259897 -0.345199,1.57768 6.015135,-0.59118 -0.936892,2.3662597 8.051708,1.47847 -2.56419,2.36626 7.63054,4.3031 -2.76055,2.76055 4.1113,3.47088 -3.35276,2.56418 6.06784,3.54966 -3.55017,0.98598 2.76107,2.36627 -2.36626,1.97249 4.28191,4.2199 -4.33875,-0.19689 2.15323,4.24497 -2.95796,0.5917 1.5178,4.31469 -3.74706,0.39429 3.2954,4.31498 -3.15536,1.38028 3.15536,5.32474 -5.32474,0.1974 -0.19688,3.74706 -4.930449,-2.16937 -0.591696,4.73304 -4.870565,-2.91667 -1.190174,3.32599 -3.503988,-1.36252 -3.424526,-0.0563 c 1.173869,-0.2129 0.674396,-6.40228 1.18029,-12.2871 0.505894,-5.88482 2.017427,-11.46523 4.453475,-19.13733 4.041685,-12.72889 -9.756511,-19.54351 -9.756511,-19.54351 0,0 0.763268,-2.21244 -0.08061,-3.69176 -0.843883,-1.47932 -1.435574,-2.9088697 -1.435574,-2.9088697 l 3.080433,0.9275897 0.521417,-2.2753097 0.890384,1.6143697 z"
       sodipodi:nodetypes="cccccccccccccccccccccccccccccccccsscsccccc" />
    <circle
       id="circle3182-9-6-9"
       style="fill:#000000;stroke:#000000;stroke-width:0.264583"
       cx="-37.608505"
       cy="22.566484"
       r="0.017413737"
       transform="scale(-1,1)" />
    <path
       style="font-variation-settings:normal;fill:#f2cfa9;fill-opacity:1;fill-rule:evenodd;stroke:#000000;stroke-width:1;stroke-linecap:butt;stroke-linejoin:miter;stroke-miterlimit:4;stroke-dasharray:none;stroke-dashoffset:0;stroke-opacity:1;stop-color:#000000"
       d="m 37.933209,22.456715 c 0,0 2.102278,-6.39126 6.414672,-0.55779 3.899534,5.27497 -3.550248,6.54718 -3.433633,6.48439 0.04687,-3.20528 -0.982785,-5.13829 -2.981039,-5.9266 z"
       id="path3184-2-8-9"
       sodipodi:nodetypes="cscc" />
    <path
       style="font-variation-settings:normal;fill:none;fill-opacity:1;fill-rule:evenodd;stroke:#000000;stroke-width:1;stroke-linecap:round;stroke-linejoin:miter;stroke-miterlimit:4;stroke-dasharray:none;stroke-dashoffset:0;stroke-opacity:1;stop-color:#000000"
       d="m 14.984267,30.886305 c 2.073729,2.91001 4.252053,3.44872 6.488721,2.6646"
       id="path3186-5-0-1"
       sodipodi:nodetypes="cc" />
    <path
       style="font-variation-settings:normal;fill:none;fill-opacity:1;fill-rule:evenodd;stroke:#000000;stroke-width:1;stroke-linecap:round;stroke-linejoin:miter;stroke-miterlimit:4;stroke-dasharray:none;stroke-dashoffset:0;stroke-opacity:1;stop-color:#000000"
       d="m 31.126297,21.729125 c -0.705363,-1.26205 -1.768545,-1.80846 -2.99816,-2.02201"
       id="path3192-5-0-1"
       sodipodi:nodetypes="cc" />
    <path
       style="font-variation-settings:normal;vector-effect:none;fill:#000000;fill-opacity:1;fill-rule:evenodd;stroke:#000000;stroke-width:0.5;stroke-linecap:butt;stroke-linejoin:miter;stroke-miterlimit:4;stroke-dasharray:none;stroke-dashoffset:0;stroke-opacity:1;-inkscape-stroke:none;stop-color:#000000"
       d="m 15.794683,17.946485 c 0,0 0.488072,-1.95229 -0.627523,-2.57981 -1.115594,-0.62753 -2.335776,-0.76698 -2.963299,-0.13946 -0.627523,0.62753 -1.293093,0.978 -0.909606,1.88442 0.383485,0.90642 0.548413,0.71342 0.548413,0.71342 z"
       id="path3202-4-1-0" />
    <path
       style="font-variation-settings:normal;fill:#f2cfa9;fill-opacity:1;fill-rule:evenodd;stroke:#000000;stroke-width:0.941049;stroke-linecap:round;stroke-linejoin:miter;stroke-miterlimit:4;stroke-dasharray:none;stroke-dashoffset:0;stroke-opacity:1;stop-color:#000000"
       d="m 30.143811,48.266775 c 0,0 -4.515398,2.33008 -6.113541,2.56164 -1.689031,0.24472 -5.231525,0.46021 -5.297691,-1.23516 -0.06152,-1.57595 3.408991,-1.17363 5.012773,-2.10665 1.603796,-0.93307 4.676955,-3.09996 4.676955,-3.09996"
       id="path72603-2-9-3-7"
       sodipodi:nodetypes="csssc" />
    <g
       id="g1667"
       transform="translate(-13.446891,-2.5466197)">
      <ellipse
         style="color:#000000;font-variation-settings:normal;overflow:visible;fill:#ffffff;fill-opacity:1;fill-rule:evenodd;stroke:#000000;stroke-width:0.3;stroke-linecap:butt;stroke-linejoin:miter;stroke-miterlimit:4;stroke-dasharray:none;stroke-dashoffset:0;stroke-opacity:1;stop-color:#000000"
         id="ellipse3188-4-2-6-3-0-4-6"
         cx="-31.221277"
         cy="-35.111725"
         rx="2.7083616"
         ry="2.6104693"
         transform="rotate(165)" />
      <ellipse
         style="color:#000000;font-variation-settings:normal;overflow:visible;vector-effect:none;fill:#000000;fill-opacity:1;fill-rule:evenodd;stroke:#000000;stroke-width:0.700792;stroke-linecap:butt;stroke-linejoin:miter;stroke-miterlimit:4;stroke-dasharray:none;stroke-dashoffset:0;stroke-opacity:1;-inkscape-stroke:none;stop-color:#000000"
         id="ellipse3190-0-1-4-3-4-7-4"
         cx="-30.770903"
         cy="-34.999134"
         rx="1.5553625"
         ry="1.4991447"
         transform="rotate(165)" />
      <ellipse
         style="color:#000000;font-variation-settings:normal;overflow:visible;vector-effect:none;fill:#ffffff;fill-opacity:1;fill-rule:evenodd;stroke:#ffffff;stroke-width:0.218855;stroke-linecap:butt;stroke-linejoin:miter;stroke-miterlimit:4;stroke-dasharray:none;stroke-dashoffset:0;stroke-opacity:1;-inkscape-stroke:none;stop-color:#000000"
         id="ellipse3190-0-1-4-3-4-8-8-3"
         cx="43.121655"
         cy="-14.578093"
         rx="0.48573416"
         ry="0.46817756"
         transform="matrix(0.96592583,0.25881905,0.25881905,-0.96592583,0,0)" />
      <ellipse
         style="color:#000000;font-variation-settings:normal;overflow:visible;vector-effect:none;fill:#ffffff;fill-opacity:1;fill-rule:evenodd;stroke:#ffffff;stroke-width:0.0943935;stroke-linecap:butt;stroke-linejoin:miter;stroke-miterlimit:4;stroke-dasharray:none;stroke-dashoffset:0;stroke-opacity:1;-inkscape-stroke:none;stop-color:#000000"
         id="ellipse3190-0-1-4-3-4-8-8-9-3"
         cx="43.356518"
         cy="-15.712141"
         rx="0.20950049"
         ry="0.20192821"
         transform="matrix(0.96592583,0.25881905,0.25881905,-0.96592583,0,0)" />
    </g>
    <ellipse
       style="color:#000000;font-variation-settings:normal;overflow:visible;fill:#ff8080;fill-opacity:1;fill-rule:evenodd;stroke:#ff8080;stroke-width:1.29488;stroke-linecap:butt;stroke-linejoin:miter;stroke-miterlimit:4;stroke-dasharray:none;stroke-dashoffset:0;stroke-opacity:1;stop-color:#000000"
       id="path72356-4-5-8-4-9-7"
       cx="-14.061046"
       cy="34.511353"
       rx="1.0969627"
       ry="0.70086366"
       transform="matrix(-0.98353533,0.18071593,0.36395114,0.93141804,0,0)" />
  </g>
</svg>
