<?xml version="1.0" encoding="UTF-8" standalone="no"?>
<!-- Created with Inkscape (http://www.inkscape.org/) -->

<svg
   width="150mm"
   height="200mm"
   viewBox="0 0 150 200"
   version="1.1"
   id="svg74501"
   inkscape:version="1.1 (c4e8f9e, 2021-05-24)"
   sodipodi:docname="home_one.svg"
   xmlns:inkscape="http://www.inkscape.org/namespaces/inkscape"
   xmlns:sodipodi="http://sodipodi.sourceforge.net/DTD/sodipodi-0.dtd"
   xmlns="http://www.w3.org/2000/svg"
   xmlns:svg="http://www.w3.org/2000/svg">
  <sodipodi:namedview
     id="namedview74503"
     pagecolor="#ffffff"
     bordercolor="#999999"
     borderopacity="1"
     inkscape:pageshadow="0"
     inkscape:pageopacity="0"
     inkscape:pagecheckerboard="0"
     inkscape:document-units="mm"
     showgrid="false"
     inkscape:zoom="0.67081229"
     inkscape:cx="489.7048"
     inkscape:cy="392.06199"
     inkscape:window-width="1920"
     inkscape:window-height="1027"
     inkscape:window-x="0"
     inkscape:window-y="0"
     inkscape:window-maximized="1"
     inkscape:current-layer="layer1" />
  <defs
     id="defs74498" />
  <g
     inkscape:label="Layer 1"
     inkscape:groupmode="layer"
     id="layer1">
    <g
       id="g118410-22-7-7"
       transform="matrix(3.8204591,0,0,3.8204591,-1198.982,-2177.2398)"
       style="display:inline">
      <path
         id="path104302-2-8-7"
         style="color:#000000;font-variation-settings:normal;overflow:visible;opacity:1;vector-effect:none;fill:#6d7e10;fill-opacity:1;fill-rule:evenodd;stroke:#000000;stroke-width:0.220533;stroke-linecap:butt;stroke-linejoin:miter;stroke-miterlimit:4;stroke-dasharray:none;stroke-dashoffset:0;stroke-opacity:1;-inkscape-stroke:none;stop-color:#000000;stop-opacity:1"
         d="m 335.64663,577.85842 a 7.4869351,7.7573136 0 0 0 -7.47655,7.46363 5.5824709,5.2541127 0 0 0 -3.09232,-0.88006 5.5824709,5.2541127 0 0 0 -5.58207,5.25447 5.5824709,5.2541127 0 0 0 1.9358,3.9734 8.5114182,9.6891154 0 0 0 -1.65934,5.73659 8.5114182,9.6891154 0 0 0 8.51112,9.68883 8.5114182,9.6891154 0 0 0 6.64403,-3.63336 8.192295,10.562501 0 0 0 5.81877,3.12952 8.192295,10.562501 0 0 0 8.19227,-10.56267 8.192295,10.562501 0 0 0 -6.11436,-10.21644 7.4869351,7.7573136 0 0 0 0.30953,-2.19675 7.4869351,7.7573136 0 0 0 -7.48688,-7.75716 z" />
      <path
         id="path104691-0-9-4"
         style="color:#000000;font-variation-settings:normal;overflow:visible;opacity:1;vector-effect:none;fill:#839b1f;fill-opacity:1;fill-rule:evenodd;stroke:#000000;stroke-width:0.220533;stroke-linecap:butt;stroke-linejoin:miter;stroke-miterlimit:4;stroke-dasharray:none;stroke-dashoffset:0;stroke-opacity:1;-inkscape-stroke:none;stop-color:#000000;stop-opacity:1"
         d="m 340.46649,570.37103 a 11.017605,12.111437 0 0 0 -6.52725,2.36418 12.781896,14.211512 0 0 0 -6.43734,-1.93477 12.781896,14.211512 0 0 0 -12.78215,14.21154 12.781896,14.211512 0 0 0 12.78215,14.21154 12.781896,14.211512 0 0 0 9.82628,-5.13559 11.017605,12.111437 0 0 0 3.13831,0.50591 11.017605,12.111437 0 0 0 1.00925,-0.0569 5.6048116,5.4986991 0 0 0 5.39141,4.00907 5.6048116,5.4986991 0 0 0 5.60481,-5.49888 5.6048116,5.4986991 0 0 0 -2.4479,-4.54287 11.017605,12.111437 0 0 0 1.45986,-6.02187 11.017605,12.111437 0 0 0 -11.01743,-12.1114 z" />
      <path
         id="path104192-5-1-0"
         style="fill:#74411c;fill-opacity:1;fill-rule:evenodd;stroke:#000000;stroke-width:0.264583px;stroke-linecap:butt;stroke-linejoin:miter;stroke-opacity:1"
         d="m 333.49638,584.59807 c -0.0558,6.1e-4 -0.11207,0.005 -0.16949,0.0129 -3.64937,0.49485 -3.27009,14.23617 -3.75274,18.45159 -1.73117,-1.21684 -4.75089,-3.21511 -5.40174,-2.28306 -0.73334,1.05018 3.44242,4.47783 5.21415,5.77276 -0.0848,5.19369 0.31057,12.78683 0.31057,12.78683 0,0 1.37043,1.74366 4.11085,1.2454 2.7404,-0.49824 3.79926,-1.05884 3.79926,-1.05884 0,0 0.507,-12.80308 0.13332,-16.9137 -0.14509,-1.59621 -0.28998,-4.74255 -0.62682,-7.96488 1.9191,-1.81248 5.85385,-5.65613 5.38054,-6.27148 -0.47985,-0.62375 -3.87421,2.4161 -5.66891,3.89023 -0.572,-4.08186 -1.54294,-7.68734 -3.32899,-7.66776 z" />
      <path
         style="fill:#ffa94b;fill-opacity:1;fill-rule:evenodd;stroke:#000000;stroke-width:0.264583px;stroke-linecap:butt;stroke-linejoin:miter;stroke-opacity:1"
         d="m 324.1009,577.22503 c 0,0 -0.14351,3.02657 1.1644,3.01101 1.30794,-0.0156 1.37806,-2.99095 1.37806,-2.99095"
         id="path105037-52-5-6" />
      <ellipse
         style="color:#000000;font-variation-settings:normal;overflow:visible;opacity:1;vector-effect:none;fill:#74411c;fill-opacity:1;fill-rule:evenodd;stroke:#000000;stroke-width:0.220533;stroke-linecap:butt;stroke-linejoin:miter;stroke-miterlimit:4;stroke-dasharray:none;stroke-dashoffset:0;stroke-opacity:1;-inkscape-stroke:none;stop-color:#000000;stop-opacity:1"
         id="path105061-90-4-4"
         cx="325.40561"
         cy="577.0014"
         rx="1.7653165"
         ry="0.97260612" />
      <path
         style="fill:none;fill-rule:evenodd;stroke:#000000;stroke-width:0.264583px;stroke-linecap:round;stroke-linejoin:miter;stroke-opacity:1"
         d="m 325.39479,576.49201 c 0,0 0.13341,-0.82561 -0.32239,-1.20319"
         id="path108612-2-9-7" />
      <path
         style="fill:#ffa94b;fill-opacity:1;fill-rule:evenodd;stroke:#000000;stroke-width:0.264583px;stroke-linecap:butt;stroke-linejoin:miter;stroke-opacity:1"
         d="m 334.49427,579.57735 c 0,0 -0.14351,3.02657 1.1644,3.01101 1.30794,-0.0156 1.37806,-2.99095 1.37806,-2.99095"
         id="path105037-0-8-2-4" />
      <ellipse
         style="color:#000000;font-variation-settings:normal;overflow:visible;vector-effect:none;fill:#74411c;fill-opacity:1;fill-rule:evenodd;stroke:#000000;stroke-width:0.220533;stroke-linecap:butt;stroke-linejoin:miter;stroke-miterlimit:4;stroke-dasharray:none;stroke-dashoffset:0;stroke-opacity:1;-inkscape-stroke:none;stop-color:#000000"
         id="path105061-3-38-5-8"
         cx="335.79898"
         cy="579.3537"
         rx="1.7653165"
         ry="0.97260612" />
      <path
         style="fill:none;fill-rule:evenodd;stroke:#000000;stroke-width:0.264583px;stroke-linecap:round;stroke-linejoin:miter;stroke-opacity:1"
         d="m 335.78816,578.84433 c 0,0 0.13341,-0.82561 -0.32239,-1.20319"
         id="path108612-4-0-7-5" />
      <path
         style="fill:#ffa94b;fill-opacity:1;fill-rule:evenodd;stroke:#000000;stroke-width:0.264583px;stroke-linecap:butt;stroke-linejoin:miter;stroke-opacity:1"
         d="m 346.12084,585.91912 c 0,0 -0.14351,3.02657 1.1644,3.01101 1.30794,-0.0156 1.37806,-2.99095 1.37806,-2.99095"
         id="path105037-03-4-4-8" />
      <ellipse
         style="color:#000000;font-variation-settings:normal;overflow:visible;vector-effect:none;fill:#74411c;fill-opacity:1;fill-rule:evenodd;stroke:#000000;stroke-width:0.220533;stroke-linecap:butt;stroke-linejoin:miter;stroke-miterlimit:4;stroke-dasharray:none;stroke-dashoffset:0;stroke-opacity:1;-inkscape-stroke:none;stop-color:#000000"
         id="path105061-9-0-9-2"
         cx="347.42557"
         cy="585.6955"
         rx="1.7653165"
         ry="0.97260612" />
      <path
         style="fill:none;fill-rule:evenodd;stroke:#000000;stroke-width:0.264583px;stroke-linecap:round;stroke-linejoin:miter;stroke-opacity:1"
         d="m 347.41474,585.1861 c 0,0 0.13341,-0.82561 -0.32239,-1.20319"
         id="path108612-1-91-9-6" />
      <path
         style="fill:#ffa94b;fill-opacity:1;fill-rule:evenodd;stroke:#000000;stroke-width:0.264583px;stroke-linecap:butt;stroke-linejoin:miter;stroke-opacity:1"
         d="m 342.15724,595.82813 c 0,0 -0.14351,3.02657 1.1644,3.01101 1.30794,-0.0156 1.37806,-2.99095 1.37806,-2.99095"
         id="path105037-9-96-4-0" />
      <ellipse
         style="color:#000000;font-variation-settings:normal;overflow:visible;vector-effect:none;fill:#74411c;fill-opacity:1;fill-rule:evenodd;stroke:#000000;stroke-width:0.220533;stroke-linecap:butt;stroke-linejoin:miter;stroke-miterlimit:4;stroke-dasharray:none;stroke-dashoffset:0;stroke-opacity:1;-inkscape-stroke:none;stop-color:#000000"
         id="path105061-6-2-5-6"
         cx="343.46194"
         cy="595.60449"
         rx="1.7653165"
         ry="0.97260612" />
      <path
         style="fill:none;fill-rule:evenodd;stroke:#000000;stroke-width:0.264583px;stroke-linecap:round;stroke-linejoin:miter;stroke-opacity:1"
         d="m 343.45113,595.09511 c 0,0 0.13341,-0.82561 -0.32239,-1.20319"
         id="path108612-9-5-9-6" />
      <path
         style="fill:#ffa94b;fill-opacity:1;fill-rule:evenodd;stroke:#000000;stroke-width:0.264583px;stroke-linecap:butt;stroke-linejoin:miter;stroke-opacity:1"
         d="m 324.4091,596.66489 c 0,0 -0.14351,3.02657 1.1644,3.01101 1.30794,-0.0156 1.37806,-2.99095 1.37806,-2.99095"
         id="path105037-3-4-3-4" />
      <ellipse
         style="color:#000000;font-variation-settings:normal;overflow:visible;vector-effect:none;fill:#74411c;fill-opacity:1;fill-rule:evenodd;stroke:#000000;stroke-width:0.220533;stroke-linecap:butt;stroke-linejoin:miter;stroke-miterlimit:4;stroke-dasharray:none;stroke-dashoffset:0;stroke-opacity:1;-inkscape-stroke:none;stop-color:#000000"
         id="path105061-38-4-5-6"
         cx="325.71381"
         cy="596.44122"
         rx="1.7653165"
         ry="0.97260612" />
      <path
         style="fill:none;fill-rule:evenodd;stroke:#000000;stroke-width:0.264583px;stroke-linecap:round;stroke-linejoin:miter;stroke-opacity:1"
         d="m 325.70299,595.93187 c 0,0 0.13341,-0.82561 -0.32239,-1.20319"
         id="path108612-0-9-7-2" />
      <path
         style="fill:#ffa94b;fill-opacity:1;fill-rule:evenodd;stroke:#000000;stroke-width:0.264583px;stroke-linecap:butt;stroke-linejoin:miter;stroke-opacity:1"
         d="m 321.89882,587.50456 c 0,0 -0.14351,3.02657 1.1644,3.01101 1.30794,-0.0156 1.37806,-2.99095 1.37806,-2.99095"
         id="path105037-5-9-0-8" />
      <ellipse
         style="color:#000000;font-variation-settings:normal;overflow:visible;vector-effect:none;fill:#74411c;fill-opacity:1;fill-rule:evenodd;stroke:#000000;stroke-width:0.220533;stroke-linecap:butt;stroke-linejoin:miter;stroke-miterlimit:4;stroke-dasharray:none;stroke-dashoffset:0;stroke-opacity:1;-inkscape-stroke:none;stop-color:#000000"
         id="path105061-66-3-8-9"
         cx="323.20352"
         cy="587.28094"
         rx="1.7653165"
         ry="0.97260612" />
      <path
         style="fill:none;fill-rule:evenodd;stroke:#000000;stroke-width:0.264583px;stroke-linecap:round;stroke-linejoin:miter;stroke-opacity:1"
         d="m 323.19271,586.77154 c 0,0 0.13341,-0.82561 -0.32239,-1.20319"
         id="path108612-40-6-1-6" />
    </g>
    <path
       style="display:inline;fill:#ffa94b;fill-opacity:1;fill-rule:evenodd;stroke:#000000;stroke-width:1;stroke-linecap:butt;stroke-linejoin:miter;stroke-miterlimit:4;stroke-dasharray:none;stroke-opacity:1"
       d="m 74.645307,193.59898 -4.0124,-27.00863 -17.5406,-29.19732 -26.254,31.21125 -7.2226,25.45079 c 17.6134,0.90208 35.3423,1.63749 55.0296,-0.45609 z"
       id="path129203"
       sodipodi:nodetypes="cccccc" />
    <path
       style="display:inline;fill:#74411c;fill-opacity:1;fill-rule:evenodd;stroke:#000000;stroke-width:1;stroke-linecap:butt;stroke-linejoin:miter;stroke-miterlimit:4;stroke-dasharray:none;stroke-opacity:1"
       d="m 74.391407,174.72558 c 8.028595,1.62936 6.555495,-2.39095 6.228195,-5.72995 -12.963095,-6.02442 -20.035795,-25.12926 -27.769995,-42.76532 -8.7403,17.20983 -18.009,33.75555 -32.4698,43.77393 -0.4409,1.98029 -2.2096,4.60218 3.2386,3.73693 11.5027,-10.17534 22.5814,-20.80847 29.9943,-35.40067 3.6108,14.8912 11.2046,26.46329 20.7787,36.38508 z"
       id="path129205"
       sodipodi:nodetypes="ccccccc" />
    <ellipse
       style="color:#000000;font-variation-settings:normal;display:inline;overflow:visible;vector-effect:none;fill:#5f8e98;fill-opacity:1;fill-rule:evenodd;stroke:#000000;stroke-width:1;stroke-linecap:round;stroke-linejoin:miter;stroke-miterlimit:4;stroke-dasharray:none;stroke-dashoffset:0;stroke-opacity:1;-inkscape-stroke:none;stop-color:#000000"
       id="path129253"
       cx="46.350826"
       cy="160.06627"
       rx="2.7112231"
       ry="1.8720731" />
    <ellipse
       style="color:#000000;font-variation-settings:normal;display:inline;overflow:visible;vector-effect:none;fill:#5f8e98;fill-opacity:1;fill-rule:evenodd;stroke:#000000;stroke-width:1;stroke-linecap:round;stroke-linejoin:miter;stroke-miterlimit:4;stroke-dasharray:none;stroke-dashoffset:0;stroke-opacity:1;-inkscape-stroke:none;stop-color:#000000"
       id="path129255"
       cx="54.590694"
       cy="160.78871"
       rx="2.5763431"
       ry="2.0478625" />
    <ellipse
       style="color:#000000;font-variation-settings:normal;display:inline;overflow:visible;vector-effect:none;fill:#5f8e98;fill-opacity:1;fill-rule:evenodd;stroke:#000000;stroke-width:1;stroke-linecap:round;stroke-linejoin:miter;stroke-miterlimit:4;stroke-dasharray:none;stroke-dashoffset:0;stroke-opacity:1;-inkscape-stroke:none;stop-color:#000000"
       id="path129257"
       cx="54.391354"
       cy="166.17859"
       rx="2.8676872"
       ry="1.9080654" />
    <ellipse
       style="color:#000000;font-variation-settings:normal;display:inline;overflow:visible;vector-effect:none;fill:#5f8e98;fill-opacity:1;fill-rule:evenodd;stroke:#000000;stroke-width:1;stroke-linecap:round;stroke-linejoin:miter;stroke-miterlimit:4;stroke-dasharray:none;stroke-dashoffset:0;stroke-opacity:1;-inkscape-stroke:none;stop-color:#000000"
       id="path129259"
       cx="45.706905"
       cy="165.80412"
       rx="2.6828027"
       ry="2.1464477" />
    <ellipse
       style="color:#000000;font-variation-settings:normal;display:inline;overflow:visible;fill:none;fill-opacity:1;fill-rule:evenodd;stroke:#000000;stroke-width:1;stroke-linecap:round;stroke-linejoin:miter;stroke-miterlimit:4;stroke-dasharray:none;stroke-dashoffset:0;stroke-opacity:1;stop-color:#000000"
       id="path129261"
       cx="39.709839"
       cy="182.4198"
       rx="11.218401"
       ry="10.184837" />
    <ellipse
       style="color:#000000;font-variation-settings:normal;display:inline;overflow:visible;fill:#74411c;fill-opacity:1;fill-rule:evenodd;stroke:#000000;stroke-width:1.12828;stroke-linecap:round;stroke-linejoin:miter;stroke-miterlimit:4;stroke-dasharray:none;stroke-dashoffset:0;stroke-opacity:1;stop-color:#000000"
       id="path129263"
       cx="39.858276"
       cy="182.28424"
       rx="8.7437515"
       ry="8.3419123" />
    <path
       id="path120421"
       style="color:#000000;font-variation-settings:normal;display:inline;overflow:visible;fill:#6d7e10;fill-opacity:1;fill-rule:evenodd;stroke:#000000;stroke-width:1.21661;stroke-linecap:round;stroke-linejoin:miter;stroke-miterlimit:4;stroke-dasharray:none;stroke-dashoffset:0;stroke-opacity:1;stop-color:#000000"
       d="m 104.74921,150.89242 a 7.8226004,8.1440764 0 0 0 -7.822308,8.14417 7.8226004,8.1440764 0 0 0 0.1698,1.67171 9.0587602,9.1646897 0 0 0 -7.1408,8.95396 9.0587602,9.1646897 0 0 0 1.29,4.7058 7.3939651,8.2512362 0 0 0 -1.439,4.88124 7.3939651,8.2512362 0 0 0 7.3941,8.25104 7.3939651,8.2512362 0 0 0 4.497108,-1.70695 18.673917,10.636477 0 0 0 15.1843,4.44869 18.673917,10.636477 0 0 0 18.6743,-10.63632 18.673917,10.636477 0 0 0 -14.2972,-10.33959 8.8071166,6.5559487 0 0 0 0.159,-1.22031 8.8071166,6.5559487 0 0 0 -8.8075,-6.55607 8.8071166,6.5559487 0 0 0 -0.4079,0.011 7.8226004,8.1440764 0 0 0 0.369,-2.4645 7.8226004,8.1440764 0 0 0 -7.8229,-8.14417 z" />
    <path
       id="path120534"
       style="color:#000000;font-variation-settings:normal;display:inline;overflow:visible;fill:#839b1f;fill-opacity:1;fill-rule:evenodd;stroke:#000000;stroke-width:1;stroke-linecap:round;stroke-linejoin:miter;stroke-miterlimit:4;stroke-dasharray:none;stroke-dashoffset:0;stroke-opacity:1;stop-color:#000000"
       d="m 105.78401,164.54667 a 5.6252268,4.5948401 0 0 0 -5.62551,4.59507 5.6252268,4.5948401 0 0 0 0.86301,2.44274 5.2624029,4.6668118 0 0 0 -1.716708,3.44631 5.2624029,4.6668118 0 0 0 0.2527,1.4242 7.9359569,2.9092943 0 0 0 -3.0453,2.29031 7.9359569,2.9092943 0 0 0 0.9958,1.40869 6.1538905,5.7262225 0 0 0 -1.2754,3.48507 6.1538905,5.7262225 0 0 0 6.154208,5.72627 6.1538905,5.7262225 0 0 0 6.1536,-5.72627 6.1538905,5.7262225 0 0 0 -0.5173,-2.29754 7.9359569,2.9092943 0 0 0 1.9451,-0.50747 4.6849516,5.2764872 0 0 0 1.6775,0.35089 4.6849516,5.2764872 0 0 0 4.685,-5.27616 4.6849516,5.2764872 0 0 0 -4.685,-5.27669 4.6849516,5.2764872 0 0 0 -0.5613,0.0419 5.6252268,4.5948401 0 0 0 0.3246,-1.53221 5.6252268,4.5948401 0 0 0 -5.625,-4.59507 z" />
    <path
       id="path120534-7"
       style="color:#000000;font-variation-settings:normal;display:inline;overflow:visible;fill:#839b1f;fill-opacity:1;fill-rule:evenodd;stroke:#000000;stroke-width:1;stroke-linecap:round;stroke-linejoin:miter;stroke-miterlimit:4;stroke-dasharray:none;stroke-dashoffset:0;stroke-opacity:1;stop-color:#000000"
       d="m 17.786407,171.81918 a 5.6252268,4.5948401 0 0 1 5.6255,4.59507 5.6252268,4.5948401 0 0 1 -0.863,2.44274 5.2624029,4.6668118 0 0 1 1.7167,3.4463 5.2624029,4.6668118 0 0 1 -0.2527,1.4242 7.9359569,2.9092943 0 0 1 3.0453,2.29031 7.9359569,2.9092943 0 0 1 -0.9958,1.4087 6.1538905,5.7262225 0 0 1 1.2754,3.48506 6.1538905,5.7262225 0 0 1 -6.1542,5.72628 6.1538905,5.7262225 0 0 1 -6.1536,-5.72628 6.1538905,5.7262225 0 0 1 0.5173,-2.29753 7.9359569,2.9092943 0 0 1 -1.9451,-0.50747 4.6849516,5.2764872 0 0 1 -1.6774,0.35089 4.6849516,5.2764872 0 0 1 -4.6850993,-5.27616 4.6849516,5.2764872 0 0 1 4.6850993,-5.2767 4.6849516,5.2764872 0 0 1 0.5612,0.0419 5.6252268,4.5948401 0 0 1 -0.3246,-1.5322 5.6252268,4.5948401 0 0 1 5.625,-4.59507 z" />
  </g>
</svg>
