<?xml version="1.0" encoding="UTF-8" standalone="no"?>
<!-- Created with Inkscape (http://www.inkscape.org/) -->

<svg
   xmlns:dc="http://purl.org/dc/elements/1.1/"
   xmlns:cc="http://creativecommons.org/ns#"
   xmlns:rdf="http://www.w3.org/1999/02/22-rdf-syntax-ns#"
   xmlns:svg="http://www.w3.org/2000/svg"
   xmlns="http://www.w3.org/2000/svg"
   xmlns:sodipodi="http://sodipodi.sourceforge.net/DTD/sodipodi-0.dtd"
   xmlns:inkscape="http://www.inkscape.org/namespaces/inkscape"
   width="220mm"
   height="140mm"
   viewBox="0 0 220 140"
   version="1.1"
   id="svg74501"
   inkscape:version="0.92.5 (2060ec1f9f, 2020-04-08)"
   sodipodi:docname="rainbow.svg">
  <metadata
     id="metadata14">
    <rdf:RDF>
      <cc:Work
         rdf:about="">
        <dc:format>image/svg+xml</dc:format>
        <dc:type
           rdf:resource="http://purl.org/dc/dcmitype/StillImage" />
        <dc:title></dc:title>
      </cc:Work>
    </rdf:RDF>
  </metadata>
  <sodipodi:namedview
     id="namedview74503"
     pagecolor="#ffffff"
     bordercolor="#999999"
     borderopacity="1"
     inkscape:pageshadow="0"
     inkscape:pageopacity="0"
     inkscape:pagecheckerboard="0"
     inkscape:document-units="mm"
     showgrid="false"
     inkscape:zoom="0.47433593"
     inkscape:cx="902.36186"
     inkscape:cy="-43.863882"
     inkscape:window-width="1920"
     inkscape:window-height="1009"
     inkscape:window-x="0"
     inkscape:window-y="0"
     inkscape:window-maximized="1"
     inkscape:current-layer="layer1"
     inkscape:snap-global="false" />
  <defs
     id="defs74498" />
  <g
     inkscape:label="Layer 1"
     inkscape:groupmode="layer"
     id="layer1"
     transform="translate(0,60)">
    <path
       inkscape:connector-curvature="0"
       id="path2905"
       style="color:#000000;display:inline;overflow:visible;fill:#6494a0;fill-opacity:1;fill-rule:evenodd;stroke:#000000;stroke-width:1"
       d="m 106.67819,-49.943291 a 38.401075,21.022674 0 0 0 -38.364063,20.42769 33.95636,22.277872 0 0 0 -18.01182,-3.39307 33.95636,22.277872 0 0 0 -33.956582,22.27823 33.95636,22.277872 0 0 0 33.956582,22.27771 33.95636,22.277872 0 0 0 2.865458,-0.0894 33.088641,23.732019 0 0 0 32.807302,20.72535 33.088641,23.732019 0 0 0 25.395343,-8.53694 22.294946,15.531971 0 0 0 17.01239,5.50149 22.294946,15.531971 0 0 0 18.23559,-6.61306 36.278648,18.970613 0 0 0 10.48877,0.8196 36.278648,18.970613 0 0 0 36.27893,-18.9704102 36.278648,18.970613 0 0 0 -36.27893,-18.9709498 36.278648,18.970613 0 0 0 -5.53402,0.23048 29.977125,17.793869 0 0 0 -9.82785,-6.11023 38.401075,21.022674 0 0 0 3.33365,-8.55347 38.401075,21.022674 0 0 0 -38.40075,-21.02301 z" />
    <path
       inkscape:connector-curvature="0"
       id="path8027"
       style="color:#000000;display:inline;overflow:visible;fill:#b6dad0;fill-opacity:1;fill-rule:evenodd;stroke:#000000;stroke-width:1"
       d="m 119.79641,-13.030041 a 15.325937,11.450413 0 0 0 -15.29783,10.8577298 18.209938,12.248091 0 0 0 -10.487215,-2.23552 18.209938,12.248091 0 0 0 -18.209739,12.24782 18.209938,12.248091 0 0 0 18.209739,12.2483602 18.209938,12.248091 0 0 0 15.904455,-6.37119 11.228782,9.4671811 0 0 0 11.20399,8.88317 11.228782,9.4671811 0 0 0 10.4252,-5.96398 14.621297,10.041131 0 0 0 7.2765,1.33792 14.621297,10.041131 0 0 0 14.6214,-10.0412502 14.621297,10.041131 0 0 0 -14.6214,-10.04126 14.621297,10.041131 0 0 0 -3.7067,0.33436 15.325937,11.450413 0 0 0 -15.3184,-11.2561598 z" />
    <path
       inkscape:connector-curvature="0"
       id="path16249"
       style="display:inline;overflow:visible;fill:#b6dad0;fill-rule:evenodd;stroke:#000000;stroke-width:1"
       d="m 35.936765,34.655709 c -0.64211,2.39637 -3.10528,3.81849 -5.50165,3.17638 -2.39638,-0.64211 -3.8185,-3.10528 -3.17639,-5.50166 0.64211,-2.39636 5.40367,-8.3198 6.95096,-10.56499 0.3443,2.28456 2.36919,10.49389 1.72708,12.89027 z"
       sodipodi:nodetypes="ssscs" />
    <path
       inkscape:connector-curvature="0"
       id="path16249-7"
       style="display:inline;overflow:visible;fill:#b6dad0;fill-rule:evenodd;stroke:#000000;stroke-width:1;stroke-miterlimit:4;stroke-dasharray:none"
       d="m 56.202594,58.971289 c -0.849238,3.16934 -4.106939,5.05016 -7.276279,4.20092 -3.169349,-0.84924 -5.05028,-4.10694 -4.201039,-7.27629 0.849239,-3.16934 7.146729,-11.00358 9.1932,-13.97301 0.455289,3.02156 3.133359,13.87892 2.284118,17.04838 z"
       sodipodi:nodetypes="ssscs" />
    <path
       inkscape:connector-curvature="0"
       id="path16249-5"
       style="display:inline;overflow:visible;fill:#b6dad0;fill-rule:evenodd;stroke:#000000;stroke-width:1"
       d="m 88.621866,59.057799 c -0.64211,2.39637 -3.10528,3.81849 -5.501651,3.17638 -2.396379,-0.64211 -3.818498,-3.10528 -3.176389,-5.50166 0.64211,-2.39637 5.40367,-8.3198 6.950959,-10.56499 0.3443,2.28456 2.36919,10.49389 1.727081,12.89027 z"
       sodipodi:nodetypes="ssscs" />
    <path
       inkscape:connector-curvature="0"
       id="path16249-5-1"
       style="display:inline;overflow:visible;fill:#b6dad0;fill-rule:evenodd;stroke:#000000;stroke-width:1"
       d="m 101.3054,72.093649 c -0.64211,2.39637 -3.105284,3.81849 -5.501654,3.17638 -2.39638,-0.64211 -3.818499,-3.10528 -3.17639,-5.50166 0.642109,-2.39637 5.40367,-8.3198 6.95096,-10.56499 0.3443,2.28456 2.369194,10.49389 1.727084,12.89027 z"
       sodipodi:nodetypes="ssscs" />
    <path
       inkscape:connector-curvature="0"
       id="path16249-9"
       style="display:inline;overflow:visible;fill:#b6dad0;fill-rule:evenodd;stroke:#000000;stroke-width:0.794725"
       d="m 72.082666,75.759439 c -0.510291,1.90448 -2.467782,3.0347 -4.372289,2.5244 -1.9045,-0.5103 -3.034642,-2.46786 -2.52435,-4.37235 0.510288,-1.90445 4.294478,-6.61194 5.524119,-8.39625 0.27365,1.81556 1.882899,8.33978 1.37252,10.2442 z"
       sodipodi:nodetypes="ssscs" />
    <path
       inkscape:connector-curvature="0"
       id="path16249-6"
       style="display:inline;overflow:visible;fill:#b6dad0;fill-rule:evenodd;stroke:#000000;stroke-width:0.76539999"
       d="m 119.26921,47.691579 c -0.4917,1.83416 -2.3765,2.92269 -4.2109,2.43122 -1.83417,-0.49147 -2.92263,-2.37679 -2.43116,-4.21102 0.49147,-1.83414 4.13576,-6.36794 5.32026,-8.08643 0.2636,1.74861 1.8135,8.03205 1.3218,9.86623 z"
       sodipodi:nodetypes="ssscs" />
    <path
       inkscape:connector-curvature="0"
       id="path16249-2"
       style="display:inline;overflow:visible;fill:#b6dad0;fill-rule:evenodd;stroke:#000000;stroke-width:1"
       d="m 140.76531,53.068349 c -0.6421,2.39637 -3.1053,3.81849 -5.5016,3.17638 -2.3964,-0.64211 -3.8185,-3.10528 -3.1764,-5.50166 0.6421,-2.39637 5.4037,-8.3198 6.9509,-10.56499 0.3443,2.28456 2.3692,10.49389 1.7271,12.89027 z"
       sodipodi:nodetypes="ssscs" />
    <g
       id="g2256"
       style="opacity:0.797"
       transform="translate(-5.5779737,-290.05463)">
      <path
         id="path2213"
         transform="scale(0.26458333)"
         d="m 432.3125,998.41406 a 399.63396,388.45358 0 0 0 -399.634766,388.45314 399.63396,388.45358 0 0 0 0.570313,15.6543 H 174.98242 a 260.16404,252.88554 0 0 1 -0.28906,-7.9473 260.16404,252.88554 0 0 1 260.16406,-252.8847 260.16404,252.88554 0 0 1 260.16211,252.8847 260.16404,252.88554 0 0 1 -0.4082,7.9473 h 136.52734 a 399.63396,388.45358 0 0 0 0.80664,-15.6543 A 399.63396,388.45358 0 0 0 432.3125,998.41406 Z"
         style="opacity:1;vector-effect:none;fill:#ef3e2f;fill-opacity:1;stroke:none;stroke-width:4.67662907;stroke-linecap:butt;stroke-linejoin:miter;stroke-miterlimit:4;stroke-dasharray:none;stroke-dashoffset:0;stroke-opacity:1"
         inkscape:connector-curvature="0" />
      <path
         id="path2218"
         transform="scale(0.26458333)"
         d="m 432.3125,1021.4727 a 376.96273,366.41661 0 0 0 -376.962891,366.416 376.96273,366.41661 0 0 0 0.53711,14.7656 H 174.98828 a 260.16404,252.88554 0 0 1 -0.29492,-8.0801 260.16404,252.88554 0 0 1 260.16406,-252.8847 260.16404,252.88554 0 0 1 260.16211,252.8847 260.16404,252.88554 0 0 1 -0.41406,8.0801 h 113.9082 a 376.96273,366.41661 0 0 0 0.75977,-14.7656 376.96273,366.41661 0 0 0 -376.96094,-366.416 z"
         style="opacity:1;vector-effect:none;fill:#f39330;fill-opacity:1;stroke:none;stroke-width:4.41132402;stroke-linecap:butt;stroke-linejoin:miter;stroke-miterlimit:4;stroke-dasharray:none;stroke-dashoffset:0;stroke-opacity:1"
         inkscape:connector-curvature="0" />
      <path
         id="path2222"
         transform="scale(0.26458333)"
         d="m 431.56641,1046.2598 a 351.52325,341.68884 0 0 0 -351.523441,341.6875 351.52325,341.68884 0 0 0 0.501953,13.7715 h 94.408198 a 260.16404,252.88554 0 0 1 -0.25976,-7.1446 260.16404,252.88554 0 0 1 260.16406,-252.8847 260.16404,252.88554 0 0 1 260.16211,252.8847 260.16404,252.88554 0 0 1 -0.36719,7.1446 h 87.72657 a 351.52325,341.68884 0 0 0 0.71093,-13.7715 351.52325,341.68884 0 0 0 -351.52343,-341.6875 z"
         style="opacity:1;vector-effect:none;fill:#fff344;fill-opacity:1;stroke:none;stroke-width:4.11362362;stroke-linecap:butt;stroke-linejoin:miter;stroke-miterlimit:4;stroke-dasharray:none;stroke-dashoffset:0;stroke-opacity:1"
         inkscape:connector-curvature="0" />
      <path
         id="path2224"
         transform="scale(0.26458333)"
         d="m 430.82227,1068.4922 a 329.66282,320.43998 0 0 0 -329.66407,320.4394 329.66282,320.43998 0 0 0 0.47071,12.9141 h 73.33007 a 260.16404,252.88554 0 0 1 -0.26562,-7.2715 260.16404,252.88554 0 0 1 260.16406,-252.8847 260.16404,252.88554 0 0 1 260.16211,252.8847 260.16404,252.88554 0 0 1 -0.37305,7.2715 h 65.17188 a 329.66282,320.43998 0 0 0 0.66602,-12.9141 329.66282,320.43998 0 0 0 -329.66211,-320.4394 z"
         style="opacity:1;vector-effect:none;fill:#a6cb38;fill-opacity:1;stroke:none;stroke-width:3.85780692;stroke-linecap:butt;stroke-linejoin:miter;stroke-miterlimit:4;stroke-dasharray:none;stroke-dashoffset:0;stroke-opacity:1"
         inkscape:connector-curvature="0" />
      <path
         id="path2226"
         transform="scale(0.26458333)"
         d="m 432.3125,1093.6895 a 304.88767,296.35796 0 0 0 -304.88867,296.3574 304.88767,296.35796 0 0 0 0.43555,11.9433 h 47.10351 a 260.16404,252.88554 0 0 1 -0.26953,-7.416 260.16404,252.88554 0 0 1 260.16406,-252.8847 260.16404,252.88554 0 0 1 260.16211,252.8847 260.16404,252.88554 0 0 1 -0.38086,7.416 h 41.94531 a 304.88767,296.35796 0 0 0 0.61524,-11.9433 304.88767,296.35796 0 0 0 -304.88672,-296.3574 z"
         style="opacity:1;vector-effect:none;fill:#02498b;fill-opacity:1;stroke:none;stroke-width:3.56788135;stroke-linecap:butt;stroke-linejoin:miter;stroke-miterlimit:4;stroke-dasharray:none;stroke-dashoffset:0;stroke-opacity:1"
         inkscape:connector-curvature="0" />
      <path
         id="path2228"
         transform="scale(0.26458333)"
         d="m 432.3125,1115.9141 a 281.56989,273.69252 0 0 0 -281.57031,273.6933 281.56989,273.69252 0 0 0 0.40234,11.0293 h 23.76953 a 260.16404,252.88554 0 0 1 -0.2207,-6.0625 260.16404,252.88554 0 0 1 260.16406,-252.8847 260.16404,252.88554 0 0 1 260.16211,252.8847 260.16404,252.88554 0 0 1 -0.31055,6.0625 h 18.60352 a 281.56989,273.69252 0 0 0 0.56836,-11.0293 281.56989,273.69252 0 0 0 -281.56836,-273.6933 z"
         style="opacity:1;vector-effect:none;fill:#c03a8f;fill-opacity:1;stroke:none;stroke-width:3.29500985;stroke-linecap:butt;stroke-linejoin:miter;stroke-miterlimit:4;stroke-dasharray:none;stroke-dashoffset:0;stroke-opacity:1"
         inkscape:connector-curvature="0" />
    </g>
  </g>
</svg>
